<?xml version="1.0" encoding="utf-8" standalone="yes"?>
<!DOCTYPE svg PUBLIC "-//W3C//DTD SVG 1.1//EN" "http://www.w3.org/Graphics/SVG/1.1/DTD/svg11.dtd">
<svg width="382" height="396" viewBox="0 0 382 396" style="fill:none;stroke:none;fill-rule:evenodd;clip-rule:evenodd;stroke-linecap:round;stroke-linejoin:round;stroke-miterlimit:1.5;" version="1.1" xmlns="http://www.w3.org/2000/svg" xmlns:xlink="http://www.w3.org/1999/xlink"><style id="fontImports">@import url("https://fonts.googleapis.com/css2?family=Roboto:wght@400;700&amp;display=block");</style><g id="items" style="isolation: isolate"><g id="blend" style="mix-blend-mode: normal"><g id="g-root-3.cu_sy_1hfprtgbp0c1v-fill" data-item-order="1999895030" transform="translate(21.614654541015625, 27.65380859375)"><g id="3.cu_sy_1hfprtgbp0c1v-fill" stroke="none" fill="#dce9ff"><g><path d="M 190 351.5L 199.6 346.1L 189.7 328.7L 180.1 334.2ZM 111.4 335.7L 138.1 331.1L 138.4 310.7L 108 316ZM 138.4 310.7L 86 299.8L 86.7 320.3L 138.1 331.1ZM 86.7 320.3L 102 316L 102.4 295.1L 86 299.8ZM 102.4 295.1L 62.6 282L 66 304.1L 102 316ZM 66 304.1L 75.3 297.5L 74.7 273.5L 62.6 282ZM 74.7 273.5L 50 257.9L 41.8 276.4L 75.3 297.5ZM 41.8 276.4L 53.9 279.7L 64.2 261.8L 50 257.9ZM 64.2 261.8L 38.8 236.8L 31.3 257.4L 53.9 279.7ZM 31.3 257.4L 58.1 255.2L 60 235L 38.8 236.8ZM 60 235L 19.5 223.9L 18.3 244.3L 58.1 255.2ZM 18.3 244.3L 45.2 240L 50.1 218.9L 19.5 223.9ZM 50.1 218.9L 18.9 196.7L 12.4 216.6L 45.2 240ZM 12.4 216.6L 46.8 216.9L 52.1 196.9L 18.9 196.7ZM 52.1 196.9L 11 174L 6.4 194.4L 46.8 216.9ZM 6.4 194.4L 54.3 191.1L 57.7 170.8L 11 174ZM 57.7 170.8L 15.7 152.8L 12.2 173L 54.3 191.1ZM 12.2 173L 63.7 170.2L 66.2 150L 15.7 152.8ZM 66.2 150L 16.1 134.8L 14.6 155.2L 63.7 170.2ZM 14.6 155.2L 76.2 145.9L 77.2 125.5L 16.1 134.8ZM 77.2 125.5L 23.4 111.7L 22.5 132.1L 76.2 145.9ZM 22.5 132.1L 103.8 119L 103.4 98.8L 23.4 111.7ZM 103.4 98.8L 28.6 89.2L 28.8 109.4L 103.8 119ZM 28.8 109.4L 288.8 69.7L 286.8 49.7L 28.6 89.2ZM 286.8 49.7L 48 61.6L 49.4 81.5L 288.8 69.7ZM 49.4 81.5L 270.2 60.2L 269.4 40.2L 48 61.6ZM 269.4 40.2L 75.3 38.2L 76.4 58.2L 270.2 60.2ZM 76.4 58.2L 236 39.4L 236.4 19.2L 75.3 38.2ZM 236.4 19.2L 149.6 5.9L 144.1 25.3L 236 39.4ZM 144.1 25.3L 150.5 27.9L 158.3 9.5L 149.6 5.9ZM 239 322.8L 257.4 315.9L 250.4 297.2L 232 304ZM 278 296.4L 279.2 293.4L 288.7 283.5L 294.1 273L 295.2 273.1L 307.3 253.8L 296.9 253.2L 274.3 269.4L 272.2 277.3L 271.8 277.4ZM 307.3 253.8L 294.3 230.6L 283.3 251.9L 295.2 273.1ZM 283.3 251.9L 310.5 249L 318.2 228.1L 294.3 230.6ZM 318.2 228.1L 298.5 207.5L 290.6 228.1L 310.5 249ZM 290.6 228.1L 323.4 225.7L 328.2 205.3L 298.5 207.5ZM 328.2 205.3L 295.3 185.7L 291.2 206.5L 323.4 225.7ZM 291.2 206.5L 333.9 200.4L 335.9 179.9L 295.3 185.7ZM 335.9 179.9L 288.7 163.3L 285.3 183.3L 333.9 200.4ZM 285.3 183.3L 327.4 183.2L 330.3 163.2L 288.7 163.3ZM 330.3 163.2L 274.1 146.5L 273 167L 327.4 183.2ZM 273 167L 330.4 156.6L 330.6 136.2L 274.1 146.5ZM 330.6 136.2L 264.9 122.7L 263.7 142.9L 330.4 156.6ZM 263.7 142.9L 323.2 137.7L 323.5 117.6L 264.9 122.7ZM 323.5 117.6L 245.7 108.3L 245.6 128.4L 323.2 137.7ZM 245.6 128.4L 320.3 119.9L 320.6 99.7L 245.7 108.3ZM 320.6 99.7L 211.3 84.1L 210.7 104.3L 320.3 119.9ZM 210.7 104.3L 309.4 96.5L 307.8 76.5L 211.3 84.1Z" fill-rule="nonzero"></path></g></g></g><g id="g-root-2.cu_sy_1hfprtgbp0c1w-fill" data-item-order="1999895034" transform="translate(63.61468505859375, 111.65380859375)"><g id="2.cu_sy_1hfprtgbp0c1w-fill" stroke="none" fill="#d1f4ff"><g><path d="M 144.2 263.5L 158.6 264.4L 159.8 244.5L 145.5 243.6ZM 86.6 257.9L 113.1 249.2L 111.8 228.6L 80.4 238.9ZM 111.8 228.6L 58.3 218.6L 60 239.3L 113.1 249.2ZM 60 239.3L 69.1 236L 72.1 213.7L 58.3 218.6ZM 72.1 213.7L 45 194.5L 38.4 214.3L 69.1 236ZM 38.4 214.3L 57.8 214.9L 64.6 195.1L 45 194.5ZM 64.6 195.1L 34.7 173.1L 26.7 192.1L 57.8 214.9ZM 26.7 192.1L 49.1 195.7L 55.9 176.5L 34.7 173.1ZM 55.9 176.5L 19.7 155.8L 15.4 176.4L 49.1 195.7ZM 15.4 176.4L 51 172.7L 54.6 152.2L 19.7 155.8ZM 54.6 152.2L 17.9 134.1L 15.1 155L 51 172.7ZM 15.1 155L 58.2 146.6L 59.5 126L 17.9 134.1ZM 59.5 126L 15.5 111.7L 14.5 132.4L 58.2 146.6ZM 14.5 132.4L 70.1 120.1L 70.3 99.5L 15.5 111.7ZM 70.3 99.5L 13.4 85.2L 12.6 105.6L 70.1 120.1ZM 12.6 105.6L 224.6 69.6L 222 49.7L 13.4 85.2ZM 222 49.7L 22.3 68.8L 24.9 88.7L 224.6 69.6ZM 24.9 88.7L 213.1 56.3L 210.8 36.4L 22.3 68.8ZM 210.8 36.4L 37.7 46L 40.3 65.8L 213.1 56.3ZM 40.3 65.8L 191.7 34.5L 190.2 14.4L 37.7 46ZM 190.2 14.4L 102.3 9.9L 105.6 30.1L 191.7 34.5ZM 105.6 30.1L 122.6 23.4L 115.3 4.8L 102.3 9.9ZM 185 234.1L 192.8 231.6L 208.9 215.6L 211.5 206.1L 218.6 206.3L 228.7 186.6L 212.8 186.2L 191.5 204.7L 190.7 213.4L 183 214.2ZM 228.7 186.6L 214.5 168L 206.3 190.3L 218.6 206.3ZM 206.3 190.3L 240 182.9L 242.3 162L 214.5 168ZM 242.3 162L 212.4 148.2L 211.1 169.6L 240 182.9ZM 211.1 169.6L 249.7 157.4L 249.5 136.5L 212.4 148.2ZM 249.5 136.5L 202.6 122.9L 201.6 143.4L 249.7 157.4ZM 201.6 143.4L 249.8 134.6L 249.8 114.2L 202.6 122.9ZM 249.8 114.2L 188.2 102.8L 187.7 123L 249.8 134.6ZM 187.7 123L 241.2 115.9L 241.3 95.7L 188.2 102.8ZM 241.3 95.7L 166.2 84.9L 166.1 105L 241.2 115.9ZM 166.1 105L 244.6 94.8L 242 74.9L 166.2 84.9Z" fill-rule="nonzero"></path></g></g></g><g id="g-root-1.cu_sy_18k2rkkbp0cul-fill" data-item-order="1999895038" transform="translate(105.61468505859375, 195.65380859375)"><g id="1.cu_sy_18k2rkkbp0cul-fill" stroke="none" fill="#c8ffe5"><g><path d="M 160.1 120.3L 171.3 102.9L 154.6 91.8L 143.3 109.5ZM 154.6 91.8L 111.7 153.5L 129.9 162.3L 171.3 102.9ZM 129.9 162.3L 162.5 54.7L 143.9 46.9L 111.7 153.5ZM 143.9 46.9L 85.3 154.9L 104 162.5L 162.5 54.7ZM 104 162.5L 141.2 32L 122.3 25.3L 85.3 154.9ZM 122.3 25.3L 65.7 157.6L 84.5 164.4L 141.2 32ZM 84.5 164.4L 126.4 24.4L 107.6 17.6L 65.7 157.6ZM 107.6 17.6L 49.8 153.5L 68.7 160L 126.4 24.4ZM 68.7 160L 107.5 12L 88.5 5.7L 49.8 153.5ZM 88.5 5.7L 32.7 143.4L 51.7 149.8L 107.5 12ZM 51.7 149.8L 86.7 17.5L 67.8 10.7L 32.7 143.4ZM 67.8 10.7L 15.5 124.7L 34.4 131.4L 86.7 17.5ZM 34.4 131.4L 61.3 27.3L 42.8 18.7L 15.5 124.7ZM 42.8 18.7L 8 68.6L 25.6 78.3L 61.3 27.3ZM 25.6 78.3L 29.9 68.2L 11.4 60.4L 8 68.6Z" fill-rule="nonzero"></path></g></g></g><g id="g-root-tx__qtf85wbp0c24-fill" data-item-order="2000000000" transform="translate(159.6146240234375, 63.65380859375)"><g id="tx__qtf85wbp0c24-fill" stroke="none" fill="#484848"><g><text style="font: bold 20px Roboto, sans-serif; white-space: pre;" font-weight="bold" font-size="20px" font-family="Roboto, sans-serif"><tspan x="14" y="33.5" dominant-baseline="ideographic">会社</tspan></text></g></g></g><g id="g-root-tx__zofrbobp0ef7-fill" data-item-order="2000000000" transform="translate(159.6146240234375, 147.65380859375)"><g id="tx__zofrbobp0ef7-fill" stroke="none" fill="#484848"><g><text style="font: bold 20px Roboto, sans-serif; white-space: pre;" font-weight="bold" font-size="20px" font-family="Roboto, sans-serif"><tspan x="14" y="33.5" dominant-baseline="ideographic">部門</tspan></text></g></g></g><g id="g-root-tx__zofrbobp0ef6-fill" data-item-order="2000000000" transform="translate(147.6146240234375, 261.65380859375)"><g id="tx__zofrbobp0ef6-fill" stroke="none" fill="#484848"><g><text style="font: bold 20px Roboto, sans-serif; white-space: pre;" font-weight="bold" font-size="20px" font-family="Roboto, sans-serif"><tspan x="16.4" y="33.5" dominant-baseline="ideographic">チーム</tspan></text></g></g></g><g id="g-root-3.cu_sy_1hfprtgbp0c1v-stroke" data-item-order="1999895030" transform="translate(21.614654541015625, 27.65380859375)"><g id="3.cu_sy_1hfprtgbp0c1v-stroke" fill="none" stroke-linecap="round" stroke-linejoin="round" stroke-miterlimit="4" stroke="#484848" stroke-width="4"><g><path d="M 172 334C 193.8 333.2 214.8 330.1 233.6 321.9C 253 313.3 270 301 285.8 287.3C 301 274.1 312.5 256.8 320 238C 328.1 217.5 332.3 195.4 334 172C 335.7 148.2 329.1 125.3 319.6 105C 311.1 87.1 300 70.8 286.1 57C 272.1 43.1 255.5 31.9 237.3 23.7C 217.4 14.7 195.2 11.6 172 10C 147.8 8.3 124.7 15.2 104.1 24.9C 87.3 32.7 71.6 42.8 59 56C 45.3 70.2 33 85.9 24.9 104.1C 15.6 124.9 10.8 147.8 10 172C 9.1 201.8 17.7 230 32.2 253.7C 46.2 276.7 65.9 295.3 88.1 310.4C 111.8 326.6 141.4 335.4 172 334C 151.4 333.4 132.5 327.7 115 319.5C 94 309.6 78.1 291.3 66.5 271.1C 56.9 254.4 52.1 234.7 52 214C 51.9 197.5 54.9 181.6 61.3 167.5C 67.5 154 75 141.1 85.4 130.9C 96.3 120.2 109.2 111.9 122.8 104.5C 137.2 96.7 154.5 93.1 172 94C 184.5 94.7 196.5 96.2 207.9 99.5C 220.7 103.1 232.3 109.8 243 117.3C 253.5 124.6 262.1 134.1 269.8 144.4C 277.5 154.8 284.5 166.4 286.9 179.4C 289 190.6 291.8 202 292 214C 292.2 230.2 288 245.3 283 259.8C 277.5 275.7 266.9 289.1 255 300.7C 244.4 311 231.2 317.8 218 324.9C 204.5 332.1 188.3 334.7 172 334M 172 334C 171.9 334 172.1 334 172 334"></path><path d="M 172 334C 261.4701 334 334 261.4701 334 172C 334 82.5299 261.4701 10 172 10C 82.5299 10 10 82.5299 10 172C 10 261.3368 82.7137 333.7843 172 334C 105.9097 333.7844 52 280.1408 52 214C 52 147.7258 105.7258 94 172 94C 238.2742 94 292 147.7258 292 214C 292 280.2742 238.2742 334 172 334ZM 172 334C 171.8666 334 172.1332 334.0007 172 334Z"></path></g></g></g><g id="g-root-2.cu_sy_1hfprtgbp0c1w-stroke" data-item-order="1999895034" transform="translate(63.61468505859375, 111.65380859375)"><g id="2.cu_sy_1hfprtgbp0c1w-stroke" fill="none" stroke-linecap="round" stroke-linejoin="round" stroke-miterlimit="4" stroke="#484848" stroke-width="4"><g><path d="M 130 250C 145.1 249.1 160.3 248.8 172.9 242.1C 187 234.6 202.7 229.1 212.7 217C 222.3 205.3 233.7 194.5 239.1 180.1C 244.9 164.4 249.9 147.9 250 130C 250.1 110 244.4 91.6 236.5 74.6C 227 54.3 210.4 38.1 191.1 26.7C 173.2 16.2 152.3 11.1 130 10C 111.9 9.1 95.4 15.4 79.4 21.2C 65.2 26.3 52.9 36 43.1 47.3C 34 57.6 27.4 69.5 20.2 81.4C 11.9 95.4 10.7 112.7 10 130C 8.8 160.8 20.8 189.8 40.9 210.2C 64 233.6 94.7 249.6 130 250C 107.6 248 88.4 239 72.9 225C 58.8 212.2 53 192.4 52 172C 51 150.3 60.9 130.6 75.3 116.4C 89.3 102.5 108.7 93.9 130 94C 152.7 94.2 173.1 103.7 187.3 119.1C 200.2 133 207 151.6 208 172C 209.1 192.7 199.2 210.8 186.8 225.5C 173.4 241.3 152.4 249.3 130 250M 130 250C 129.9 250 130.1 250 130 250"></path><path d="M 130 250C 196.2742 250 250 196.2742 250 130C 250 63.7258 196.2742 10 130 10C 63.7258 10 10 63.7258 10 130C 10 196.1408 63.9097 249.7844 130 250C 87.1057 249.7847 52 214.9449 52 172C 52 128.9218 86.9218 94 130 94C 173.0782 94 208 128.9218 208 172C 208 215.0782 173.0782 250 130 250ZM 130 250C 129.8666 250 130.1332 250.0007 130 250Z"></path></g></g></g><g id="g-root-1.cu_sy_18k2rkkbp0cul-stroke" data-item-order="1999895038" transform="translate(105.61468505859375, 195.65380859375)"><g id="1.cu_sy_18k2rkkbp0cul-stroke" fill="none" stroke-linecap="round" stroke-linejoin="round" stroke-miterlimit="4" stroke="#484848" stroke-width="4"><g><path d="M 166 88C 164.7 111.4 156.8 133.8 139.3 146.8C 124.7 157.6 107.5 164 88 166C 65.2 167.4 43.6 156.6 30.2 140.1C 18.4 125.7 9.3 108 10 88C 10.7 68.6 16.2 50.1 28.8 37.2C 44.1 21.5 64.4 8.1 88 10C 110.7 11.8 131 19.9 145.4 35.2C 158.4 49 165.7 67.7 166 88M 88 166C 87.9 166 88.1 166 88 166"></path><path d="M 166 88C 166 131.0782 131.0782 166 88 166C 45.1057 165.7847 10 130.9449 10 88C 10 44.9218 44.9218 10 88 10C 131.0782 10 166 44.9218 166 88ZM 88 166C 87.8666 166 88.1332 166.0007 88 166Z"></path></g></g></g><g id="g-root-tx__qtf85wbp0c24-stroke" data-item-order="2000000000" transform="translate(159.6146240234375, 63.65380859375)"></g><g id="g-root-tx__zofrbobp0ef7-stroke" data-item-order="2000000000" transform="translate(159.6146240234375, 147.65380859375)"></g><g id="g-root-tx__zofrbobp0ef6-stroke" data-item-order="2000000000" transform="translate(147.6146240234375, 261.65380859375)"></g></g></g></svg>