<?xml version="1.0" encoding="utf-8" standalone="yes"?>
<!DOCTYPE svg PUBLIC "-//W3C//DTD SVG 1.1//EN" "http://www.w3.org/Graphics/SVG/1.1/DTD/svg11.dtd">
<svg width="797" height="460" viewBox="0 0 797 460" style="fill:none;stroke:none;fill-rule:evenodd;clip-rule:evenodd;stroke-linecap:round;stroke-linejoin:round;stroke-miterlimit:1.5;" version="1.1" xmlns="http://www.w3.org/2000/svg" xmlns:xlink="http://www.w3.org/1999/xlink"><style id="fontImports">@import url("https://fonts.googleapis.com/css2?family=Roboto:wght@400;700&amp;display=block");</style><g id="items" style="isolation: isolate"><g id="blend" style="mix-blend-mode: normal"><g id="g-root-5.cu_sy_vbqt46faxxj5-fill" data-item-order="-215638" transform="translate(472.5400390625, 358.291015625)"><g id="5.cu_sy_vbqt46faxxj5-fill" stroke="none" fill="#f5e0ff"><g><path d="M 68 75.9L 84.1 64.4L 73.7 47.2L 56.4 59.6ZM 73.7 47.2L 34.2 67L 48.6 82.1L 84.1 64.4ZM 48.6 82.1L 77.6 30.9L 62.1 17.8L 34.2 67ZM 62.1 17.8L 14.4 57.2L 29.7 70.5L 77.6 30.9ZM 29.7 70.5L 61.8 18.8L 47.3 4.2L 14.4 57.2ZM 47.3 4.2L 8.8 27.7L 18.6 45.1L 61.8 18.8ZM 18.6 45.1L 30.1 39.3L 21 21.5L 8.8 27.7Z" fill-rule="nonzero"></path></g></g></g><g id="g-root-5.cu_1_sy_mgq9yefaxv62-fill" data-item-order="-215636" transform="translate(16, 46.2705078125)"><g id="5.cu_1_sy_mgq9yefaxv62-fill" stroke="none" fill="#f5e0ff"><g><path d="M 301.340039 28.320767L 298.840039 23.120767L 277.540039 24.620767L 283.140039 36.820767ZM 277.540039 24.620767L 268.640039 54.120767L 291.140039 48.720767L 298.840039 23.120767ZM 291.140039 48.720767L 257.440039 13.620767L 237.540039 21.820767L 268.640039 54.120767ZM 237.540039 21.820767L 237.940039 48.020767L 257.840039 41.220767L 257.440039 13.620767ZM 257.840039 41.220767L 233.040039 8.220767L 211.540039 12.820767L 237.940039 48.020767ZM 211.540039 12.820767L 203.340039 50.520767L 225.240039 44.120767L 233.040039 8.220767ZM 225.240039 44.120767L 194.340039 13.420767L 176.140039 23.620767L 203.340039 50.520767ZM 176.140039 23.620767L 182.740039 51.820767L 200.540039 40.320767L 194.340039 13.420767ZM 200.540039 40.320767L 171.940039 18.520767L 152.140039 28.620767L 182.740039 51.820767ZM 152.140039 28.620767L 152.740039 57.520767L 172.540039 48.720767L 171.940039 18.520767ZM 172.540039 48.720767L 148.440039 26.020767L 130.440039 36.520767L 152.740039 57.520767ZM 130.440039 36.520767L 139.640039 73.120767L 157.740039 63.020767L 148.440039 26.020767ZM 157.740039 63.020767L 121.440039 25.820767L 104.640039 37.320767L 139.640039 73.120767ZM 104.640039 37.320767L 131.940039 97.120767L 148.540039 85.420767L 121.440039 25.820767ZM 148.540039 85.420767L 96.840039 35.720767L 79.740039 47.120767L 131.940039 97.120767ZM 79.740039 47.120767L 98.340039 96.220767L 114.940039 83.520767L 96.840039 35.720767ZM 114.940039 83.520767L 91.540039 66.620767L 74.940039 79.320767L 98.340039 96.220767ZM 74.940039 79.320767L 87.740039 113.220767L 105.040039 102.320767L 91.540039 66.620767ZM 105.040039 102.320767L 78.340039 74.820767L 60.240039 84.920767L 87.740039 113.220767ZM 60.240039 84.920767L 72.140039 131.620767L 89.940039 120.820767L 78.340039 74.820767ZM 89.940039 120.820767L 64.240039 97.820767L 46.540039 108.820767L 72.140039 131.620767ZM 46.540039 108.820767L 58.640039 152.620767L 76.640039 142.620767L 64.240039 97.820767ZM 76.640039 142.620767L 54.840039 119.220767L 37.640039 130.020767L 58.640039 152.620767ZM 37.640039 130.020767L 55.640039 176.320767L 73.240039 166.520767L 54.840039 119.220767ZM 73.240039 166.520767L 51.040039 136.820767L 32.940039 146.020767L 55.640039 176.320767ZM 32.940039 146.020767L 51.340039 206.720767L 68.940039 195.820767L 51.040039 136.820767ZM 68.940039 195.820767L 35.340039 164.120767L 19.540039 176.820767L 51.340039 206.720767ZM 19.540039 176.820767L 50.640039 229.420767L 65.840039 215.720767L 35.340039 164.120767ZM 65.840039 215.720767L 32.740039 191.020767L 17.340039 204.520767L 50.640039 229.420767ZM 17.340039 204.520767L 55.040039 271.520767L 71.440039 259.920767L 32.740039 191.020767ZM 71.440039 259.920767L 37.840039 220.720767L 20.840039 231.720767L 55.040039 271.520767ZM 20.840039 231.720767L 63.640039 322.520767L 80.740039 311.920767L 37.840039 220.720767ZM 80.740039 311.920767L 46.540039 269.320767L 23.640039 272.720767L 63.640039 322.520767ZM 23.640039 272.720767L 14.240039 296.420767L 37.640039 291.720767L 46.540039 269.320767ZM 37.640039 291.720767L 23.540039 277.320767L 9.240039 291.320767L 14.240039 296.420767ZM 88.540039 279.320767L 72.940039 256.420767L 56.440039 267.720767L 72.040039 290.520767Z" fill-rule="nonzero"></path></g></g></g><g id="g-root-4.cu_sy_mgq9yefaxv63-fill" data-item-order="-215632" transform="translate(472.5400390625, 274.291015625)"><g id="4.cu_sy_mgq9yefaxv63-fill" stroke="none" fill="#ffd7ef"><g><path d="M 83.3 61.5L 83 57.3L 62.3 48.5L 63.4 63ZM 62.3 48.5L 30.3 75.4L 46.2 88.2L 83 57.3ZM 46.2 88.2L 75.8 31L 59.5 18.9L 30.3 75.4ZM 59.5 18.9L 18.3 59.4L 34.4 71.6L 75.8 31ZM 34.4 71.6L 59.3 26L 45.3 10L 18.3 59.4ZM 45.3 10L 13.3 22.5L 24.9 39.5L 59.3 26ZM 24.9 39.5L 30.7 33.1L 16 19.6L 13.3 22.5Z" fill-rule="nonzero"></path></g></g></g><g id="g-root-4.cu_1_sy_i0wrtyfaxvyc-fill" data-item-order="-215630" transform="translate(291.9775390625, 60.4658203125)"><g id="4.cu_1_sy_i0wrtyfaxvyc-fill" stroke="none" fill="#ffd7ef"><g><path d="M 35.8625 13.324707L 22.2625 9.424707L 15.9625 28.424707L 30.3625 32.624707ZM 15.9625 28.424707L 60.4625 45.424707L 63.4625 25.124707L 22.2625 9.424707ZM 63.4625 25.124707L 15.9625 28.424707L 14.0625 48.624707L 60.4625 45.424707ZM 14.0625 48.624707L 83.8625 66.924707L 86.7625 47.024707L 15.9625 28.424707ZM 86.7625 47.024707L 47.0625 45.624707L 43.0625 65.524707L 83.8625 66.924707ZM 43.0625 65.524707L 101.2625 87.724707L 103.1625 67.124707L 47.0625 45.624707ZM 103.1625 67.124707L 68.8625 73.324707L 67.6625 93.824707L 101.2625 87.724707ZM 67.6625 93.824707L 117.0625 109.124707L 117.8625 88.424707L 68.8625 73.324707ZM 117.8625 88.424707L 84.3625 96.024707L 83.4625 116.724707L 117.0625 109.124707ZM 83.4625 116.724707L 130.0625 131.724707L 132.8625 111.624707L 84.3625 96.024707ZM 132.8625 111.624707L 100.0625 112.724707L 94.3625 132.924707L 130.0625 131.724707ZM 94.3625 132.924707L 132.9625 158.424707L 139.0625 138.424707L 100.0625 112.724707ZM 139.0625 138.424707L 102.2625 138.224707L 98.7625 158.224707L 132.9625 158.424707ZM 98.7625 158.224707L 153.0625 177.524707L 155.7625 157.224707L 102.2625 138.224707ZM 155.7625 157.224707L 89.1625 162.124707L 86.8625 182.324707L 153.0625 177.524707ZM 86.8625 182.324707L 149.5625 201.624707L 152.9625 181.724707L 89.1625 162.124707ZM 152.9625 181.724707L 93.1625 179.324707L 87.9625 199.224707L 149.5625 201.624707ZM 87.9625 199.224707L 129.9625 220.624707L 133.5625 200.024707L 93.1625 179.324707ZM 133.5625 200.024707L 99.2625 204.224707L 92.7625 225.224707L 129.9625 220.624707ZM 92.7625 225.224707L 119.6625 248.924707L 127.7625 229.424707L 99.2625 204.224707ZM 127.7625 229.424707L 98.0625 227.424707L 89.8625 246.824707L 119.6625 248.924707ZM 89.8625 246.824707L 114.2625 268.724707L 121.2625 248.124707L 98.0625 227.424707ZM 121.2625 248.124707L 84.3625 250.624707L 78.2625 271.124707L 114.2625 268.724707ZM 78.2625 271.124707L 96.2625 284.524707L 100.8625 262.924707L 84.3625 250.624707ZM 100.8625 262.924707L 58.6625 272.624707L 55.8625 293.824707L 96.2625 284.524707ZM 55.8625 293.824707L 83.4625 308.524707L 88.1625 288.324707L 58.6625 272.624707ZM 88.1625 288.324707L 34.3625 290.224707L 21.3625 310.724707L 83.4625 308.524707ZM 21.3625 310.724707L 32.2625 336.624707L 44.5625 314.424707L 34.3625 290.224707ZM 44.5625 314.424707L 26.8625 317.224707L 30.0625 337.024707L 32.2625 336.624707Z" fill-rule="nonzero"></path></g></g></g><g id="g-root-3.cu_sy_i0wrtyfaxvyd-fill" data-item-order="-215626" transform="translate(472.5400390625, 190.291015625)"><g id="3.cu_sy_i0wrtyfaxvyd-fill" stroke="none" fill="#ffd9d8"><g><path d="M 74 74.2L 81.9 66.8L 70.4 50.1L 60.3 59.6ZM 70.4 50.1L 29.2 70.2L 43.6 85.4L 81.9 66.8ZM 43.6 85.4L 73.5 31.4L 57.4 19.4L 29.2 70.2ZM 57.4 19.4L 17.2 60.4L 33 72.9L 73.5 31.4ZM 33 72.9L 62.7 25.4L 48.4 10.5L 17.2 60.4ZM 48.4 10.5L 10.7 32.1L 26.2 46.3L 62.7 25.4ZM 26.2 46.3L 34.7 27.7L 16.5 19.4L 10.7 32.1Z" fill-rule="nonzero"></path></g></g></g><g id="g-root-3.cu_1_sy_i0wrtyfaxvye-fill" data-item-order="-215624" transform="translate(108.7177734375, 181.8935546875)"><g id="3.cu_1_sy_i0wrtyfaxvye-fill" stroke="none" fill="#ffd9d8"><g><path d="M 37.122273 9.597217L 27.222273 14.397217L 32.522273 33.997217L 45.822273 27.597217ZM 32.522273 33.997217L 58.022273 32.197217L 49.022273 12.797217L 27.222273 14.397217ZM 49.022273 12.797217L 9.022273 54.097217L 15.622273 75.997217L 58.022273 32.197217ZM 15.622273 75.997217L 50.222273 83.497217L 45.022273 61.897217L 9.022273 54.097217ZM 45.022273 61.897217L 10.122273 90.397217L 17.622273 110.097217L 50.222273 83.497217ZM 17.622273 110.097217L 50.722273 108.597217L 41.722273 88.997217L 10.122273 90.397217ZM 41.722273 88.997217L 16.522273 115.897217L 27.422273 133.497217L 50.722273 108.597217ZM 27.422273 133.497217L 56.722273 124.597217L 46.722273 106.697217L 16.522273 115.897217ZM 46.722273 106.697217L 22.222273 128.197217L 30.822273 147.297217L 56.722273 124.597217ZM 30.822273 147.297217L 76.722273 141.697217L 69.122273 122.497217L 22.222273 128.197217ZM 69.122273 122.497217L 19.722273 159.097217L 29.522273 176.797217L 76.722273 141.697217ZM 29.522273 176.797217L 90.022273 152.997217L 79.122273 135.797217L 19.722273 159.097217ZM 79.122273 135.797217L 34.322273 178.397217L 45.122273 195.697217L 90.022273 152.997217ZM 45.122273 195.697217L 94.122273 177.797217L 82.722273 160.697217L 34.322273 178.397217ZM 82.722273 160.697217L 59.722273 185.797217L 70.522273 203.697217L 94.122273 177.797217ZM 70.522273 203.697217L 121.422273 190.797217L 112.022273 172.597217L 59.722273 185.797217ZM 112.022273 172.597217L 82.322273 197.497217L 92.622273 214.997217L 121.422273 190.797217ZM 92.622273 214.997217L 143.822273 195.197217L 134.222273 177.497217L 82.322273 197.497217ZM 134.222273 177.497217L 100.022273 202.097217L 109.222273 220.197217L 143.822273 195.197217ZM 109.222273 220.197217L 173.922273 199.497217L 164.222273 181.597217L 100.022273 202.097217ZM 164.222273 181.597217L 129.822273 209.797217L 140.722273 226.697217L 173.922273 199.497217ZM 140.722273 226.697217L 209.822273 192.597217L 198.222273 176.097217L 129.822273 209.797217ZM 198.222273 176.097217L 160.622273 212.497217L 171.022273 230.297217L 209.822273 192.597217ZM 171.022273 230.297217L 217.222273 216.597217L 209.722273 197.997217L 160.622273 212.497217ZM 209.722273 197.997217L 199.222273 203.397217L 208.222273 221.197217L 217.222273 216.597217Z" fill-rule="nonzero"></path></g></g></g><g id="g-root-2.cu_sy_959rl2faxwr3-fill" data-item-order="-215620" transform="translate(472.5400390625, 106.291015625)"><g id="2.cu_sy_959rl2faxwr3-fill" stroke="none" fill="#ffe4cb"><g><path d="M 82.099969 71.7L 85.699969 62.1L 69.299969 48.5L 63.399969 64.8ZM 69.299969 48.5L 29.199969 72.3L 43.699969 87L 85.699969 62.1ZM 43.699969 87L 81.099969 26.7L 65.699969 13.6L 29.199969 72.3ZM 65.699969 13.6L 15.599969 58L 31.199969 70.9L 81.099969 26.7ZM 31.199969 70.9L 62.699969 18L 47.699969 4.1L 15.599969 58ZM 47.699969 4.1L 6.799969 32.5L 21.899969 46.3L 62.699969 18ZM 21.899969 46.3L 32.699969 27.2L 15.299969 17.4L 6.799969 32.5Z" fill-rule="nonzero"></path></g></g></g><g id="g-root-2.cu_1_sy_dl39pifaxwqo-fill" data-item-order="-215618" transform="translate(131.21194458007812, 112.291015625)"><g id="2.cu_1_sy_dl39pifaxwqo-fill" stroke="none" fill="#ffe4cb"><g><path d="M 219.428094 105.9L 216.328094 96.5L 193.228094 89.8L 200.328094 112ZM 193.228094 89.8L 175.728094 104.4L 195.328094 114.1L 216.328094 96.5ZM 195.328094 114.1L 197.628094 65.8L 178.028094 56.8L 175.728094 104.4ZM 178.028094 56.8L 159.328094 74.2L 179.028094 83.2L 197.628094 65.8ZM 179.028094 83.2L 180.528094 45.5L 160.728094 38.5L 159.328094 74.2ZM 160.728094 38.5L 135.128094 72.8L 154.328094 80.5L 180.528094 45.5ZM 154.328094 80.5L 162.028094 18.2L 142.628094 12.6L 135.128094 72.8ZM 142.628094 12.6L 114.528094 73.5L 133.728094 79.7L 162.028094 18.2ZM 133.728094 79.7L 146.428094 16.1L 127.428094 9.2L 114.528094 73.5ZM 127.428094 9.2L 99.528094 61L 118.628094 67.6L 146.428094 16.1ZM 118.628094 67.6L 125.228094 31.1L 106.428094 23L 99.528094 61ZM 106.428094 23L 77.228094 62.8L 97.128094 69.4L 125.228094 31.1ZM 97.128094 69.4L 97.428094 29.9L 77.428094 24.8L 77.228094 62.8ZM 77.428094 24.8L 53.928094 69L 73.428094 74.9L 97.428094 29.9ZM 73.428094 74.9L 77.128094 36.5L 57.628094 31.3L 53.928094 69ZM 57.628094 31.3L 32.328094 88.2L 51.928094 93.4L 77.128094 36.5ZM 51.928094 93.4L 56.528094 47.4L 37.128094 40.3L 32.328094 88.2ZM 37.128094 40.3L 10.528094 78.8L 32.128094 82.7L 56.528094 47.4ZM 32.128094 82.7L 28.428094 68.1L 9.128094 73L 10.528094 78.8Z" fill-rule="nonzero"></path></g></g></g><g id="g-root-1.cu_sy_dl39pifaxwqp-fill" data-item-order="-215614" transform="translate(472.5400390625, 22.291015625)"><g id="1.cu_sy_dl39pifaxwqp-fill" stroke="none" fill="#fff8b6"><g><path d="M 73.6 71L 76.7 67.8L 64.6 51.6L 59.3 57ZM 64.6 51.6L 26.7 71.4L 41.1 86.4L 76.7 67.8ZM 41.1 86.4L 74.1 28.9L 57.8 17.3L 26.7 71.4ZM 57.8 17.3L 13.7 68.1L 30.6 79.2L 74.1 28.9ZM 30.6 79.2L 60.6 17.8L 44.6 5L 13.7 68.1ZM 44.6 5L 11.5 31.6L 32.5 40.4L 60.6 17.8ZM 32.5 40.4L 30.9 24.9L 11 27L 11.5 31.6Z" fill-rule="nonzero"></path></g></g></g><g id="g-root-1.cu_1_sy_4pg9gmfaxxje-fill" data-item-order="-215612" transform="translate(184.29299926757812, 210.384765625)"><g id="1.cu_1_sy_4pg9gmfaxxje-fill" stroke="none" fill="#fff8b6"><g><path d="M 7.54704 68.806677L 8.44704 69.206677L 33.24704 57.906677L 15.34704 50.406677ZM 33.24704 57.906677L 39.34704 39.806677L 18.24704 39.606677L 8.44704 69.206677ZM 18.24704 39.606677L 38.04704 101.606677L 59.84704 104.506677L 39.34704 39.806677ZM 59.84704 104.506677L 76.64704 78.006677L 55.04704 74.706677L 38.04704 101.606677ZM 55.04704 74.706677L 64.34704 109.606677L 85.34704 110.806677L 76.64704 78.006677ZM 85.34704 110.806677L 100.14704 72.506677L 79.04704 71.606677L 64.34704 109.606677ZM 79.04704 71.606677L 92.64704 118.306677L 112.74704 115.806677L 100.14704 72.506677ZM 112.74704 115.806677L 114.94704 50.906677L 94.94704 52.906677L 92.64704 118.306677ZM 94.94704 52.906677L 110.54704 120.906677L 130.54704 119.006677L 114.94704 50.906677ZM 130.54704 119.006677L 132.74704 55.806677L 112.64704 58.406677L 110.54704 120.906677ZM 112.64704 58.406677L 127.54704 107.606677L 147.34704 104.006677L 132.74704 55.806677ZM 147.34704 104.006677L 141.44704 10.306677L 121.74704 15.006677L 127.54704 107.606677ZM 121.74704 15.006677L 144.14704 67.606677L 164.14704 63.406677L 141.44704 10.306677ZM 164.14704 63.406677L 163.84704 14.906677L 143.84704 18.106677L 144.14704 67.606677ZM 143.84704 18.106677L 146.24704 25.506677L 165.34704 19.506677L 163.84704 14.906677Z" fill-rule="nonzero"></path></g></g></g><g id="g-root-tx__9n1ifaz9qc-fill" data-item-order="0" transform="translate(556.5400390625, 370.291015625)"><g id="tx__9n1ifaz9qc-fill" stroke="none" fill="#484848"><g><text style="font: bold 20px Roboto, sans-serif; white-space: pre;" font-weight="bold" font-size="20px" font-family="Roboto, sans-serif"><tspan x="12" y="33.5" dominant-baseline="ideographic">より大きな課題を任せ</tspan><tspan x="12" y="57.5" dominant-baseline="ideographic">られる</tspan></text></g></g></g><g id="g-root-idea_dkgsmefb23gr-fill" data-item-order="0" transform="translate(232.5400390625, 124.291015625)"></g><g id="g-root-48px_zlbqp2fb3j7t-fill" data-item-order="0" transform="translate(484.5400390625, 118.291015625)"></g><g id="g-root-tx__1q5qorqfazabz-fill" data-item-order="0" transform="translate(556.5400390625, 130.291015625)"><g id="tx__1q5qorqfazabz-fill" stroke="none" fill="#484848"><g><text style="font: bold 20px Roboto, sans-serif; white-space: pre;" font-weight="bold" font-size="20px" font-family="Roboto, sans-serif"><tspan x="12" y="33.5" dominant-baseline="ideographic">課題を解決する</tspan></text></g></g></g><g id="g-root-1_1lvjjl2fatpfp-fill" data-item-order="0" transform="translate(100.5400390625, 76.291015625)"></g><g id="g-root-tx__1ulk6w6fazabk-fill" data-item-order="0" transform="translate(556.5400390625, 46.291015625)"><g id="tx__1ulk6w6fazabk-fill" stroke="none" fill="#484848"><g><text style="font: bold 20px Roboto, sans-serif; white-space: pre;" font-weight="bold" font-size="20px" font-family="Roboto, sans-serif"><tspan x="12" y="33.5" dominant-baseline="ideographic">計画する</tspan></text></g></g></g><g id="g-root-hand_dj7xlyfaph51-fill" data-item-order="0" transform="translate(376.5400390625, 202.291015625)"></g><g id="g-root-48px_1ut2292faxwcn-fill" data-item-order="0" transform="translate(484.5400390625, 202.291015625)"></g><g id="g-root-tx__1q5qorqfazaby-fill" data-item-order="0" transform="translate(556.5400390625, 214.291015625)"><g id="tx__1q5qorqfazaby-fill" stroke="none" fill="#484848"><g><text style="font: bold 20px Roboto, sans-serif; white-space: pre;" font-weight="bold" font-size="20px" font-family="Roboto, sans-serif"><tspan x="12" y="33.5" dominant-baseline="ideographic">成果や反省を共有する</tspan></text></g></g></g><g id="g-root-cros_1lpx6nafazb49-fill" data-item-order="0" transform="translate(262.5400390625, 262.291015625)"></g><g id="g-root-48px_v6pvc6fkmade-fill" data-item-order="0" transform="translate(484.5400390625, 34.291015625)"></g><g id="g-root-48px_hvx5gmfaqvpf-fill" data-item-order="0" transform="translate(484.5400390625, 286.291015625)"></g><g id="g-root-book_1cxejtyfb4vm1-fill" data-item-order="0" transform="translate(130.5400390625, 304.291015625)"></g><g id="g-root-tx__9n1ifaz9qd-fill" data-item-order="0" transform="translate(556.5400390625, 298.291015625)"><g id="tx__9n1ifaz9qd-fill" stroke="none" fill="#484848"><g><text style="font: bold 20px Roboto, sans-serif; white-space: pre;" font-weight="bold" font-size="20px" font-family="Roboto, sans-serif"><tspan x="12" y="33.5" dominant-baseline="ideographic">信頼を得る</tspan></text></g></g></g><g id="g-root-48px_4il4o6fb23uo-fill" data-item-order="0" transform="translate(484.5400390625, 370.291015625)"></g><g id="g-root-5.cu_sy_vbqt46faxxj5-stroke" data-item-order="-215638" transform="translate(472.5400390625, 358.291015625)"><g id="5.cu_sy_vbqt46faxxj5-stroke" fill="none" stroke-linecap="round" stroke-linejoin="round" stroke-miterlimit="4" stroke="#484848" stroke-width="4"><g><path d="M 82 46C 80.1 65.8 65.8 80.3 46 82C 26.2 83.7 10 65.9 10 46C 10 26.1 26.1 8.9 46 10C 65.8 11.1 80.1 26.2 82 46"></path><path d="M 82 46C 82 65.8823 65.8823 82 46 82C 26.1177 82 10 65.8823 10 46C 10 26.1177 26.1177 10 46 10C 65.8823 10 82 26.1177 82 46Z"></path></g></g></g><g id="g-root-5.cu_1_sy_mgq9yefaxv62-stroke" data-item-order="-215636" transform="translate(16, 46.2705078125)"><g id="5.cu_1_sy_mgq9yefaxv62-stroke" fill="none" stroke-linecap="round" stroke-linejoin="round" stroke-miterlimit="4" stroke="#484848" stroke-width="4"><g><path d="M 30.940039 276.420767C 24.340039 250.520767 21.340039 223.620767 24.440039 197.220767C 27.440039 172.220767 32.040039 146.820767 44.240039 125.020767C 50.340039 114.020767 56.840039 103.820767 62.740039 93.420767C 68.040039 84.120767 76.840039 77.520767 83.040039 69.220767C 82.840039 67.220767 82.140039 65.120767 82.540039 63.020767C 86.240039 43.520767 98.640039 26.820767 118.540039 27.020767C 124.640039 27.120767 130.040039 29.320767 135.440039 31.220767C 148.940039 24.220767 163.140039 18.820767 177.840039 15.720767C 190.340039 13.120767 202.940039 11.120767 215.640039 10.220767C 229.640039 9.320767 244.040039 8.920767 257.640039 12.620767C 271.340039 16.320767 285.440039 18.820767 298.740039 24.220767C 293.040039 34.820767 289.140039 46.420767 285.940039 58.120767C 270.640039 52.520767 254.840039 48.920767 238.840039 46.620767C 225.340039 44.620767 211.540039 46.820767 197.940039 48.320767C 182.840039 49.920767 167.640039 54.020767 154.540039 61.920767C 154.640039 62.320767 154.440039 62.620767 154.540039 63.020767C 158.340039 82.520767 138.440039 99.020767 118.540039 99.020767C 114.240039 99.020767 109.840039 98.920767 106.340039 96.920767C 95.940039 110.320767 84.640039 123.720767 76.740039 140.420767C 67.840039 159.520767 63.740039 180.320767 60.240039 201.120767C 56.940039 220.820767 59.740039 241.120767 64.040039 260.420767C 69.940039 256.720767 76.740039 254.820767 82.840039 251.420767C 82.640039 264.420767 80.940039 277.220767 79.940039 290.120767C 78.740039 304.120767 77.640039 318.020767 76.740039 332.020767C 53.740039 318.020767 31.940039 302.120767 10.040039 286.420767C 16.940039 282.920767 23.740039 279.320767 30.940039 276.420767"></path><path d="M 30.928 276.389015C 17.459 226.401915 22.1494 171.584715 44.2256 125.010315C 54.4385 103.463815 67.6803 84.847815 83.0761 69.244715C 82.7237 67.222915 82.54 65.143315 82.54 63.020815C 82.54 43.138515 98.6578 27.020815 118.54 27.020815C 124.6614 27.020815 130.4259 28.548615 135.473 31.243615C 186.3658 5.801815 246.5049 2.912715 298.6908 24.196015L 285.978 58.096715C 244.2518 40.724015 195.935 42.242515 154.5232 61.909515C 154.5344 62.278515 154.5401 62.649015 154.5401 63.020815C 154.5401 82.903015 138.4223 99.020815 118.54 99.020815C 114.2658 99.020815 110.1656 98.275915 106.3621 96.908815C 94.7319 109.221115 84.6676 123.738815 76.7562 140.429715C 59.2153 177.435915 54.9298 220.666815 64.058 260.455015L 82.8421 251.420715L 76.7611 332.020715L 10 286.454415L 30.928 276.389015Z"></path></g></g></g><g id="g-root-4.cu_sy_mgq9yefaxv63-stroke" data-item-order="-215632" transform="translate(472.5400390625, 274.291015625)"><g id="4.cu_sy_mgq9yefaxv63-stroke" fill="none" stroke-linecap="round" stroke-linejoin="round" stroke-miterlimit="4" stroke="#484848" stroke-width="4"><g><path d="M 82 46C 81.8 65.9 65.9 82.4 46 82C 26.1 81.6 11.3 65.8 10 46C 8.7 26.2 26.2 11.8 46 10C 65.8 8.2 83.7 26.2 82 46"></path><path d="M 82 46C 82 65.8823 65.8823 82 46 82C 26.1177 82 10 65.8823 10 46C 10 26.1177 26.1177 10 46 10C 65.8823 10 82 26.1177 82 46Z"></path></g></g></g><g id="g-root-4.cu_1_sy_i0wrtyfaxvyc-stroke" data-item-order="-215630" transform="translate(291.9775390625, 60.4658203125)"><g id="4.cu_1_sy_i0wrtyfaxvyc-stroke" fill="none" stroke-linecap="round" stroke-linejoin="round" stroke-miterlimit="4" stroke="#484848" stroke-width="4"><g><path d="M 9.9625 43.924707C 37.3625 54.324707 61.8625 74.124707 79.1625 101.724707C 88.1625 116.124707 94.6625 130.924707 98.4625 146.024707C 88.0625 151.124707 83.6625 163.424707 82.5625 175.824707C 81.3625 188.624707 89.3625 199.824707 99.3625 206.324707C 95.8625 219.824707 90.3625 232.524707 84.5625 245.024707C 78.6625 257.424707 68.2625 266.924707 58.5625 276.724707C 48.5625 286.824707 34.8625 292.224707 21.4625 298.824707C 26.1625 310.024707 29.7625 321.624707 33.6625 333.024707C 63.5625 321.424707 87.6625 302.324707 105.8625 278.524707C 121.4625 258.024707 130.4625 233.224707 135.4625 207.624707C 147.2625 202.324707 154.6625 189.624707 154.5625 175.824707C 154.4625 161.724707 145.4625 151.024707 134.5625 143.524707C 131.4625 122.124707 120.4625 102.424707 109.3625 82.124707C 102.3625 69.424707 92.5625 59.224707 82.8625 49.624707C 73.7625 40.624707 62.7625 34.124707 53.3625 26.024707C 44.5625 18.324707 32.8625 15.324707 22.7625 10.024707C 18.3625 21.224707 15.3625 33.124707 9.9625 43.924707"></path><path d="M 10 43.9007C 37.0677 55.1703 61.3619 74.3896 79.1987 101.7614C 88.4313 115.9295 94.7554 130.8777 98.4177 145.9843C 88.8511 152.4552 82.5625 163.4056 82.5625 175.8247C 82.5625 188.644 89.263 199.8984 99.3527 206.2766C 90.6063 247.5948 62.7013 283.34 21.4597 298.8506L 33.6691 333.0367C 89.7864 312.5645 125.9714 263.2098 135.4751 207.6127C 146.8324 201.5575 154.5625 189.5939 154.5625 175.8247C 154.5625 161.6811 146.4062 149.4425 134.5406 143.5559C 130.2819 122.3771 122.0032 101.5089 109.3599 82.1069C 86.9125 47.6598 56.4773 23.7704 22.7128 10L 10 43.9007Z"></path></g></g></g><g id="g-root-3.cu_sy_i0wrtyfaxvyd-stroke" data-item-order="-215626" transform="translate(472.5400390625, 190.291015625)"><g id="3.cu_sy_i0wrtyfaxvyd-stroke" fill="none" stroke-linecap="round" stroke-linejoin="round" stroke-miterlimit="4" stroke="#484848" stroke-width="4"><g><path d="M 82 46C 81.5 65.9 65.8 83.5 46 82C 26.2 80.5 9.2 65.9 10 46C 10.8 26.1 26.1 9.3 46 10C 65.9 10.7 82 26.1 82 46"></path><path d="M 82 46C 82 65.8823 65.8823 82 46 82C 26.1177 82 10 65.8823 10 46C 10 26.1177 26.1177 10 46 10C 65.8823 10 82 26.1177 82 46Z"></path></g></g></g><g id="g-root-3.cu_1_sy_i0wrtyfaxvye-stroke" data-item-order="-215624" transform="translate(108.7177734375, 181.8935546875)"><g id="3.cu_1_sy_i0wrtyfaxvye-stroke" fill="none" stroke-linecap="round" stroke-linejoin="round" stroke-miterlimit="4" stroke="#484848" stroke-width="4"><g><path d="M 65.522273 192.097217C 76.522273 202.497217 91.022273 209.497217 106.022273 213.597217C 122.622273 218.197217 139.922273 222.797217 158.322273 221.697217C 179.722273 220.997217 199.322273 217.997217 216.922273 211.597217C 214.522273 199.797217 209.822273 188.397217 204.722273 177.397217C 191.022273 183.697217 175.022273 185.097217 158.122273 185.697217C 158.022273 185.697217 157.922273 185.697217 157.822273 185.697217C 157.722273 185.697217 157.722273 185.697217 157.622273 185.697217C 132.822273 179.697217 109.022273 178.997217 90.722273 166.097217C 92.022273 163.597217 91.422273 160.397217 91.822273 157.397217C 94.522273 137.697217 75.722273 121.697217 55.822273 121.397217C 55.222273 121.397217 54.722273 121.497217 54.122273 121.397217C 48.022273 108.397217 45.422273 93.797217 46.422273 79.097217C 47.222273 66.597217 50.722273 54.097217 55.922273 41.397217C 57.822273 36.797217 60.922273 32.997217 63.322273 28.797217C 52.422273 23.697217 43.622273 14.697217 32.522273 9.997217C 29.522273 15.297217 27.122273 20.997217 23.422273 25.897217C 10.722273 42.797217 11.622273 64.397217 10.022273 82.997217C 8.222273 103.597217 13.222273 124.397217 23.522273 141.497217C 21.222273 146.297217 20.522273 151.697217 19.822273 157.397217C 17.422273 177.097217 35.922273 192.997217 55.822273 193.397217C 59.222273 193.497217 62.322273 192.097217 65.522273 192.097217"></path><path d="M 65.559607 192.0649C 90.966907 211.2422 123.230407 222.5704 158.340407 221.6501C 179.698207 221.6225 199.297607 218.0415 216.929407 211.6092L 204.720007 177.423C 190.652007 182.7139 175.032107 185.6503 158.091507 185.6503L 157.840707 185.6503L 157.590007 185.6573C 132.073007 186.3685 109.105507 178.8972 90.753007 166.1412C 91.451507 163.3419 91.822307 160.4128 91.822307 157.3972C 91.822307 137.515 75.704507 121.3972 55.822307 121.3972C 55.251307 121.3972 54.683407 121.4105 54.118907 121.4368C 43.713607 97.0247 43.047207 68.5421 55.944907 41.3555C 58.063007 36.8909 60.530907 32.6833 63.296907 28.7495L 32.494207 10C 29.121607 15.004 26.080107 20.3169 23.419607 25.925C 4.311607 66.2018 6.753207 107.3637 23.520807 141.4851C 21.152807 146.283 19.822307 151.6847 19.822307 157.3972C 19.822307 177.2795 35.940007 193.3972 55.822307 193.3972C 59.196607 193.3972 62.462507 192.933 65.559607 192.0649Z"></path></g></g></g><g id="g-root-2.cu_sy_959rl2faxwr3-stroke" data-item-order="-215620" transform="translate(472.5400390625, 106.291015625)"><g id="2.cu_sy_959rl2faxwr3-stroke" fill="none" stroke-linecap="round" stroke-linejoin="round" stroke-miterlimit="4" stroke="#484848" stroke-width="4"><g><path d="M 81.999969 46C 82.099969 65.9 65.799969 83.4 45.999969 82C 26.199969 80.6 8.599969 65.8 9.999969 46C 11.399969 26.2 26.099969 10.7 45.999969 10C 65.899969 9.3 82.899969 26.1 81.999969 46"></path><path d="M 82 46C 82 65.8823 65.8823 82 46 82C 26.1177 82 10 65.8823 10 46C 10 26.1177 26.1177 10 46 10C 65.8823 10 82 26.1177 82 46Z"></path></g></g></g><g id="g-root-2.cu_1_sy_dl39pifaxwqo-stroke" data-item-order="-215618" transform="translate(131.21194458007812, 112.291015625)"><g id="2.cu_1_sy_dl39pifaxwqo-stroke" fill="none" stroke-linecap="round" stroke-linejoin="round" stroke-miterlimit="4" stroke="#484848" stroke-width="4"><g><path d="M 171.028094 41.7C 182.428094 50.3 194.228094 59.8 202.728094 73.6C 209.328094 84.4 214.028094 96 216.228094 108.1C 204.428094 110.1 192.228094 110.4 180.628094 113.5C 179.028094 106.4 176.128094 99.7 172.528094 93.2C 168.428094 85.7 162.728094 79.4 156.228094 75.3C 151.528094 80.8 143.128094 81.9 135.328094 82C 120.928094 82.2 109.928094 72.7 102.728094 61.3C 102.128094 61.4 101.528094 61.4 100.928094 61.5C 78.128094 67.5 54.828094 77.6 40.828094 98.4C 31.128094 91.3 20.128094 86.1 10.028094 79.6C 20.328094 66.6 30.328094 53.1 44.328094 45.6C 60.928094 36.7 77.928094 29.2 95.828094 25.9C 99.228094 25.2 102.728094 25.3 106.228094 24.9C 111.428094 15 123.328094 10.8 135.328094 10C 153.728094 8.8 167.028094 24.2 171.028094 41.7"></path><path d="M 171.0696 41.6631C 183.0501 49.4425 193.8597 60.0099 202.7119 73.5974L 202.7184 73.6074C 209.6186 84.2141 214.0903 96.0025 216.2334 108.0936L 180.6126 113.4584C 179.2287 106.3132 176.5488 99.3995 172.5457 93.2444C 167.8349 86.0145 162.3284 80.0555 156.2479 75.3013C 150.3519 79.5183 143.1298 82 135.3281 82C 120.9069 82 108.4662 73.5204 102.7201 61.2752C 102.1114 61.3487 101.5027 61.4289 100.8939 61.5158C 77.639 64.8361 55.1885 77.8927 40.8027 98.3523L 10 79.6029C 30.2564 49.5478 62.4567 30.6387 95.8055 25.8772C 99.25 25.3855 102.7147 25.0444 106.1871 24.8579C 112.7309 15.854 123.3459 10 135.3281 10C 153.7426 10 168.9278 23.8258 171.0696 41.6631Z"></path></g></g></g><g id="g-root-1.cu_sy_dl39pifaxwqp-stroke" data-item-order="-215614" transform="translate(472.5400390625, 22.291015625)"><g id="1.cu_sy_dl39pifaxwqp-stroke" fill="none" stroke-linecap="round" stroke-linejoin="round" stroke-miterlimit="4" stroke="#484848" stroke-width="4"><g><path d="M 82 46C 81.1 65.9 65.8 83.9 46 82C 26.2 80.1 10.5 65.9 10 46C 9.5 26.1 26.1 9.1 46 10C 65.9 10.9 82.6 26.1 82 46"></path><path d="M 82 46C 82 65.8823 65.8823 82 46 82C 26.1177 82 10 65.8823 10 46C 10 26.1177 26.1177 10 46 10C 65.8823 10 82 26.1177 82 46Z"></path></g></g></g><g id="g-root-1.cu_1_sy_4pg9gmfaxxje-stroke" data-item-order="-215612" transform="translate(184.29299926757812, 210.384765625)"><g id="1.cu_1_sy_4pg9gmfaxxje-stroke" fill="none" stroke-linecap="round" stroke-linejoin="round" stroke-miterlimit="4" stroke="#484848" stroke-width="4"><g><path d="M 147.74704 80.806677C 152.24704 75.506677 155.34704 69.106677 157.74704 62.606677C 163.94704 46.106677 167.84704 27.506677 163.14704 10.006677C 151.24704 11.706677 139.34704 13.506677 127.54704 15.406677C 130.64704 26.506677 126.94704 38.106677 124.44704 49.006677C 124.14704 50.306677 123.34704 51.306677 122.84704 52.506677C 119.44704 51.606677 115.94704 50.406677 112.24704 50.906677C 95.64704 52.906677 82.74704 62.806677 77.34704 77.906677C 65.24704 78.806677 56.24704 70.806677 49.44704 61.206677C 47.54704 58.506677 45.94704 55.306677 45.04704 51.706677C 42.64704 42.106677 31.94704 38.106677 22.24704 40.406677C 12.64704 42.606677 8.24704 53.606677 10.94704 63.206677C 12.04704 67.206677 13.54704 71.206677 15.74704 74.606677C 22.84704 85.606677 29.34704 97.206677 40.44704 102.406677C 53.34704 108.506677 66.94704 112.806677 82.94704 113.906677C 84.74704 114.106677 86.44704 113.706677 88.14704 113.606677C 94.64704 119.306677 102.94704 123.206677 112.24704 122.906677C 132.14704 122.306677 147.94704 106.806677 148.24704 86.906677C 148.24704 84.806677 147.74704 82.806677 147.74704 80.806677"></path><path d="M 147.72487 80.7629C 151.80727 75.1392 155.17097 69.0218 157.78427 62.59C 164.41307 46.2757 166.30867 27.8095 163.15197 10L 127.53127 15.3648C 129.72837 26.7086 128.65897 38.636 124.43237 49.0384C 123.95387 50.2158 123.43667 51.3715 122.88017 52.5028C 119.51947 51.4653 115.94847 50.9067 112.24707 50.9067C 95.48927 50.9067 81.40587 62.3566 77.39327 77.86C 65.26327 76.9974 55.60487 71.1896 49.43267 61.1709C 47.69587 58.3516 46.23507 55.199 45.07297 51.7292C 41.91577 42.3028 31.71477 37.2205 22.28827 40.3777C 12.86187 43.5349 7.77957 53.7359 10.93677 63.1624C 12.28417 67.1855 13.89517 71.0187 15.75077 74.6436C 28.56797 99.6822 53.05627 114.7868 82.98267 113.9385C 84.73117 113.8889 86.45427 113.7937 88.15167 113.6543C 94.53207 119.4057 102.98067 122.9067 112.24707 122.9067C 132.12927 122.9067 148.24707 106.7889 148.24707 86.9067C 148.24707 84.8121 148.06817 82.7594 147.72487 80.7629Z"></path></g></g></g><g id="g-root-tx__9n1ifaz9qc-stroke" data-item-order="0" transform="translate(556.5400390625, 370.291015625)"></g><g id="g-root-idea_dkgsmefb23gr-stroke" data-item-order="0" transform="translate(232.5400390625, 124.291015625)"><g id="idea_dkgsmefb23gr-stroke" fill="none" stroke-linecap="round" stroke-linejoin="round" stroke-miterlimit="4" stroke="#484848" stroke-width="2"><g><path d="M 57 35C 57.799999 42 55.200001 49.200001 57 56C 57.200001 56.599998 56.599998 57 56 57C 41.400002 54.799999 26.6 58.400002 12 57C 11.4 57 10.8 56.599998 11 56C 13 44.799999 9.6 33.200001 11 22C 11 21.4 11.4 21 12 21C 16 20.4 20 21.4 24 21M 27 57C 27.6 55.400002 26.4 53.599998 27 52C 27.200001 51.400002 26.6 51 26 51C 23.4 51 20.6 51 18 51C 17.4 51 16.799999 51.400002 17 52C 17.4 53.599998 16.4 55.400002 17 57M 11 33C 14 32.200001 17 33.200001 20 33C 20.6 33 21.200001 32.599998 21 32C 20.200001 30.200001 20.799999 28 21 26M 57 43C 54.599998 44 51.599998 42.200001 49 43M 20 45C 17 44.599998 14 44.400002 11 45M 57 49C 54.799999 49.799999 52.400002 49 50 49C 49.400002 49 49.200001 49.400002 49 50C 48.400002 52.200001 49.400002 54.799999 49 57M 35 44C 34.599998 42.799999 35.200001 41.200001 35 40C 34.799999 39.400002 34.599998 39 34 39C 26.4 38.799999 18.4 37 11 39M 35 57C 35 55 34.599998 53 35 51M 49 33C 47 32.799999 45 33.400002 43 33M 52 22C 50.799999 19 49.200001 15.2 46 16C 42.799999 16.799999 39.400002 18.799999 40 22C 40.599998 24 41.200001 26.200001 43 27C 43 27.6 42.799999 28.4 43 29C 45 29.200001 47 28.799999 49 29C 49 28.4 48.799999 27.6 49 27C 51 26.200001 52.200001 24 52 22M 46 11C 45.799999 11.6 45.799999 12.4 46 13M 53.799999 14.2C 53.200001 14.6 52.599998 15 52.400002 15.6M 57 21C 56.400002 21.200001 55.599998 21 55 21M 38.200001 14.2C 38.799999 14.6 39.200001 15.2 39.599998 15.6M 35 21C 35.599998 20.799999 36.400002 21 37 21M 43 37C 44.799999 36.400002 47 36.599998 49 37"></path><path d="M 57 35L 57 56C 57 56.552284 56.552284 57 56 57L 12 57C 11.447716 57 11 56.552284 11 56L 11 22C 11 21.447716 11.447716 21 12 21L 24 21M 27 57L 27 52C 27 51.447716 26.552284 51 26 51L 18 51C 17.447716 51 17 51.447716 17 52L 17 57M 11 33L 20 33C 20.552284 33 21 32.552284 21 32L 21 26M 57 43L 49 42.998001M 20 44.998001L 11 44.998001M 57 49L 50 49C 49.447716 49 49 49.447716 49 50L 49 57M 35 44L 35 40C 35 39.447716 34.552284 39 34 39L 11 39M 35 56.998001L 35 50.998001M 49 32.998001L 43 32.998001M 52 22C 52 18.686291 49.313709 16 46 16C 42.686291 16 40 18.686291 40 22C 40.045399 24.079926 41.186134 25.981152 43 27L 43 29L 49 29L 49 27C 50.813282 25.980555 51.9538 24.079695 52 22ZM 46 10.998L 46 12.998M 53.778 14.219999L 52.363998 15.636M 57 21L 55 21M 38.222 14.219999L 39.636002 15.636M 35 20.998001L 37 21M 43 36.998001L 49 36.998001"></path></g></g></g><g id="g-root-48px_zlbqp2fb3j7t-stroke" data-item-order="0" transform="translate(484.5400390625, 118.291015625)"><g id="48px_zlbqp2fb3j7t-stroke" fill="none" stroke-linecap="round" stroke-linejoin="round" stroke-miterlimit="4" stroke="#484848" stroke-width="2"><g><path d="M 15.1 30.2C 16.4 24.6 17.8 19.9 23 19.7C 28.2 19.5 30.8 24.5 30.9 30.2C 31 32.5 31.4 35 30.9 37.3C 29.9 42.9 28.1 48.2 23 47.9C 17.9 47.6 13.9 42.8 15.1 37.3C 15.5 35 15 32.5 15.1 30.2M 36.8 27.5C 35.3 23.2 40.1 19.1 44.4 19.7C 51.6 20.7 55.1 27.6 49.4 33.1C 45.8 38.2 42.5 43.9 37.3 47.4C 42.8 46.4 48.5 48.5 54 47.4"></path><path d="M 15.07227 30.1785C 15.07227 24.4817 17.78873 19.69524 23.0107 19.69524C 28.2328 19.69524 30.9492 24.4817 30.9492 30.1785L 30.9492 37.2727C 30.9492 42.9695 28.1054 47.8816 23.0107 47.8816C 17.91609 47.8816 15.07227 42.9695 15.07227 37.2727L 15.07227 30.1785ZM 36.8315 27.5154C 36.8315 22.8951 40.0559 19.69531 44.4376 19.69531C 51.7066 19.69531 54.1859 26.7886 49.4213 33.0984L 37.33 47.4175L 53.9507 47.4175"></path></g></g></g><g id="g-root-tx__1q5qorqfazabz-stroke" data-item-order="0" transform="translate(556.5400390625, 130.291015625)"></g><g id="g-root-1_1lvjjl2fatpfp-stroke" data-item-order="0" transform="translate(100.5400390625, 76.291015625)"><g id="1_1lvjjl2fatpfp-stroke" fill="none" stroke-linecap="round" stroke-linejoin="round" stroke-miterlimit="4" stroke="#484848" stroke-width="2"><g><path d="M 18.6 57C 24.6 48.200001 30.6 39.400002 35.599998 30C 35.799999 29.200001 36.799999 29.200001 37.400002 29C 38.200001 28.799999 38.799999 29.6 39.400002 30C 46 38.400002 51.400002 47.599998 56.599998 57C 43.799999 58 30.6 60.599998 18.6 57M 18.6 57C 16.200001 57.599998 13.6 57.799999 11.6 57C 13.2 53 15 48.599998 18.6 46C 19 45.400002 19.799999 45 20.4 45C 21.200001 45.200001 22.200001 45.400002 22.4 46C 22.6 47 23.200001 47.799999 23.799999 48.599998M 27.4 42.799999C 28.4 44.599998 30.200001 46 32 46.799999C 33 47.200001 34.200001 47.599998 34.799999 46.599998C 35.200001 46.200001 35.599998 45.799999 36 45.400002C 37 44.599998 38 44.799999 39 45.400002C 39.400002 45.799999 39.799999 46.200001 40.200001 46.599998C 41 47.400002 42.200001 47.599998 43 46.799999C 44.400002 45.400002 46 44.200001 47.599998 42.799999M 37.599998 29C 38.400002 23 38.200001 17 37.599998 11M 37.599998 11C 41.200001 11.6 44.799999 11.2 48.599998 11C 49 11 49.599998 11.4 49.599998 12C 49.400002 14.6 49.799999 17.4 49.599998 20C 49.400002 20.6 49 21.200001 48.599998 21C 45 20 41.200001 21.200001 37.599998 21M 49.599998 15C 51 14.4 52.799999 15 54.599998 15C 55 15 55.400002 15.4 55.599998 16C 56 18.6 56 21.4 55.599998 24C 55.400002 24.6 55 24.799999 54.599998 25C 52.599998 25.6 50.400002 25.6 48.599998 25C 48 24.799999 47.400002 24.6 47.599998 24C 47.799999 23 47.799999 22 47.599998 21"></path><path d="M 18.5 57L 35.5 30C 35.976421 29.377148 36.715828 29.01181 37.5 29.01181C 38.284172 29.01181 39.023575 29.377148 39.5 30L 56.5 57ZM 18.5 57L 11.5 57L 18.5 46C 18.989294 45.391399 19.719543 45.026276 20.5 45C 21.280457 45.026276 22.010706 45.391399 22.5 46L 23.799999 48.599998M 27.41 42.848L 32.096001 46.812C 32.890411 47.483448 34.066879 47.433884 34.802002 46.698002L 36.085999 45.414001C 36.867001 44.633236 38.132999 44.633236 38.914001 45.414001L 40.197998 46.698002C 40.933121 47.433884 42.109592 47.483448 42.903999 46.812L 47.599998 42.848M 37.5 29L 37.5 11M 37.5 11L 48.5 11C 49.052284 11 49.5 11.447716 49.5 12L 49.5 20C 49.5 20.552284 49.052284 21 48.5 21L 37.5 21M 49.5 15L 54.5 15C 55.052284 15 55.5 15.447716 55.5 16L 55.5 24C 55.5 24.552284 55.052284 25 54.5 25L 48.5 25C 47.947716 25 47.5 24.552284 47.5 24L 47.5 21"></path></g></g></g><g id="g-root-tx__1ulk6w6fazabk-stroke" data-item-order="0" transform="translate(556.5400390625, 46.291015625)"></g><g id="g-root-hand_dj7xlyfaph51-stroke" data-item-order="0" transform="translate(376.5400390625, 202.291015625)"><g id="hand_dj7xlyfaph51-stroke" fill="none" stroke-linecap="round" stroke-linejoin="round" stroke-miterlimit="4" stroke="#484848" stroke-width="2"><g><path d="M 46.400002 18.200001C 47 18.6 46.599998 19.4 46.400002 20C 45.599998 22.6 40.400002 26.799999 34 27.200001C 27.6 27.4 23.200001 22.200001 21.6 20C 21 19.6 21.200001 18.799999 21.4 18.200001C 22.4 15.6 27.6 11.6 34 11.2C 40.400002 10.6 44.400002 16.4 46.400002 18.200001M 34 16C 35.799999 15.6 37.200001 17.4 37.200001 19.200001C 37.200001 20.799999 35.599998 21.799999 34 22.4C 32.200001 22.799999 30.799999 20.799999 30.799999 19.200001C 30.6 17.4 32.200001 16.4 34 16M 50.599998 48.799999C 47.400002 48 43.799999 48.200001 40.599998 49.599998M 38.799999 37C 36.599998 37.799999 34.200001 38.200001 31.799999 39.400002C 30.799999 39.799999 29.4 39.200001 29 38C 28.799999 36.799999 29.200001 36 30.200001 35C 31.799999 33.200001 34.599998 32.799999 36.799999 31.6C 38 31 39.599998 30.6 40.599998 31.4C 43.599998 33.400002 47.599998 33.200001 50.599998 35M 31.200001 34.400002C 30.799999 34.400002 30.6 34.200001 30.4 33.799999C 29.6 32.799999 27.6 32.599998 26.4 33.400002C 23.6 35 20 35 17.4 37M 11.4 33.599998C 12.8 33.400002 14 33.799999 15.4 33.599998C 16.4 33.200001 17.200001 34.400002 17.4 35.400002C 16 39.400002 18 44 17.4 48.200001C 17.6 49.400002 16.4 50 15.4 50.200001C 14 50 12.8 50.200001 11.4 50.200001M 56.599998 50.200001C 55.200001 50.400002 54 50.200001 52.599998 50.200001C 51.599998 50.200001 50.599998 49.400002 50.599998 48.200001C 50.200001 44 50.599998 39.599998 50.599998 35.400002C 51 34.400002 51.599998 33.400002 52.599998 33.599998C 54 33.200001 55.200001 33.799999 56.599998 33.599998M 36 38.599998C 37.799999 40.799999 39.200001 43.599998 41.200001 45.799999C 42 46.599998 41.799999 47.799999 41.400002 48.799999C 41.200001 49.799999 39.799999 49.799999 38.599998 50.200001C 38 51.400002 37 52.200001 35.599998 52.400002C 36 53.799999 34 54.599998 32.599998 54.599998C 32.400002 55.799999 31.6 56.799999 30.4 56.799999C 29.4 56.799999 28 56.799999 27.6 55.799999C 25.4 54 23.799999 51.599998 22.4 49.200001C 21.6 48 20.4 47.799999 19.200001 47.599998C 18.6 47.400002 18 47.400002 17.4 47.400002M 32.599998 54.599998C 31.799999 54.200001 31.799999 53.400002 31.200001 52.799999M 35.599998 52.400002C 35.200001 52 34.799999 51.400002 34.400002 50.799999M 38.799999 50.200001C 38.200001 49.599998 38 48.799999 37.400002 48.400002"></path><path d="M 46.438 18.158001C 46.869148 18.720186 46.869148 19.501812 46.438 20.063999C 44.82 22.186001 40.375999 27.106001 33.970001 27.106001C 27.563999 27.106001 23.118 22.184 21.5 20.063999C 21.068153 19.502048 21.068153 18.719952 21.5 18.158001C 23.118 16.038 27.562 11.116 33.970001 11.116C 40.377998 11.116 44.82 16.038 46.438 18.158001ZM 33.970001 15.914C 35.737312 15.914 37.169998 17.346689 37.169998 19.114C 37.169998 20.881311 35.737312 22.313999 33.970001 22.313999C 32.20269 22.313999 30.77 20.881311 30.77 19.114C 30.77 17.346689 32.20269 15.914 33.970001 15.914M 50.669998 48.790001L 40.686001 49.622002M 38.858002 37L 31.884001 39.304001C 30.766235 39.673225 29.549505 39.143654 29.058001 38.074001C 28.526007 36.930046 28.996655 35.570297 30.122 35L 36.877998 31.6C 38.041801 31.013649 39.396461 30.935453 40.619999 31.383999L 50.619999 35.042M 31.152 34.482002L 30.431999 33.882C 29.255816 33.016418 27.715963 32.819778 26.360001 33.362L 17.41 36.942001M 11.376 33.526001L 15.4 33.526001C 16.463955 33.481941 17.363358 34.306244 17.412001 35.370003L 17.412001 48.273998C 17.363367 49.337463 16.463615 50.161194 15.4 50.116001L 11.376 50.116001M 56.624001 50.116001L 52.599998 50.116001C 51.536385 50.161194 50.636631 49.337463 50.588001 48.273998L 50.588001 35.370003C 50.636642 34.306244 51.536045 33.481941 52.599998 33.526001L 56.622002 33.526001M 36.096001 38.566002L 41.295998 45.706001C 41.950714 46.606876 42.009312 47.810104 41.445236 48.770336C 40.881157 49.730568 39.801659 50.265232 38.695999 50.132C 38.425102 51.574432 37.078224 52.556767 35.622002 52.374001C 35.351997 53.816769 34.004116 54.798962 32.548 54.613998C 32.33247 55.702129 31.494892 56.560432 30.412354 56.80249C 29.329815 57.044544 28.206446 56.62471 27.548 55.731998L 22.302 49.141998C 21.526314 48.156109 20.355686 47.562016 19.102001 47.518002L 17.41 47.456001M 32.556 54.613998L 31.152 52.891998M 35.629997 52.374001L 34.428001 50.776001M 38.704002 50.132L 37.389999 48.346001"></path></g></g></g><g id="g-root-48px_1ut2292faxwcn-stroke" data-item-order="0" transform="translate(484.5400390625, 202.291015625)"><g id="48px_1ut2292faxwcn-stroke" fill="none" stroke-linecap="round" stroke-linejoin="round" stroke-miterlimit="4" stroke="#484848" stroke-width="2"><g><path d="M 15.1 30.2C 14.9 24.5 17.8 19.9 23 19.7C 28.2 19.5 29.9 24.6 30.9 30.2C 31.4 32.5 30.8 34.9 30.9 37.3C 31.4 43 27.8 46.3 23 47.9C 18.2 49.5 14.8 43 15.1 37.3C 15.2 34.9 15.6 32.5 15.1 30.2M 37.1 27.1C 37.1 24.7 38.5 19.5 45.1 19.7C 51.6 19.9 52.9 24.6 52.4 27.4C 51.9 30.4 50.2 34.7 42.2 33.5C 49.7 34.4 53.6 35.6 53.1 41.1C 52.7 45.9 48.8 48.8 45 47.9C 42.2 47.8 35.6 46.2 36.6 40.2"></path><path d="M 15.07227 30.1785C 15.07227 24.4817 17.78873 19.69524 23.0107 19.69524C 28.2328 19.69524 30.9492 24.4817 30.9492 30.1785L 30.9492 37.2727C 30.9492 42.9695 28.1054 47.8816 23.0107 47.8816C 17.91609 47.8816 15.07227 42.9695 15.07227 37.2727L 15.07227 30.1785ZM 37.1212 27.0681C 37.0021 24.6592 38.4826 19.70994 45.0653 19.70994C 51.648 19.70994 52.6563 24.5974 52.4282 27.357C 52.1767 30.3999 50.2718 33.5079 42.2007 33.5079C 49.7136 33.5079 53.1255 35.562 53.1255 41.1245C 53.1255 45.9328 48.8755 47.8898 44.9922 47.8898C 42.2014 47.866 36.6196 46.2871 36.6196 40.1622"></path></g></g></g><g id="g-root-tx__1q5qorqfazaby-stroke" data-item-order="0" transform="translate(556.5400390625, 214.291015625)"></g><g id="g-root-cros_1lpx6nafazb49-stroke" data-item-order="0" transform="translate(262.5400390625, 262.291015625)"><g id="cros_1lpx6nafazb49-stroke" fill="none" stroke-linecap="round" stroke-linejoin="round" stroke-miterlimit="4" stroke="#484848" stroke-width="2"><g><path d="M 21 11C 24.200001 10.4 27.6 11.4 31 11C 29.799999 14.2 30 17.799999 31 21C 27.799999 22 24.4 21.4 21 21C 20.200001 17.799999 21.6 14.4 21 11M 21 21C 24.200001 22.200001 27.6 20.799999 31 21C 30.4 24.4 32.200001 28 31 31C 27.799999 32.200001 24.200001 30.4 21 31C 20.6 27.799999 21 24.4 21 21M 31 31C 30.4 27.799999 31.799999 24.4 31 21C 34.200001 21.6 37.799999 22.200001 41 21C 41.400002 23.6 40 26.6 41 29M 11 21C 14.2 20.6 17.799999 20.6 21 21C 20.200001 24.4 22.200001 28 21 31C 17.799999 30.4 14.2 30.4 11 31C 11.4 27.799999 10.6 24.4 11 21M 41 29C 41.400002 26.4 41.400002 23.6 41 21C 44.200001 20 47.799999 21.4 51 21C 49.799999 24.200001 50.599998 27.799999 51 31C 50.400002 31.200001 49.799999 31 49.200001 31M 21 41C 21.4 37.799999 21.6 34.400002 21 31C 24.4 31.200001 27.799999 30.200001 31 31C 32.400002 31.4 33.799999 31 35 31M 29 41C 26.4 40.799999 23.6 41.799999 21 41C 22 44.200001 20.200001 47.799999 21 51C 24.200001 50.200001 27.799999 51.799999 31 51C 31 50.400002 31 49.799999 31 49.200001M 33 42.799999C 32.200001 48.200001 37.400002 53.400002 42.799999 52.799999C 48.200001 52 53.799999 48.200001 52.799999 42.799999C 51.599998 37.400002 48.400002 32.599998 42.799999 33C 37.400002 33.200001 31.200001 37.599998 33 42.799999M 57 57C 54.400002 54.799999 51.599998 52.799999 49.799999 49.799999M 31 31C 31.4 32.200001 31.200001 33.599998 31 35"></path><path d="M 21.004 11.058L 31.004 11.058L 31.004 21.057999L 21.004 21.057999ZM 21.004 21.057999L 31.004 21.057999L 31.004 31.057999L 21.004 31.057999ZM 31.004 31.058001L 31.004 21.057999L 41.003998 21.057999L 41.003998 29.058001M 11.004 21.057999L 21.004 21.057999L 21.004 31.057999L 11.004 31.057999ZM 41.003998 29.058001L 41.003998 21.057999L 51.004002 21.057999L 51.004002 31.058001L 49.108002 31.058001M 21.004 41.057999L 21.004 31.058001L 31.004 31.058001L 35.076 31.058001M 29.004 41.057999L 21.004 41.057999L 21.004 51.057999L 31.004 51.057999L 31.004 49.153999M 32.996002 42.824001C 32.996002 48.281677 37.420322 52.706001 42.877998 52.706001C 48.335678 52.706001 52.759998 48.281677 52.759998 42.824001C 52.759998 37.366322 48.335678 32.942001 42.877998 32.942001C 37.420322 32.942001 32.996002 37.366322 32.996002 42.824001M 56.995998 56.942001L 49.866001 49.812M 31.004 31.058001L 31.004 34.900002"></path></g></g></g><g id="g-root-48px_v6pvc6fkmade-stroke" data-item-order="0" transform="translate(484.5400390625, 34.291015625)"><g id="48px_v6pvc6fkmade-stroke" fill="none" stroke-linecap="round" stroke-linejoin="round" stroke-miterlimit="4" stroke="#484848" stroke-width="2"><g><path d="M 37.8 23.4C 40.8 22.8 43.4 21.1 46.3 20.2C 46.4 29.4 45 38.8 46.3 48M 15.1 30.2C 15.3 24.5 17.8 20 23 19.7C 28.2 19.4 31.1 24.5 30.9 30.2C 30.9 32.5 31.1 34.9 30.9 37.3C 30.6 43 28.1 48.2 23 47.9C 17.9 47.6 14.2 42.9 15.1 37.3C 15.4 34.9 15.7 32.5 15.1 30.2"></path><path d="M 37.8418 23.3774L 46.2969 20.1836L 46.2969 47.951M 15.07227 30.1785C 15.07227 24.4817 17.78873 19.69524 23.0107 19.69524C 28.2328 19.69524 30.9492 24.4817 30.9492 30.1785L 30.9492 37.2727C 30.9492 42.9695 28.1054 47.8816 23.0107 47.8816C 17.91609 47.8816 15.07227 42.9695 15.07227 37.2727L 15.07227 30.1785Z"></path></g></g></g><g id="g-root-48px_hvx5gmfaqvpf-stroke" data-item-order="0" transform="translate(484.5400390625, 286.291015625)"><g id="48px_hvx5gmfaqvpf-stroke" fill="none" stroke-linecap="round" stroke-linejoin="round" stroke-miterlimit="4" stroke="#484848" stroke-width="2"><g><path d="M 15.1 30.2C 16.1 24.6 17.8 19.8 23 19.7C 28.2 19.6 31.1 24.5 30.9 30.2C 30.9 32.5 31 34.9 30.9 37.3C 30.9 43 28.1 47.7 23 47.9C 17.9 48.1 13.3 42.7 15.1 37.3C 15.8 35 15.4 32.5 15.1 30.2M 49.9 48C 48.4 38.6 51.2 28.9 49.9 19.6C 44.6 25.7 40.8 33 36.3 39.7C 42.6 39.5 49 40 55.3 39.7"></path><path d="M 15.07227 30.179C 15.07227 24.4822 17.78873 19.69573 23.0107 19.69573C 28.2328 19.69573 30.9492 24.4822 30.9492 30.179L 30.9492 37.2732C 30.9492 42.97 28.1054 47.8821 23.0107 47.8821C 17.91609 47.8821 15.07227 42.97 15.07227 37.2732L 15.07227 30.179ZM 49.9098 47.9788L 49.9098 19.55127L 36.2949 39.738L 55.3147 39.738"></path></g></g></g><g id="g-root-book_1cxejtyfb4vm1-stroke" data-item-order="0" transform="translate(130.5400390625, 304.291015625)"><g id="book_1cxejtyfb4vm1-stroke" fill="none" stroke-linecap="round" stroke-linejoin="round" stroke-miterlimit="4" stroke="#484848" stroke-width="2"><g><path d="M 31.799999 50.400002C 28.799999 48.200001 23 43.200001 13 44.400002C 11.8 44.599998 10.6 43.400002 11 42.400002C 13.8 33.400002 9.8 23.4 11 14C 11 13.4 11.4 13 11.6 12.6C 11.8 12.2 12.6 12 13 12C 26.200001 12.6 32.599998 17.200001 33 20.6C 32.400002 17.200001 40.799999 13.8 53 12C 53.400002 12 54 12.2 54.400002 12.6C 54.799999 13 55.200001 13.6 55 14C 53 22.4 55.200001 31.4 55 40M 33 20.6C 34 28 34 35.599998 33 43M 28 22C 24.4 21 20.799999 19.200001 17 19.4M 39 31C 42.200001 29 46.400002 29.6 50 28.4M 28 31C 24.799999 28.799999 20.799999 27.799999 17 28.4M 28 39C 24.4 37.799999 20.6 35.599998 16.799999 36.400002M 39 22C 42.799999 21.799999 46.400002 20 50.200001 19.4M 57 56C 57 55.200001 57 54.599998 57 53.799999C 57.400002 50.799999 54.599998 48.200001 51.599998 48C 50 48.200001 48.400002 48.599998 47 48C 46.799999 44.799999 46.400002 41.599998 47 38.400002C 47.200001 37.200001 45.799999 36.200001 44.599998 36C 43.200001 35.599998 42.200001 37.200001 42 38.400002C 41.200001 43.200001 42.400002 48.200001 42 53C 41.200001 51.400002 39.599998 50.400002 39 48.799999C 38.799999 48 38 47.400002 37.200001 47.599998C 36.400002 47.799999 35.799999 48 35.400002 48.599998C 34.799999 49 34.799999 50 35.200001 50.599998C 36.599998 52.200001 37.799999 54 38 56"></path><path d="M 31.898001 50.428001C 29.468 47.543999 23.054001 44.728001 12.968 44.402C 11.875947 44.384525 10.99986 43.494194 11 42.402L 11 14.021999C 10.999913 13.485271 11.215561 12.971029 11.598456 12.594905C 11.981352 12.21878 12.499357 12.012339 13.036 12.022C 26.115999 12.458 33 17.087999 33 20.6C 33 17.098 40.728001 12.492001 52.956001 12.024C 53.494015 12.012161 54.014099 12.217636 54.398743 12.594C 54.783386 12.970364 55.00013 13.485855 55 14.024L 55 39.986M 33 20.602001L 33 42.986M 28 21.986C 24.434093 20.712593 20.733925 19.852306 16.972 19.422001M 39 30.986C 42.566532 29.712395 46.267391 28.852104 50.029999 28.422001M 28 30.986C 24.434093 29.712593 20.733925 28.852306 16.972 28.421999M 28 38.986C 24.401293 37.700554 20.666801 36.832863 16.869999 36.400002M 39 21.986C 42.599747 20.699421 46.335697 19.831703 50.133999 19.4M 57 55.986L 57 53.785999C 57.016537 50.693691 54.594669 48.136932 51.506001 47.986L 47 47.986L 47 38.486C 47 37.105289 45.880711 35.986 44.5 35.986C 43.119289 35.986 42 37.105289 42 38.486L 42 52.986L 38.958 48.708C 38.616272 48.030254 37.935417 47.589657 37.177158 47.55558C 36.4189 47.5215 35.701263 47.899242 35.300117 48.543602C 34.898972 49.187958 34.876751 49.998634 35.241997 50.663998L 38.042 55.986"></path></g></g></g><g id="g-root-tx__9n1ifaz9qd-stroke" data-item-order="0" transform="translate(556.5400390625, 298.291015625)"></g><g id="g-root-48px_4il4o6fb23uo-stroke" data-item-order="0" transform="translate(484.5400390625, 370.291015625)"><g id="48px_4il4o6fb23uo-stroke" fill="none" stroke-linecap="round" stroke-linejoin="round" stroke-miterlimit="4" stroke="#484848" stroke-width="2"><g><path d="M 15.1 30.2C 15.8 24.5 18 18.2 23 19.7C 28 21.2 31.3 24.5 30.9 30.2C 30.8 32.5 30.5 35 30.9 37.3C 32.1 42.9 28.1 47.5 23 47.9C 17.9 48.3 14.4 42.9 15.1 37.3C 15.4 34.9 15.5 32.5 15.1 30.2M 53.7 20.1C 49.3 19.3 44.6 21.5 40.4 20.1C 40.3 24.5 39.5 28.8 39 33.1C 39.6 32.1 42.4 30 45.9 30.7C 49.9 31.5 52.8 33.5 53.4 40.1C 54.1 46.9 48.9 48.1 45.5 47.9C 41.9 47.7 39.6 45.1 38.1 40.6"></path><path d="M 15.07227 30.179C 15.07227 24.4822 17.78873 19.69573 23.0107 19.69573C 28.2328 19.69573 30.9492 24.4822 30.9492 30.179L 30.9492 37.2732C 30.9492 42.97 28.1054 47.8821 23.0107 47.8821C 17.91609 47.8821 15.07227 42.97 15.07227 37.2732L 15.07227 30.179ZM 53.6933 20.1206L 40.3788 20.1206L 38.9878 33.1442C 39.8169 32.315 42.3531 30.6566 45.8651 30.6566C 49.9711 30.6566 53.8125 33.4467 53.427 40.0524C 53.0278 46.8938 48.912 47.9042 45.5285 47.9042C 41.9445 47.9042 38.405 45.3609 38.0728 40.565"></path></g></g></g></g></g></svg>