<?xml version="1.0" encoding="utf-8" standalone="yes"?>
<!DOCTYPE svg PUBLIC "-//W3C//DTD SVG 1.1//EN" "http://www.w3.org/Graphics/SVG/1.1/DTD/svg11.dtd">
<svg width="1096" height="364" viewBox="0 0 1096 364" style="fill:none;stroke:none;fill-rule:evenodd;clip-rule:evenodd;stroke-linecap:round;stroke-linejoin:round;stroke-miterlimit:1.5;" version="1.1" xmlns="http://www.w3.org/2000/svg" xmlns:xlink="http://www.w3.org/1999/xlink"><style id="fontImports">@import url("https://fonts.googleapis.com/css2?family=Roboto:wght@400;700&amp;display=block");</style><g id="items" style="isolation: isolate"><g id="blend" style="mix-blend-mode: normal"><g id="g-root-1.cu_sy_v48bgt33h5oq-fill" data-item-order="-239068" transform="translate(16, 22)"><g id="1.cu_sy_v48bgt33h5oq-fill" stroke="none" fill="#dce9ff"><g><path d="M 7.3 96.1L 11.1 108.4L 30.7 104L 26.3 90.1ZM 30.7 104L 21.4 32.9L 2 38.6L 11.1 108.4ZM 2 38.6L 36.2 110.1L 55.2 103.5L 21.4 32.9ZM 55.2 103.5L 33.3 6.6L 14.3 13.1L 36.2 110.1ZM 14.3 13.1L 57.1 104.1L 76.2 97.6L 33.3 6.6ZM 76.2 97.6L 56.5 9.1L 37.3 15.1L 57.1 104.1ZM 37.3 15.1L 74.2 104.3L 93.8 99.3L 56.5 9.1ZM 93.8 99.3L 83.4 7L 63.9 12.3L 74.2 104.3ZM 63.9 12.3L 105.5 105.5L 124.8 99.5L 83.4 7ZM 124.8 99.5L 108 7.6L 88.7 13.3L 105.5 105.5ZM 88.7 13.3L 127.4 105.8L 146.7 100.1L 108 7.6ZM 146.7 100.1L 129.4 5.3L 110.1 10.9L 127.4 105.8ZM 110.1 10.9L 148 105.8L 167.3 100.2L 129.4 5.3ZM 167.3 100.2L 150.7 10.6L 131.6 17.1L 148 105.8ZM 131.6 17.1L 166.2 84.5L 185.3 77.9L 150.7 10.6ZM 185.3 77.9L 171.5 5L 152.2 10.4L 166.2 84.5ZM 152.2 10.4L 161.9 36.9L 184.1 39.3L 171.5 5ZM 184.1 39.3L 203.7 8.5L 183.8 2.6L 161.9 36.9ZM 183.8 2.6L 183.6 22.1L 203.5 31.5L 203.7 8.5ZM 203.5 31.5L 223.2 15.1L 207.2 2.4L 183.6 22.1ZM 207.2 2.4L 202.5 11.8L 220.4 20.8L 223.2 15.1Z" fill-rule="nonzero"></path></g></g></g><g id="g-root-2.cu_sy_qoetcd33h6gz-fill" data-item-order="-239064" transform="translate(184.00009155273438, 22)"><g id="2.cu_sy_qoetcd33h6gz-fill" stroke="none" fill="#d1f4ff"><g><path d="M 3.199908 125.3L 7.199908 131.3L 26.499908 124.2L 19.799908 114.2ZM 26.499908 124.2L 20.199908 70.8L 0.899908 77.7L 7.199908 131.3ZM 0.899908 77.7L 32.999908 128.4L 51.899908 120.8L 20.199908 70.8ZM 51.899908 120.8L 33.299908 30.3L 13.999908 36L 32.999908 128.4ZM 13.999908 36L 52.699908 134.5L 71.999908 129.1L 33.299908 30.3ZM 71.999908 129.1L 55.499908 35L 36.199908 41L 52.699908 134.5ZM 36.199908 41L 77.099908 130.7L 96.399908 124.7L 55.499908 35ZM 96.399908 124.7L 79.199908 32L 59.899908 37.7L 77.099908 130.7ZM 59.899908 37.7L 99.499908 132.4L 118.899908 126.9L 79.199908 32ZM 118.899908 126.9L 103.499908 29.7L 84.199908 35.7L 99.499908 132.4ZM 84.199908 35.7L 129.999908 131.5L 148.999908 124.8L 103.499908 29.7ZM 148.999908 124.8L 127.699908 35L 108.599908 41L 129.999908 131.5ZM 108.599908 41L 144.499908 130.8L 163.899908 125.3L 127.699908 35ZM 163.899908 125.3L 147.799908 33.6L 128.599908 39.6L 144.499908 130.8ZM 128.599908 39.6L 161.799908 111.1L 181.499908 106.1L 147.799908 33.6ZM 181.499908 106.1L 176.399908 30.4L 156.799908 36.5L 161.799908 111.1ZM 156.799908 36.5L 169.499908 57.7L 191.799908 56.1L 176.399908 30.4ZM 191.799908 56.1L 203.099908 29.3L 181.699908 28.5L 169.499908 57.7ZM 181.699908 28.5L 186.999908 44L 209.799908 48.9L 203.099908 29.3ZM 209.799908 48.9L 225.499908 32L 203.799908 26L 186.999908 44ZM 203.799908 26L 208.299908 47.5L 227.899908 43.3L 225.499908 32Z" fill-rule="nonzero"></path></g></g></g><g id="g-root-3.cu_sy_qoetcd33h6h0-fill" data-item-order="-239060" transform="translate(352.0000915527344, 46)"><g id="3.cu_sy_qoetcd33h6h0-fill" stroke="none" fill="#c8ffe5"><g><path d="M 4.199908 129.1L 7.599908 132.9L 27.099908 124.8L 19.199908 115.9ZM 27.099908 124.8L 23.099908 61.8L 3.399908 67.4L 7.599908 132.9ZM 3.399908 67.4L 36.299908 128.9L 54.999908 121.6L 23.099908 61.8ZM 54.999908 121.6L 31.899908 33.8L 12.999908 40.9L 36.299908 128.9ZM 12.999908 40.9L 56.399908 127.8L 75.399908 121.2L 31.899908 33.8ZM 75.399908 121.2L 57.499908 33L 38.399908 39.6L 56.399908 127.8ZM 38.399908 39.6L 84.199908 130.6L 103.099908 123.8L 57.499908 33ZM 103.099908 123.8L 81.899908 30.9L 62.799908 37.2L 84.199908 130.6ZM 62.799908 37.2L 101.999908 126.9L 121.199908 120.8L 81.899908 30.9ZM 121.199908 120.8L 103.799908 34.4L 84.699908 40.9L 101.999908 126.9ZM 84.699908 40.9L 127.099908 127L 146.399908 120.9L 103.799908 34.4ZM 146.399908 120.9L 131.899908 31.9L 112.599908 37.5L 127.099908 127ZM 112.599908 37.5L 152.699908 131.2L 171.799908 124.9L 131.899908 31.9ZM 171.799908 124.9L 150.299908 33.6L 131.299908 40.1L 152.699908 131.2ZM 131.299908 40.1L 161.099908 105.2L 180.499908 99.4L 150.299908 33.6ZM 180.499908 99.4L 170.099908 32.5L 151.299908 42.2L 161.099908 105.2ZM 151.299908 42.2L 168.899908 59.4L 190.499908 52.6L 170.099908 32.5ZM 190.499908 52.6L 194.399908 32.2L 172.999908 37.6L 168.899908 59.4ZM 172.999908 37.6L 181.099908 47L 208.099908 50.3L 227.799908 35.9L 203.999908 28.8L 196.299908 34.6L 194.399908 32.2ZM 203.999908 28.8L 209.599908 44.3L 228.399908 37.5L 227.799908 35.9Z" fill-rule="nonzero"></path></g></g></g><g id="g-root-4.cu_sy_qoetcd33h6h1-fill" data-item-order="-239056" transform="translate(520.0001220703125, 70)"><g id="4.cu_sy_qoetcd33h6h1-fill" stroke="none" fill="#e9ffb9"><g><path d="M 220.099878 44.2L 221.099878 32L 201.699878 25.2L 200.099878 42.4ZM 201.699878 25.2L 185.799878 49.4L 210.199878 48.6L 221.099878 32ZM 210.199878 48.6L 194.999878 28.4L 173.599878 33.2L 185.799878 49.4ZM 173.599878 33.2L 167.999878 60.9L 189.199878 57.1L 194.999878 28.4ZM 189.199878 57.1L 169.899878 26.1L 150.999878 33.5L 167.999878 60.9ZM 150.999878 33.5L 166.199878 110.8L 185.399878 104.5L 169.899878 26.1ZM 185.399878 104.5L 149.499878 27.5L 130.199878 33.3L 166.199878 110.8ZM 130.199878 33.3L 145.599878 133.4L 164.999878 128L 149.499878 27.5ZM 164.999878 128L 126.999878 35.2L 107.799878 41L 145.599878 133.4ZM 107.799878 41L 126.299878 134.6L 145.599878 129.1L 126.999878 35.2ZM 145.599878 129.1L 108.299878 28.8L 88.799878 33.6L 126.299878 134.6ZM 88.799878 33.6L 101.299878 128.6L 120.799878 123.5L 108.299878 28.8ZM 120.799878 123.5L 83.199878 28.2L 63.599878 33.1L 101.299878 128.6ZM 63.599878 33.1L 75.199878 127.7L 94.699878 122.3L 83.199878 28.2ZM 94.699878 122.3L 54.199878 32.2L 35.199878 38.7L 75.199878 127.7ZM 35.199878 38.7L 56.499878 128.3L 75.599878 122.3L 54.199878 32.2ZM 75.599878 122.3L 38.699878 29.5L 19.299878 34.8L 56.499878 128.3ZM 19.299878 34.8L 33.999878 133L 53.299878 126.9L 38.699878 29.5ZM 53.299878 126.9L 20.299878 60.9L 0.899878 66.8L 33.999878 133ZM 0.899878 66.8L 9.099878 132.4L 28.499878 126.5L 20.299878 60.9ZM 28.499878 126.5L 20.199878 110.1L 2.399878 119.2L 9.099878 132.4Z" fill-rule="nonzero"></path></g></g></g><g id="g-root-5.cu_sy_hsrt3h33h79q-fill" data-item-order="-239052" transform="translate(688, 94)"><g id="5.cu_sy_hsrt3h33h79q-fill" stroke="none" fill="#fff8b6"><g><path d="M 8.2 127L 8.9 128.7L 28.5 123.4L 26.4 118.7ZM 28.5 123.4L 23 67.5L 3.5 72.8L 8.9 128.7ZM 3.5 72.8L 28.5 127.5L 48 122L 23 67.5ZM 48 122L 36.7 30L 17.2 35.3L 28.5 127.5ZM 17.2 35.3L 59 131.8L 78.2 125.7L 36.7 30ZM 78.2 125.7L 59.1 33.7L 39.9 39.9L 59 131.8ZM 39.9 39.9L 79.1 128L 98.2 121.8L 59.1 33.7ZM 98.2 121.8L 78.9 30.4L 59.8 36.5L 79.1 128ZM 59.8 36.5L 100.8 132.6L 120.1 126.9L 78.9 30.4ZM 120.1 126.9L 103.7 32.8L 84.4 38.6L 100.8 132.6ZM 84.4 38.6L 123.1 128.2L 142.5 122.7L 103.7 32.8ZM 142.5 122.7L 129.6 30.9L 110.2 36.4L 123.1 128.2ZM 110.2 36.4L 151.4 131.2L 170.7 125.3L 129.6 30.9ZM 170.7 125.3L 153.6 32.9L 134.5 39.2L 151.4 131.2ZM 134.5 39.2L 165.6 103.2L 184.7 96.7L 153.6 32.9ZM 184.7 96.7L 170.7 27.8L 151.6 34.3L 165.6 103.2ZM 151.6 34.3L 160.5 52.6L 184.6 56.3L 170.7 27.8ZM 184.6 56.3L 203.8 36.2L 176.4 35.9L 160.5 52.6ZM 176.4 35.9L 188.8 49.4L 212.4 45.5L 203.8 36.2ZM 212.4 45.5L 219.6 29.5L 198.7 27.2L 188.8 49.4ZM 198.7 27.2L 201.8 42.2L 221.4 38.1L 219.6 29.5Z" fill-rule="nonzero"></path></g></g></g><g id="g-root-6.cu_sy_hsrt3h33h79r-fill" data-item-order="-239048" transform="translate(856, 118)"><g id="6.cu_sy_hsrt3h33h79r-fill" stroke="none" fill="#ffe4cb"><g><path d="M 5.6 33.9L 5.2 46.6L 24.9 56.1L 25.6 34.6ZM 24.9 56.1L 44.3 39.4L 26.3 28.5L 5.2 46.6ZM 26.3 28.5L 3.9 125.1L 22.9 131.7L 44.3 39.4ZM 22.9 131.7L 68.6 34.7L 49.6 28.2L 3.9 125.1ZM 49.6 28.2L 28.9 122L 47.8 129L 68.6 34.7ZM 47.8 129L 95.5 39.8L 76.7 32.5L 28.9 122ZM 76.7 32.5L 52.8 125.7L 71.7 132.7L 95.5 39.8ZM 71.7 132.7L 118.6 38.1L 99.8 31L 52.8 125.7ZM 99.8 31L 73.9 124.7L 92.8 131.4L 118.6 38.1ZM 92.8 131.4L 134.3 35.8L 115 30L 73.9 124.7ZM 115 30L 98.6 120.7L 117.8 127.1L 134.3 35.8ZM 117.8 127.1L 163.5 35.5L 144.6 28.6L 98.6 120.7ZM 144.6 28.6L 121.7 126.2L 140.7 132.9L 163.5 35.5ZM 140.7 132.9L 186.2 36.8L 167.2 30.3L 121.7 126.2ZM 167.2 30.3L 145.6 126.9L 164.5 133.8L 186.2 36.8ZM 164.5 133.8L 203.6 57.8L 185 50.2L 145.6 126.9ZM 185 50.2L 161.9 126.1L 180.3 134.3L 203.6 57.8ZM 180.3 134.3L 213.5 79.3L 195.6 70.3L 161.9 126.1ZM 195.6 70.3L 191.6 79.9L 210.1 87.5L 213.5 79.3Z" fill-rule="nonzero"></path></g></g></g><g id="g-root-tx_2012netw_ddks2533h4w9-fill" data-item-order="0" transform="translate(46, 22)"><g id="tx_2012netw_ddks2533h4w9-fill" stroke="none" fill="#484848"><g><text style="font: 20px Roboto, sans-serif; white-space: pre;" font-size="20px" font-family="Roboto, sans-serif"><tspan x="31.52" y="33.5" dominant-baseline="ideographic">2012年</tspan><tspan x="21.58" y="57.5" dominant-baseline="ideographic"> Software </tspan><tspan x="21.11" y="81.5" dominant-baseline="ideographic">Engineer/</tspan><tspan x="12.11" y="105.5" dominant-baseline="ideographic">Sonyに入社</tspan></text></g></g></g><g id="g-root-tx_2015infr_249ot33h6h7-fill" data-item-order="0" transform="translate(196, 58)"><g id="tx_2015infr_249ot33h6h7-fill" stroke="none" fill="#484848"><g><text style="font: 20px Roboto, sans-serif; white-space: pre;" font-size="20px" font-family="Roboto, sans-serif"><tspan x="49.52" y="33.5" dominant-baseline="ideographic">2014年</tspan><tspan x="16.27" y="57.5" dominant-baseline="ideographic">Infra Engineer/</tspan><tspan x="31.89" y="81.5" dominant-baseline="ideographic">Sony group</tspan></text></g></g></g><g id="g-root-tx_20184sre_249ot33h6h9-fill" data-item-order="0" transform="translate(376, 94)"><g id="tx_20184sre_249ot33h6h9-fill" stroke="none" fill="#484848"><g><text style="font: 20px Roboto, sans-serif; white-space: pre;" font-size="20px" font-family="Roboto, sans-serif"><tspan x="21.9" y="33.5" dominant-baseline="ideographic">2018年4月</tspan><tspan x="14.95" y="57.5" dominant-baseline="ideographic">SRE/Merpay</tspan></text></g></g></g><g id="g-root-tx_201810sr_1unetjh33h72f-fill" data-item-order="0" transform="translate(544, 118)"><g id="tx_201810sr_1unetjh33h72f-fill" stroke="none" fill="#484848"><g><text style="font: 20px Roboto, sans-serif; white-space: pre;" font-size="20px" font-family="Roboto, sans-serif"><tspan x="16.28" y="33.5" dominant-baseline="ideographic">2018年10月</tspan><tspan x="35.32" y="57.5" dominant-baseline="ideographic">SRE EM</tspan></text></g></g></g><g id="g-root-tx__8xr9xp33h5oi-fill" data-item-order="0" transform="translate(28, 142)"><g id="tx__8xr9xp33h5oi-fill" stroke="none" fill="#484848"><g><text style="font: 20px Roboto, sans-serif; white-space: pre;" font-size="20px" font-family="Roboto, sans-serif"><tspan x="12" y="33.5" dominant-baseline="ideographic">最初はネットワ</tspan><tspan x="12" y="57.5" dominant-baseline="ideographic">ークソフトウェ</tspan><tspan x="12" y="81.5" dominant-baseline="ideographic">アエンジニア</tspan></text></g></g></g><g id="g-root-tx_20237sre_1q87si533h4ox-fill" data-item-order="0" transform="translate(718, 142)"><g id="tx_20237sre_1q87si533h4ox-fill" stroke="none" fill="#484848"><g><text style="font: 20px Roboto, sans-serif; white-space: pre;" font-size="20px" font-family="Roboto, sans-serif"><tspan x="15.9" y="33.5" dominant-baseline="ideographic">2023年7月</tspan><tspan x="34.51" y="57.5" dominant-baseline="ideographic">SRE IC</tspan></text></g></g></g><g id="g-root-tx__249ot33h6h8-fill" data-item-order="0" transform="translate(196, 166)"><g id="tx__249ot33h6h8-fill" stroke="none" fill="#484848"><g><text style="font: 20px Roboto, sans-serif; white-space: pre;" font-size="20px" font-family="Roboto, sans-serif"><tspan x="12" y="33.5" dominant-baseline="ideographic">インフラエンジ</tspan><tspan x="12" y="57.5" dominant-baseline="ideographic">ニア兼</tspan><tspan x="12" y="81.5" dominant-baseline="ideographic">Tech Lead</tspan></text></g></g></g><g id="g-root-tx_202312pr_1hcks9933h5hn-fill" data-item-order="0" transform="translate(880, 154)"><g id="tx_202312pr_1hcks9933h5hn-fill" stroke="none" fill="#484848"><g><text style="font: 20px Roboto, sans-serif; white-space: pre;" font-size="20px" font-family="Roboto, sans-serif"><tspan x="16.28" y="33.5" dominant-baseline="ideographic">2023年12月</tspan><tspan x="31.2" y="57.5" dominant-baseline="ideographic">Principal </tspan><tspan x="31.23" y="81.5" dominant-baseline="ideographic">Engineer</tspan></text></g></g></g><g id="g-root-tx__1unetjh33h72e-fill" data-item-order="0" transform="translate(364, 202)"><g id="tx__1unetjh33h72e-fill" stroke="none" fill="#484848"><g><text style="font: 20px Roboto, sans-serif; white-space: pre;" font-size="20px" font-family="Roboto, sans-serif"><tspan x="12" y="33.5" dominant-baseline="ideographic">Merpay1人目の</tspan><tspan x="12" y="57.5" dominant-baseline="ideographic">SREとして入社</tspan></text></g></g></g><g id="g-root-tx__1q87si533h4ow-fill" data-item-order="0" transform="translate(532, 226)"><g id="tx__1q87si533h4ow-fill" stroke="none" fill="#484848"><g><text style="font: 20px Roboto, sans-serif; white-space: pre;" font-size="20px" font-family="Roboto, sans-serif"><tspan x="12" y="33.5" dominant-baseline="ideographic">SREの</tspan><tspan x="12" y="57.5" dominant-baseline="ideographic">Engineering </tspan><tspan x="12" y="81.5" dominant-baseline="ideographic">Managerも担当</tspan></text></g></g></g><g id="g-root-tx__1q87si533h4oy-fill" data-item-order="0" transform="translate(700, 238)"><g id="tx__1q87si533h4oy-fill" stroke="none" fill="#484848"><g><text style="font: 20px Roboto, sans-serif; white-space: pre;" font-size="20px" font-family="Roboto, sans-serif"><tspan x="12" y="33.5" dominant-baseline="ideographic">Engineering </tspan><tspan x="12" y="57.5" dominant-baseline="ideographic">Managerをやめ</tspan><tspan x="12" y="81.5" dominant-baseline="ideographic">てICに戻る</tspan></text></g></g></g><g id="g-root-tx__1cwra4t33h69w-fill" data-item-order="0" transform="translate(868, 262)"><g id="tx__1cwra4t33h69w-fill" stroke="none" fill="#484848"><g><text style="font: 20px Roboto, sans-serif; white-space: pre;" font-size="20px" font-family="Roboto, sans-serif"><tspan x="12" y="33.5" dominant-baseline="ideographic">Principal </tspan><tspan x="12" y="57.5" dominant-baseline="ideographic">Engineerに選ば</tspan><tspan x="12" y="81.5" dominant-baseline="ideographic">れる</tspan></text></g></g></g><g id="g-root-1.cu_sy_v48bgt33h5oq-stroke" data-item-order="-239068" transform="translate(16, 22)"><g id="1.cu_sy_v48bgt33h5oq-stroke" fill="none" stroke-linecap="round" stroke-linejoin="round" stroke-miterlimit="4" stroke="#484848" stroke-width="4"><g><path d="M 10 106C 9.2 74 8 41.9 10 10C 35.2 10 60.4 9.3 85.7 10C 108.1 10.6 130.5 9.8 152.9 10C 177.2 10.2 201.6 8.8 226 10C 210.6 19 194.5 27.1 178 34C 178.9 58 178.9 82 178 106C 149.9 106 121.9 106.2 93.8 106C 65.9 105.8 37.9 104.3 10 106"></path><path d="M 10 106L 10 10L 226 10L 178 34L 178 106L 10 106Z"></path></g></g></g><g id="g-root-2.cu_sy_qoetcd33h6gz-stroke" data-item-order="-239064" transform="translate(184.00009155273438, 22)"><g id="2.cu_sy_qoetcd33h6gz-stroke" fill="none" stroke-linecap="round" stroke-linejoin="round" stroke-miterlimit="4" stroke="#484848" stroke-width="4"><g><path d="M 9.999908 130C 9.699908 98 11.899908 65.9 9.999908 34C 22.099908 33.7 34.099908 33.7 46.199908 34C 57.999908 34.3 69.799908 34.2 81.599908 34C 92.499908 33.8 103.499908 34.5 114.499908 34C 127.899908 33.4 141.399908 34.8 154.799908 34C 166.099908 33.3 177.499908 35.7 188.599908 34C 200.899908 32.2 213.599908 32.5 225.999908 34C 210.599908 43.1 193.799908 49.6 177.999908 58C 178.699908 82 177.199908 106 177.999908 130C 160.799908 130.5 143.499908 130.1 126.299908 130C 108.099908 129.9 89.899908 128.6 71.699908 130C 51.199908 131.6 30.599908 130.7 9.999908 130M 57.999908 10C 59.899908 17.8 58.399908 26 57.999908 34C 41.999908 35 25.899908 32.5 9.999908 34C 26.599908 27.3 42.099908 18.2 57.999908 10"></path><path d="M 10 130L 10 34L 226 34L 178 58L 178 130L 10 130ZM 58 10L 58 34L 10 34L 58 10Z"></path></g></g></g><g id="g-root-3.cu_sy_qoetcd33h6h0-stroke" data-item-order="-239060" transform="translate(352.0000915527344, 46)"><g id="3.cu_sy_qoetcd33h6h0-stroke" fill="none" stroke-linecap="round" stroke-linejoin="round" stroke-miterlimit="4" stroke="#484848" stroke-width="4"><g><path d="M 9.999908 130C 10.599908 113.6 9.499908 97.1 9.999908 80.7C 10.499908 65.2 10.099908 49.6 9.999908 34C 34.699908 33.1 59.399908 33 83.999908 34C 108.999908 35 134.099908 35.1 159.099908 34C 181.399908 33 203.699908 34.2 225.999908 34C 209.299908 40.5 193.799908 49.6 177.999908 58C 178.399908 82 176.299908 106.1 177.999908 130C 150.499908 128.1 122.799908 129.7 95.199908 130C 66.799908 130.3 38.399908 129.8 9.999908 130M 57.999908 10C 58.099908 18 56.999908 26.1 57.999908 34C 41.999908 33.8 25.999908 34.4 9.999908 34C 25.499908 25.1 41.799908 17.6 57.999908 10"></path><path d="M 10 130L 10 34L 226 34L 178 58L 178 130L 10 130ZM 58.000022 10L 58.000022 34L 10.000122 34L 58.000022 10Z"></path></g></g></g><g id="g-root-4.cu_sy_qoetcd33h6h1-stroke" data-item-order="-239056" transform="translate(520.0001220703125, 70)"><g id="4.cu_sy_qoetcd33h6h1-stroke" fill="none" stroke-linecap="round" stroke-linejoin="round" stroke-miterlimit="4" stroke="#484848" stroke-width="4"><g><path d="M 9.999878 34C 9.399878 66 10.999878 98 9.999878 130C 39.699878 130.1 69.299878 130.5 98.999878 130C 125.299878 129.5 151.699878 131.2 177.999878 130C 178.499878 106 179.899878 81.9 177.999878 58C 193.199878 48.6 209.899878 41.8 225.999878 34C 209.799878 35.7 193.499878 35.5 177.299878 34C 158.399878 32.2 139.399878 34.6 120.399878 34C 102.599878 33.5 84.699878 33.3 66.899878 34C 47.899878 34.8 28.899878 33.3 9.999878 34M 57.999878 10C 58.399878 18 57.699878 26 57.999878 34C 41.999878 34.7 25.999878 35.3 9.999878 34C 25.999878 26 42.099878 18.3 57.999878 10"></path><path d="M 10 34L 10 130L 178 130L 178 58L 226 34L 10 34ZM 57.9999 10L 57.9999 34L 10 34L 57.9999 10Z"></path></g></g></g><g id="g-root-5.cu_sy_hsrt3h33h79q-stroke" data-item-order="-239052" transform="translate(688, 94)"><g id="5.cu_sy_hsrt3h33h79q-stroke" fill="none" stroke-linecap="round" stroke-linejoin="round" stroke-miterlimit="4" stroke="#484848" stroke-width="4"><g><path d="M 10 130C 9.2 115.4 11.5 100.6 10 86.1C 8.3 68.8 11.1 51.3 10 34C 33 34.8 56.1 32.8 79.1 34C 105.1 35.3 131.3 32.6 157.4 34C 180.2 35.2 203.1 33.6 226 34C 210.2 42.5 193.8 49.6 178 58C 176.8 82 178.7 106 178 130C 150.7 129.6 123.3 131.1 96 130C 67.4 128.8 38.6 128.3 10 130M 58 10C 57.8 18 57 26.1 58 34C 42 34.1 26 33.1 10 34C 26.2 26.3 42.1 18.1 58 10"></path><path d="M 10.000122 130L 10.000122 34L 226.000122 34L 178.000122 58L 178.000122 130L 10.000122 130ZM 58.0001 10L 58.0001 34L 10 34L 58.0001 10Z"></path></g></g></g><g id="g-root-6.cu_sy_hsrt3h33h79r-stroke" data-item-order="-239048" transform="translate(856, 118)"><g id="6.cu_sy_hsrt3h33h79r-stroke" fill="none" stroke-linecap="round" stroke-linejoin="round" stroke-miterlimit="4" stroke="#484848" stroke-width="4"><g><path d="M 10 130C 9.7 98 10.9 66 10 34C 25.6 35.5 41.4 35.4 57 34C 74.7 32.4 92.5 33.1 110.2 34C 128.7 35 147.4 34.7 166 34C 165.7 30 165.2 25.9 166 22C 176.1 31.5 183.4 43.6 192 54.5C 199.3 63.7 205.7 73.7 214 82C 197.7 102.1 182.2 122.8 166 143C 165.9 138.7 166.5 134.3 166 130C 141.5 132 116.8 128.7 92.3 130C 64.9 131.4 37.4 128.3 10 130M 58 10C 58 18 58.6 26 58 34C 42 34.5 26 34.9 10 34C 25.4 24.9 41.8 17.5 58 10"></path><path d="M 10 130L 10 34L 166 34L 166 22L 214 82L 166 143L 166 130L 10 130ZM 58 10L 58 34L 10 34L 58 10Z"></path></g></g></g><g id="g-root-tx_2012netw_ddks2533h4w9-stroke" data-item-order="0" transform="translate(46, 22)"></g><g id="g-root-tx_2015infr_249ot33h6h7-stroke" data-item-order="0" transform="translate(196, 58)"></g><g id="g-root-tx_20184sre_249ot33h6h9-stroke" data-item-order="0" transform="translate(376, 94)"></g><g id="g-root-tx_201810sr_1unetjh33h72f-stroke" data-item-order="0" transform="translate(544, 118)"></g><g id="g-root-tx__8xr9xp33h5oi-stroke" data-item-order="0" transform="translate(28, 142)"></g><g id="g-root-tx_20237sre_1q87si533h4ox-stroke" data-item-order="0" transform="translate(718, 142)"></g><g id="g-root-tx__249ot33h6h8-stroke" data-item-order="0" transform="translate(196, 166)"></g><g id="g-root-tx_202312pr_1hcks9933h5hn-stroke" data-item-order="0" transform="translate(880, 154)"></g><g id="g-root-tx__1unetjh33h72e-stroke" data-item-order="0" transform="translate(364, 202)"></g><g id="g-root-tx__1q87si533h4ow-stroke" data-item-order="0" transform="translate(532, 226)"></g><g id="g-root-tx__1q87si533h4oy-stroke" data-item-order="0" transform="translate(700, 238)"></g><g id="g-root-tx__1cwra4t33h69w-stroke" data-item-order="0" transform="translate(868, 262)"></g></g></g></svg>