<?xml version="1.0" encoding="utf-8" standalone="yes"?>
<!DOCTYPE svg PUBLIC "-//W3C//DTD SVG 1.1//EN" "http://www.w3.org/Graphics/SVG/1.1/DTD/svg11.dtd">
<svg width="1094" height="362" viewBox="0 0 1094 362" style="fill:none;stroke:none;fill-rule:evenodd;clip-rule:evenodd;stroke-linecap:round;stroke-linejoin:round;stroke-miterlimit:1.5;" version="1.1" xmlns="http://www.w3.org/2000/svg" xmlns:xlink="http://www.w3.org/1999/xlink"><style id="fontImports">@import url("https://fonts.googleapis.com/css2?family=Roboto:wght@400;700&amp;display=block");</style><g id="items" style="isolation: isolate"><g id="blend" style="mix-blend-mode: normal"><g id="g-root-1.cu_sy_v48bgt33h5oq-fill" data-item-order="-239068" transform="translate(15, 21)"><g id="1.cu_sy_v48bgt33h5oq-fill" stroke="none" fill="url(#gradient-76aaff-163240667)"><g><path d="M 10 106L 10 10L 226 10L 178 34L 178 106L 10 106Z"></path></g></g></g><g id="g-root-2.cu_sy_qoetcd33h6gz-fill" data-item-order="-239064" transform="translate(183.00009155273438, 21)"><g id="2.cu_sy_qoetcd33h6gz-fill" stroke="none" fill="url(#gradient-4dd3ff-378786070)"><g><path d="M 10 130L 10 34L 226 34L 178 58L 178 130L 10 130ZM 58 10L 58 34L 10 34L 58 10Z"></path></g></g></g><g id="g-root-3.cu_sy_qoetcd33h6h0-fill" data-item-order="-239060" transform="translate(351.0000915527344, 45)"><g id="3.cu_sy_qoetcd33h6h0-fill" stroke="none" fill="url(#gradient-64edab-240055791)"><g><path d="M 10 130L 10 34L 226 34L 178 58L 178 130L 10 130ZM 58.000022 10L 58.000022 34L 10.000122 34L 58.000022 10Z"></path></g></g></g><g id="g-root-4.cu_sy_qoetcd33h6h1-fill" data-item-order="-239056" transform="translate(519.0001220703125, 69)"><g id="4.cu_sy_qoetcd33h6h1-fill" stroke="none" fill="url(#gradient-bceb57-497517668)"><g><path d="M 10 34L 10 130L 178 130L 178 58L 226 34L 10 34ZM 57.9999 10L 57.9999 34L 10 34L 57.9999 10Z"></path></g></g></g><g id="g-root-5.cu_sy_hsrt3h33h79q-fill" data-item-order="-239052" transform="translate(687, 93)"><g id="5.cu_sy_hsrt3h33h79q-fill" stroke="none" fill="url(#gradient-ffed4b-499785973)"><g><path d="M 10.000122 130L 10.000122 34L 226.000122 34L 178.000122 58L 178.000122 130L 10.000122 130ZM 58.0001 10L 58.0001 34L 10 34L 58.0001 10Z"></path></g></g></g><g id="g-root-6.cu_sy_hsrt3h33h79r-fill" data-item-order="-239048" transform="translate(855, 117)"><defs><linearGradient id="gradient-76aaff-163240667" x2="0" y2="1"><stop offset="0" stop-color="#9cc2ff"></stop><stop offset="1" stop-color="#4f92ff"></stop></linearGradient><linearGradient id="gradient-4dd3ff-378786070" x2="0" y2="1"><stop offset="0" stop-color="#7fdfff"></stop><stop offset="1" stop-color="#1ac6ff"></stop></linearGradient><linearGradient id="gradient-64edab-240055791" x2="0" y2="1"><stop offset="0" stop-color="#83fac1"></stop><stop offset="1" stop-color="#44e095"></stop></linearGradient><linearGradient id="gradient-bceb57-497517668" x2="0" y2="1"><stop offset="0" stop-color="#cff976"></stop><stop offset="1" stop-color="#a8dd38"></stop></linearGradient><linearGradient id="gradient-ffed4b-499785973" x2="0" y2="1"><stop offset="0" stop-color="#fff282"></stop><stop offset="1" stop-color="#ffe714"></stop></linearGradient><linearGradient id="gradient-fdac61-172712277" x2="0" y2="1"><stop offset="0" stop-color="#ffc188"></stop><stop offset="1" stop-color="#fa963a"></stop></linearGradient></defs><g id="6.cu_sy_hsrt3h33h79r-fill" stroke="none" fill="url(#gradient-fdac61-172712277)"><g><path d="M 10 130L 10 34L 166 34L 166 22L 214 82L 166 143L 166 130L 10 130ZM 58 10L 58 34L 10 34L 58 10Z"></path></g></g></g><g id="g-root-tx_2012netw_ddks2533h4w9-fill" data-item-order="0" transform="translate(39, 21)"><g id="tx_2012netw_ddks2533h4w9-fill" stroke="none" fill="#484848"><g><text style="font: 20px Roboto, sans-serif; white-space: pre;" font-size="20px" font-family="Roboto, sans-serif"><tspan x="37.52" y="33.5" dominant-baseline="ideographic">2012年</tspan><tspan x="27.58" y="57.5" dominant-baseline="ideographic"> Software </tspan><tspan x="27.1" y="81.5" dominant-baseline="ideographic">Engineer/</tspan><tspan x="14.18" y="105.5" dominant-baseline="ideographic">SONYに入社</tspan></text></g></g></g><g id="g-root-tx_2015infr_249ot33h6h7-fill" data-item-order="0" transform="translate(201, 69)"><g id="tx_2015infr_249ot33h6h7-fill" stroke="none" fill="#484848"><g><text style="font: 20px Roboto, sans-serif; white-space: pre;" font-size="20px" font-family="Roboto, sans-serif"><tspan x="43.52" y="33.5" dominant-baseline="ideographic">2015年</tspan><tspan x="14.4" y="57.5" dominant-baseline="ideographic">Infra Engineer</tspan></text></g></g></g><g id="g-root-tx_20184sre_249ot33h6h9-fill" data-item-order="0" transform="translate(375, 93)"><g id="tx_20184sre_249ot33h6h9-fill" stroke="none" fill="#484848"><g><text style="font: 20px Roboto, sans-serif; white-space: pre;" font-size="20px" font-family="Roboto, sans-serif"><tspan x="21.9" y="33.5" dominant-baseline="ideographic">2018年4月</tspan><tspan x="14.95" y="57.5" dominant-baseline="ideographic">SRE/Merpay</tspan></text></g></g></g><g id="g-root-tx_201810sr_1unetjh33h72f-fill" data-item-order="0" transform="translate(543, 117)"><g id="tx_201810sr_1unetjh33h72f-fill" stroke="none" fill="#484848"><g><text style="font: 20px Roboto, sans-serif; white-space: pre;" font-size="20px" font-family="Roboto, sans-serif"><tspan x="16.28" y="33.5" dominant-baseline="ideographic">2018年10月</tspan><tspan x="35.32" y="57.5" dominant-baseline="ideographic">SRE EM</tspan></text></g></g></g><g id="g-root-tx__8xr9xp33h5oi-fill" data-item-order="0" transform="translate(27, 141)"><g id="tx__8xr9xp33h5oi-fill" stroke="none" fill="#484848"><g><text style="font: 20px Roboto, sans-serif; white-space: pre;" font-size="20px" font-family="Roboto, sans-serif"><tspan x="12" y="33.5" dominant-baseline="ideographic">最初はネットワ</tspan><tspan x="12" y="57.5" dominant-baseline="ideographic">ークソフトウェ</tspan><tspan x="12" y="81.5" dominant-baseline="ideographic">アエンジニア</tspan></text></g></g></g><g id="g-root-tx_20237sre_1q87si533h4ox-fill" data-item-order="0" transform="translate(717, 141)"><g id="tx_20237sre_1q87si533h4ox-fill" stroke="none" fill="#484848"><g><text style="font: 20px Roboto, sans-serif; white-space: pre;" font-size="20px" font-family="Roboto, sans-serif"><tspan x="15.9" y="33.5" dominant-baseline="ideographic">2023年7月</tspan><tspan x="34.51" y="57.5" dominant-baseline="ideographic">SRE IC</tspan></text></g></g></g><g id="g-root-tx__249ot33h6h8-fill" data-item-order="0" transform="translate(195, 165)"><g id="tx__249ot33h6h8-fill" stroke="none" fill="#484848"><g><text style="font: 20px Roboto, sans-serif; white-space: pre;" font-size="20px" font-family="Roboto, sans-serif"><tspan x="12" y="33.5" dominant-baseline="ideographic">インフラエンジ</tspan><tspan x="12" y="57.5" dominant-baseline="ideographic">ニア兼</tspan><tspan x="12" y="81.5" dominant-baseline="ideographic">Tech Lead</tspan></text></g></g></g><g id="g-root-tx_202312pr_1hcks9933h5hn-fill" data-item-order="0" transform="translate(879, 153)"><g id="tx_202312pr_1hcks9933h5hn-fill" stroke="none" fill="#484848"><g><text style="font: 20px Roboto, sans-serif; white-space: pre;" font-size="20px" font-family="Roboto, sans-serif"><tspan x="16.28" y="33.5" dominant-baseline="ideographic">2023年12月</tspan><tspan x="31.2" y="57.5" dominant-baseline="ideographic">Principal </tspan><tspan x="31.23" y="81.5" dominant-baseline="ideographic">Engineer</tspan></text></g></g></g><g id="g-root-tx__1unetjh33h72e-fill" data-item-order="0" transform="translate(363, 189)"><g id="tx__1unetjh33h72e-fill" stroke="none" fill="#484848"><g><text style="font: 20px Roboto, sans-serif; white-space: pre;" font-size="20px" font-family="Roboto, sans-serif"><tspan x="12" y="33.5" dominant-baseline="ideographic">Merpay1人目の</tspan><tspan x="12" y="57.5" dominant-baseline="ideographic">SREとして入社</tspan></text></g></g></g><g id="g-root-tx__1q87si533h4ow-fill" data-item-order="0" transform="translate(531, 213)"><g id="tx__1q87si533h4ow-fill" stroke="none" fill="#484848"><g><text style="font: 20px Roboto, sans-serif; white-space: pre;" font-size="20px" font-family="Roboto, sans-serif"><tspan x="12" y="33.5" dominant-baseline="ideographic">SREの</tspan><tspan x="12" y="57.5" dominant-baseline="ideographic">Engineering </tspan><tspan x="12" y="81.5" dominant-baseline="ideographic">Managerも担当</tspan></text></g></g></g><g id="g-root-tx__1q87si533h4oy-fill" data-item-order="0" transform="translate(699, 237)"><g id="tx__1q87si533h4oy-fill" stroke="none" fill="#484848"><g><text style="font: 20px Roboto, sans-serif; white-space: pre;" font-size="20px" font-family="Roboto, sans-serif"><tspan x="12" y="33.5" dominant-baseline="ideographic">Engineering </tspan><tspan x="12" y="57.5" dominant-baseline="ideographic">Managerをやめ</tspan><tspan x="12" y="81.5" dominant-baseline="ideographic">てICに戻る</tspan></text></g></g></g><g id="g-root-tx__1cwra4t33h69w-fill" data-item-order="0" transform="translate(867, 261)"><g id="tx__1cwra4t33h69w-fill" stroke="none" fill="#484848"><g><text style="font: 20px Roboto, sans-serif; white-space: pre;" font-size="20px" font-family="Roboto, sans-serif"><tspan x="12" y="33.5" dominant-baseline="ideographic">Principal </tspan><tspan x="12" y="57.5" dominant-baseline="ideographic">Engineerに選ば</tspan><tspan x="12" y="81.5" dominant-baseline="ideographic">れる</tspan></text></g></g></g><g id="g-root-1.cu_sy_v48bgt33h5oq-stroke" data-item-order="-239068" transform="translate(15, 21)"><g id="1.cu_sy_v48bgt33h5oq-stroke" fill="none" stroke-linecap="round" stroke-linejoin="round" stroke-miterlimit="4" stroke="#484848" stroke-width="2"><g><path d="M 10 106L 10 10L 226 10L 178 34L 178 106L 10 106Z"></path></g></g></g><g id="g-root-2.cu_sy_qoetcd33h6gz-stroke" data-item-order="-239064" transform="translate(183.00009155273438, 21)"><g id="2.cu_sy_qoetcd33h6gz-stroke" fill="none" stroke-linecap="round" stroke-linejoin="round" stroke-miterlimit="4" stroke="#484848" stroke-width="2"><g><path d="M 10 130L 10 34L 226 34L 178 58L 178 130L 10 130ZM 58 10L 58 34L 10 34L 58 10Z"></path></g></g></g><g id="g-root-3.cu_sy_qoetcd33h6h0-stroke" data-item-order="-239060" transform="translate(351.0000915527344, 45)"><g id="3.cu_sy_qoetcd33h6h0-stroke" fill="none" stroke-linecap="round" stroke-linejoin="round" stroke-miterlimit="4" stroke="#484848" stroke-width="2"><g><path d="M 10 130L 10 34L 226 34L 178 58L 178 130L 10 130ZM 58.000022 10L 58.000022 34L 10.000122 34L 58.000022 10Z"></path></g></g></g><g id="g-root-4.cu_sy_qoetcd33h6h1-stroke" data-item-order="-239056" transform="translate(519.0001220703125, 69)"><g id="4.cu_sy_qoetcd33h6h1-stroke" fill="none" stroke-linecap="round" stroke-linejoin="round" stroke-miterlimit="4" stroke="#484848" stroke-width="2"><g><path d="M 10 34L 10 130L 178 130L 178 58L 226 34L 10 34ZM 57.9999 10L 57.9999 34L 10 34L 57.9999 10Z"></path></g></g></g><g id="g-root-5.cu_sy_hsrt3h33h79q-stroke" data-item-order="-239052" transform="translate(687, 93)"><g id="5.cu_sy_hsrt3h33h79q-stroke" fill="none" stroke-linecap="round" stroke-linejoin="round" stroke-miterlimit="4" stroke="#484848" stroke-width="2"><g><path d="M 10.000122 130L 10.000122 34L 226.000122 34L 178.000122 58L 178.000122 130L 10.000122 130ZM 58.0001 10L 58.0001 34L 10 34L 58.0001 10Z"></path></g></g></g><g id="g-root-6.cu_sy_hsrt3h33h79r-stroke" data-item-order="-239048" transform="translate(855, 117)"><g id="6.cu_sy_hsrt3h33h79r-stroke" fill="none" stroke-linecap="round" stroke-linejoin="round" stroke-miterlimit="4" stroke="#484848" stroke-width="2"><g><path d="M 10 130L 10 34L 166 34L 166 22L 214 82L 166 143L 166 130L 10 130ZM 58 10L 58 34L 10 34L 58 10Z"></path></g></g></g><g id="g-root-tx_2012netw_ddks2533h4w9-stroke" data-item-order="0" transform="translate(39, 21)"></g><g id="g-root-tx_2015infr_249ot33h6h7-stroke" data-item-order="0" transform="translate(201, 69)"></g><g id="g-root-tx_20184sre_249ot33h6h9-stroke" data-item-order="0" transform="translate(375, 93)"></g><g id="g-root-tx_201810sr_1unetjh33h72f-stroke" data-item-order="0" transform="translate(543, 117)"></g><g id="g-root-tx__8xr9xp33h5oi-stroke" data-item-order="0" transform="translate(27, 141)"></g><g id="g-root-tx_20237sre_1q87si533h4ox-stroke" data-item-order="0" transform="translate(717, 141)"></g><g id="g-root-tx__249ot33h6h8-stroke" data-item-order="0" transform="translate(195, 165)"></g><g id="g-root-tx_202312pr_1hcks9933h5hn-stroke" data-item-order="0" transform="translate(879, 153)"></g><g id="g-root-tx__1unetjh33h72e-stroke" data-item-order="0" transform="translate(363, 189)"></g><g id="g-root-tx__1q87si533h4ow-stroke" data-item-order="0" transform="translate(531, 213)"></g><g id="g-root-tx__1q87si533h4oy-stroke" data-item-order="0" transform="translate(699, 237)"></g><g id="g-root-tx__1cwra4t33h69w-stroke" data-item-order="0" transform="translate(867, 261)"></g></g></g></svg>