<?xml version="1.0" encoding="utf-8" standalone="yes"?>
<!DOCTYPE svg PUBLIC "-//W3C//DTD SVG 1.1//EN" "http://www.w3.org/Graphics/SVG/1.1/DTD/svg11.dtd">
<svg width="544" height="335" viewBox="0 0 544 335" style="fill:none;stroke:none;fill-rule:evenodd;clip-rule:evenodd;stroke-linecap:round;stroke-linejoin:round;stroke-miterlimit:1.5;" version="1.1" xmlns="http://www.w3.org/2000/svg" xmlns:xlink="http://www.w3.org/1999/xlink"><style id="fontImports">@import url("https://fonts.googleapis.com/css2?family=Roboto:wght@400;700&amp;display=block");</style><g id="items" style="isolation: isolate"><g id="blend" style="mix-blend-mode: normal"><g id="g-root-3.cu_sy_mdm2qez07vgn-fill" data-item-order="-127659" transform="translate(258.0224609375, 15.8193359375)"><g id="3.cu_sy_mdm2qez07vgn-fill" stroke="none" fill="#c8ffe5"><g><path d="M 56.843231 8.352249L 45.073566 12.824707L 49.192951 36.364033L 65.199699 30.361515ZM 49.192951 36.364033L 142.290985 38.129482L 138.877792 14.47247L 45.073566 12.824707ZM 138.877792 14.47247L 34.127796 47.427528L 40.012627 70.260666L 142.290985 38.129482ZM 40.012627 70.260666L 171.597443 44.367409L 164.653351 21.769657L 34.127796 47.427528ZM 164.653351 21.769657L 47.662907 70.613762L 54.371632 93.329216L 171.597443 44.367409ZM 54.371632 93.329216L 197.373032 68.966011L 191.252792 46.132858L 47.662907 70.613762ZM 191.252792 46.132858L 60.13876 94.623863L 66.141296 117.457024L 197.373032 68.966011ZM 66.141296 117.457024L 218.676102 92.97612L 212.79126 70.142982L 60.13876 94.623863ZM 212.79126 70.142982L 66.847443 123.694946L 73.320763 146.410385L 218.676102 92.97612ZM 73.320763 146.410385L 231.740463 114.632294L 225.620224 91.799156L 66.847443 123.694946ZM 225.620224 91.799156L 67.906746 144.762634L 73.909241 167.595779L 231.740463 114.632294ZM 73.909241 167.595779L 238.802261 136.406174L 232.917435 113.573029L 67.906746 144.762634ZM 232.917435 113.573029L 64.611214 168.655045L 69.907562 191.605881L 238.802261 136.406174ZM 69.907562 191.605881L 238.684525 167.360397L 233.270508 144.409546L 64.611214 168.655045ZM 233.270508 144.409546L 56.137081 202.43399L 62.257282 225.26712L 238.684525 167.360397ZM 62.257282 225.26712L 228.444901 190.899734L 222.207001 168.184265L 56.137081 202.43399ZM 222.207001 168.184265L 29.066854 235.624451L 34.951687 258.457581L 228.444901 190.899734ZM 34.951687 258.457581L 224.207855 227.856461L 218.558426 204.905624L 29.066854 235.624451ZM 218.558426 204.905624L 36.364025 265.048615L 41.778076 287.999451L 224.207855 227.856461ZM 41.778076 287.999451L 187.251114 266.931732L 182.19014 243.86322L 36.364025 265.048615ZM 182.19014 243.86322L 81.441856 273.99353L 88.150543 296.591278L 187.251114 266.931732Z" fill-rule="nonzero"></path></g></g></g><g id="g-root-1.cu_sy_mdm2qez07vgo-fill" data-item-order="-127655" transform="translate(32.044921875, 15.8193359375)"><g id="1.cu_sy_mdm2qez07vgo-fill" stroke="none" fill="#dce9ff"><g><path d="M 83.913483 276.935944L 124.518822 292.236511L 134.640717 270.933441L 92.152245 254.926697ZM 134.640717 270.933441L 39.777245 215.027542L 29.773031 236.448303L 124.518822 292.236511ZM 29.773031 236.448303L 188.192688 292.001129L 197.490707 270.227264L 39.777245 215.027542ZM 197.490707 270.227264L 22.005047 181.837082L 13.060113 203.610947L 188.192688 292.001129ZM 13.060113 203.610947L 214.439056 269.403351L 223.148605 247.51178L 22.005047 181.837082ZM 223.148605 247.51178L 16.944088 150.765167L 7.881451 172.539047L 214.439056 269.403351ZM 7.881451 172.539047L 192.076691 239.037643L 201.610092 217.499146L 16.944088 150.765167ZM 201.610092 217.499146L 22.711233 124.401115L 13.413189 146.174988L 192.076691 239.037643ZM 13.413189 146.174988L 178.776962 201.610092L 187.721909 179.718552L 22.711233 124.401115ZM 187.721909 179.718552L 25.300556 100.155624L 15.767121 121.694092L 178.776962 201.610092ZM 15.767121 121.694092L 170.420486 182.778641L 180.542404 161.475571L 25.300556 100.155624ZM 180.542404 161.475571L 30.832294 78.028648L 21.769657 99.802528L 170.420486 182.778641ZM 21.769657 99.802528L 179.365433 144.998032L 187.604202 122.871056L 30.832294 78.028648ZM 187.604202 122.871056L 45.662075 57.19635L 36.834827 78.97023L 179.365433 144.998032ZM 36.834827 78.97023L 181.601669 129.579773L 192.076691 108.27668L 45.662075 57.19635ZM 192.076691 108.27668L 70.731461 30.008423L 60.256451 51.31152L 181.601669 129.579773ZM 60.256451 51.31152L 189.48735 98.507858L 199.726974 77.204781L 70.731461 30.008423ZM 199.726974 77.204781L 102.156456 17.532572L 92.152245 38.953373L 189.48735 98.507858ZM 92.152245 38.953373L 197.490707 74.61544L 207.965744 53.312359L 102.156456 17.532572ZM 207.965744 53.312359L 144.174149 10.235384L 134.640717 32.244652L 197.490707 74.61544ZM 134.640717 32.244652L 225.855606 53.665451L 231.269653 30.714609L 144.174149 10.235384Z" fill-rule="nonzero"></path></g></g></g><g id="g-root-2.cu_sy_mdm2qez07vgp-fill" data-item-order="-127651" transform="translate(201.528076171875, 44.06640625)"><g id="2.cu_sy_mdm2qez07vgp-fill" stroke="none" fill="#d1f4ff"><g><path d="M 63.43425 241.744644L 71.790718 240.2146L 78.499443 215.027527L 59.079498 218.676102ZM 78.499443 215.027527L 46.015163 187.015717L 36.717136 210.084259L 71.790718 240.2146ZM 36.717136 210.084259L 93.446892 213.026672L 98.037056 189.722763L 46.015163 187.015717ZM 98.037056 189.722763L 24.947475 164.06488L 21.298872 187.8396L 93.446892 213.026672ZM 21.298872 187.8396L 113.455322 184.426407L 116.162361 160.769379L 24.947475 164.06488ZM 116.162361 160.769379L 14.59015 133.463745L 11.059251 156.885376L 113.455322 184.426407ZM 11.059251 156.885376L 113.926102 160.887085L 117.10392 137.465424L 14.59015 133.463745ZM 117.10392 137.465424L 12.353921 112.98455L 10.235395 136.641571L 113.926102 160.887085ZM 10.235395 136.641571L 123.694939 130.992111L 125.107277 107.335106L 12.353921 112.98455ZM 125.107277 107.335106L 15.414041 88.503647L 14.354777 112.278358L 123.694939 130.992111ZM 14.354777 112.278358L 117.927811 104.039597L 119.810928 80.264885L 15.414041 88.503647ZM 119.810928 80.264885L 25.77133 57.549431L 22.946617 81.088753L 117.927811 104.039597ZM 22.946617 81.088753L 106.275818 80.73568L 109.100563 57.196358L 25.77133 57.549431ZM 109.100563 57.196358L 34.363205 38.011806L 31.42079 61.551128L 106.275818 80.73568ZM 31.42079 61.551128L 88.974434 61.551128L 97.683975 38.12949L 34.363205 38.011806ZM 97.683975 38.12949L 68.848305 13.295515L 60.13876 36.834839L 88.974434 61.551128ZM 60.13876 36.834839L 75.910103 36.952526L 76.145508 13.4132L 68.848305 13.295515Z" fill-rule="nonzero"></path></g></g></g><g id="g-root-tx__hxsklyz07w8z-fill" data-item-order="0" transform="translate(70, 135.94921875)"><g id="tx__hxsklyz07w8z-fill" stroke="none" fill="#484848"><g><text style="font: bold 20px Roboto, sans-serif; white-space: pre;" font-weight="bold" font-size="20px" font-family="Roboto, sans-serif"><tspan x="24" y="33.5" dominant-baseline="ideographic">スタッフ</tspan><tspan x="14.4" y="57.5" dominant-baseline="ideographic">エンジニア</tspan></text></g></g></g><g id="g-root-tx__mdm2qez07vgq-fill" data-item-order="0" transform="translate(317.44696044921875, 136.9287109375)"><g id="tx__mdm2qez07vgq-fill" stroke="none" fill="#484848"><g><text style="font: bold 20px Roboto, sans-serif; white-space: pre;" font-weight="bold" font-size="20px" font-family="Roboto, sans-serif"><tspan x="14.4" y="33.5" dominant-baseline="ideographic">エンジニアリング</tspan><tspan x="34" y="57.5" dominant-baseline="ideographic">マネージャー</tspan></text></g></g></g><g id="g-root-3.cu_sy_mdm2qez07vgn-stroke" data-item-order="-127659" transform="translate(258.0224609375, 15.8193359375)"><g id="3.cu_sy_mdm2qez07vgn-stroke" fill="none" stroke-linecap="round" stroke-linejoin="round" stroke-miterlimit="4" stroke="#484848" stroke-width="4"><g><path d="M 9.999987 264.224731C 28.596039 250.218826 41.895779 230.798889 53.547741 210.437347C 63.316547 193.135956 64.611214 172.303635 66.49437 151.235947C 68.495224 128.28511 60.609539 106.628937 51.193806 87.208992C 41.660374 67.671341 27.065998 51.31152 9.999987 38.247185C 34.127796 21.181175 62.96347 8.587639 94.741562 9.999994C 130.168259 11.530054 161.710938 24.12359 187.36882 44.602798C 218.205353 69.319092 236.919083 108.747459 235.977524 151.235947C 235.389038 175.834534 228.32724 198.314606 218.558426 219.146927C 207.965729 241.980057 189.251938 260.811523 167.124985 272.581177C 145.233414 284.115448 121.105598 291.412659 94.741562 292.471924C 62.96347 293.766571 32.71542 283.056183 9.999987 264.224731"></path><path d="M 9.999987 264.235321C 44.305027 238.467987 66.49437 197.443665 66.49437 151.235947C 66.49437 105.028259 44.305027 64.003922 9.999987 38.236591C 33.605221 20.506775 62.945797 9.999994 94.741562 9.999994C 172.743805 9.999994 235.977524 73.233681 235.977524 151.235947C 235.977524 229.238205 172.743805 292.471924 94.741562 292.471924C 62.945797 292.471924 33.605221 281.965118 9.999987 264.235321Z"></path></g></g></g><g id="g-root-1.cu_sy_mdm2qez07vgo-stroke" data-item-order="-127655" transform="translate(32.044921875, 15.8193359375)"><g id="1.cu_sy_mdm2qez07vgo-stroke" fill="none" stroke-linecap="round" stroke-linejoin="round" stroke-miterlimit="4" stroke="#484848" stroke-width="4"><g><path d="M 235.977524 38.247185C 221.147736 50.723038 205.376404 63.669666 197.843826 81.559547C 188.663467 103.333427 177.835403 125.931175 179.483139 151.235947C 182.425552 197.373047 200.550827 239.979202 235.977524 264.224731C 223.383972 274.464325 208.67189 282.703094 192.54747 286.351685C 179.247742 289.294098 165.594955 292.707306 151.235947 292.471924C 131.462936 292.236511 113.455322 286.351685 95.683144 281.173035C 79.558708 276.347443 66.023598 265.401672 54.13623 253.867432C 40.836506 240.803101 30.126125 225.384827 22.005047 208.436523C 13.766282 191.135101 11.883147 171.479782 9.999994 151.235947C 7.646061 126.166565 17.061792 102.627243 28.125267 81.912643C 39.541855 60.727249 57.314037 43.896629 77.44017 30.832294C 98.507858 17.061792 124.283432 7.881452 151.235947 9.999994C 167.713486 11.294665 183.602524 12.589317 198.314606 18.003368C 211.849716 23.064327 225.502533 28.596066 235.977524 38.247185"></path><path d="M 235.977524 38.236591C 201.672485 64.003922 179.483139 105.028259 179.483139 151.235947C 179.483139 197.443665 201.672485 238.467987 235.977524 264.235321C 212.372284 281.965118 183.031708 292.471924 151.235947 292.471924C 73.233681 292.471924 9.999994 229.238205 9.999994 151.235947C 9.999994 73.233681 73.233681 9.999994 151.235947 9.999994C 183.031708 9.999994 212.372284 20.506775 235.977524 38.236591Z"></path></g></g></g><g id="g-root-2.cu_sy_mdm2qez07vgp-stroke" data-item-order="-127651" transform="translate(201.528076171875, 44.06640625)"><g id="2.cu_sy_mdm2qez07vgp-stroke" fill="none" stroke-linecap="round" stroke-linejoin="round" stroke-miterlimit="4" stroke="#484848" stroke-width="4"><g><path d="M 66.49437 235.977509C 77.793251 227.150269 88.032837 216.910645 96.507011 205.376389C 104.628075 194.195221 110.395203 181.601669 115.456177 168.537369C 120.9879 154.413773 124.401131 138.877808 122.988754 122.988762C 120.870232 98.625565 116.750847 75.557022 105.805038 55.548595C 96.153938 37.65871 81.677231 23.299726 66.49437 10.000006C 50.369919 22.475855 38.482586 38.953381 26.948296 55.901688C 14.11937 74.61544 9.999989 98.743248 9.999989 122.988762C 9.999989 144.880341 17.061787 164.771057 23.888176 184.073303C 31.42079 205.611801 47.898319 223.14859 66.49437 235.977509"></path><path d="M 66.49437 235.998703C 100.799408 210.231384 122.988754 169.205872 122.988754 122.999359C 122.988754 76.791649 100.799408 35.767334 66.49437 10.000006C 32.189331 35.767334 9.999989 76.791649 9.999989 122.999359C 9.999989 169.205872 32.189331 210.231384 66.49437 235.998703Z"></path></g></g></g><g id="g-root-tx__hxsklyz07w8z-stroke" data-item-order="0" transform="translate(70, 135.94921875)"></g><g id="g-root-tx__mdm2qez07vgq-stroke" data-item-order="0" transform="translate(317.44696044921875, 136.9287109375)"></g></g></g></svg>