<?xml version="1.0" encoding="utf-8" standalone="yes"?>
<!DOCTYPE svg PUBLIC "-//W3C//DTD SVG 1.1//EN" "http://www.w3.org/Graphics/SVG/1.1/DTD/svg11.dtd">
<svg width="970" height="674" viewBox="0 0 970 674" style="fill:none;stroke:none;fill-rule:evenodd;clip-rule:evenodd;stroke-linecap:round;stroke-linejoin:round;stroke-miterlimit:1.5;" version="1.1" xmlns="http://www.w3.org/2000/svg" xmlns:xlink="http://www.w3.org/1999/xlink"><style id="fontImports">@import url("https://fonts.googleapis.com/css2?family=Roboto:wght@400;700&amp;display=block");</style><g id="items" style="isolation: isolate"><g id="blend" style="mix-blend-mode: normal"><g id="g-root-ro_qp1jxc97cf0v-fill" data-item-order="-33264" transform="translate(435, 228)"><g id="ro_qp1jxc97cf0v-fill" stroke="none" fill="#f5f5f5"><g><path d="M 34 10L 154 10C 154 10 178 10 178 34L 178 184C 178 184 178 208 154 208L 34 208C 34 208 10 208 10 184L 10 34C 10 34 10 10 34 10"></path></g></g></g><g id="g-root-ro_1qclgrk979o1v-fill" data-item-order="-20088" transform="translate(15, 339)"><g id="ro_1qclgrk979o1v-fill" stroke="none" fill="#f3f0ff"><g><path d="M 22 10L 370 10C 370 10 382 10 382 22L 382 52C 382 52 382 64 370 64L 22 64C 22 64 10 64 10 52L 10 22C 10 22 10 10 22 10"></path></g></g></g><g id="g-root-ro_1uoo4dc97cgsq-fill" data-item-order="-18144" transform="translate(161, 477)"><g id="ro_1uoo4dc97cgsq-fill" stroke="none" fill="#e3fff2"><g><path d="M 22 10L 286 10C 286 10 298 10 298 22L 298 61C 298 61 298 73 286 73L 22 73C 22 73 10 73 10 61L 10 22C 10 22 10 10 22 10"></path></g></g></g><g id="g-root-ro_1hgygio972kn8-fill" data-item-order="-15552" transform="translate(571, 489)"><g id="ro_1hgygio972kn8-fill" stroke="none" fill="#f4ffdc"><g><path d="M 22 10L 286 10C 286 10 298 10 298 22L 298 52C 298 52 298 64 286 64L 22 64C 22 64 10 64 10 52L 10 22C 10 22 10 10 22 10"></path></g></g></g><g id="g-root-ro_8wiof4976sqy-fill" data-item-order="-11016" transform="translate(575, 39)"><g id="ro_8wiof4976sqy-fill" stroke="none" fill="#e8f9ff"><g><path d="M 22 10L 202 10C 202 10 214 10 214 22L 214 52C 214 52 214 64 202 64L 22 64C 22 64 10 64 10 52L 10 22C 10 22 10 10 22 10"></path></g></g></g><g id="g-root-ro_detzq897goi4-fill" data-item-order="-10368" transform="translate(651, 189)"><g id="ro_detzq897goi4-fill" stroke="none" fill="#faf0ff"><g><path d="M 22 10L 190 10C 190 10 202 10 202 22L 202 52C 202 52 202 64 190 64L 22 64C 22 64 10 64 10 52L 10 22C 10 22 10 10 22 10"></path></g></g></g><g id="g-root-ro_90w00w9789hq-fill" data-item-order="-10368" transform="translate(195, 189)"><g id="ro_90w00w9789hq-fill" stroke="none" fill="#fff2e5"><g><path d="M 22 10L 190 10C 190 10 202 10 202 22L 202 52C 202 52 202 64 190 64L 22 64C 22 64 10 64 10 52L 10 22C 10 22 10 10 22 10"></path></g></g></g><g id="g-root-ro_1hgygio96vmkn-fill" data-item-order="-7776" transform="translate(651, 339)"><g id="ro_1hgygio96vmkn-fill" stroke="none" fill="#fffbda"><g><path d="M 22 10L 142 10C 142 10 154 10 154 22L 154 52C 154 52 154 64 142 64L 22 64C 22 64 10 64 10 52L 10 22C 10 22 10 10 22 10"></path></g></g></g><g id="g-root-ro_1448zz497dt6x-fill" data-item-order="-7128" transform="translate(335, 39)"><g id="ro_1448zz497dt6x-fill" stroke="none" fill="#faf0ff"><g><path d="M 22 10L 130 10C 130 10 142 10 142 22L 142 52C 142 52 142 64 130 64L 22 64C 22 64 10 64 10 52L 10 22C 10 22 10 10 22 10"></path></g></g></g><g id="g-root-tx__1lr5ov4976sjr-fill" data-item-order="0" transform="translate(293, 105)"><g id="tx__1lr5ov4976sjr-fill" stroke="none" fill="#484848"><g><text style="font: 20px Roboto, sans-serif; white-space: pre;" font-size="20px" font-family="Roboto, sans-serif"><tspan x="11.8" y="33.5" dominant-baseline="ideographic">データベース</tspan></text></g></g></g><g id="g-root-cu_924y7497dvkb-fill" data-item-order="0" transform="translate(414.5, 93)"></g><g id="g-root-cu_924y7497dvk8-fill" data-item-order="0" transform="translate(428, 93)"></g><g id="g-root-cu_dhygbk97dury-fill" data-item-order="0" transform="translate(595, 543)"></g><g id="g-root-cu_924y7497dvkd-fill" data-item-order="0" transform="translate(599, 93)"></g><g id="g-root-cu_dhygbk97dvk0-fill" data-item-order="0" transform="translate(599, 93)"></g><g id="g-root-tx__4hc6bl9gze33-fill" data-item-order="0" transform="translate(625.4298706054688, 103.89208984375)"><g id="tx__4hc6bl9gze33-fill" stroke="none" fill="#484848"><g><text style="font: 20px Roboto, sans-serif; white-space: pre;" font-size="20px" font-family="Roboto, sans-serif"><tspan x="14.4" y="33.5" dominant-baseline="ideographic">自動化ツール開発</tspan></text></g></g></g><g id="g-root-tx__1hbc6qo976tc0-fill" data-item-order="0" transform="translate(293, 141)"><g id="tx__1hbc6qo976tc0-fill" stroke="none" fill="#484848"><g><text style="font: 20px Roboto, sans-serif; white-space: pre;" font-size="20px" font-family="Roboto, sans-serif"><tspan x="14" y="33.5" dominant-baseline="ideographic">ストレージ</tspan></text></g></g></g><g id="g-root-tx__1hbc6qo976tc2-fill" data-item-order="0" transform="translate(629, 138.10595703125)"><g id="tx__1hbc6qo976tc2-fill" stroke="none" fill="#484848"><g><text style="font: 20px Roboto, sans-serif; white-space: pre;" font-size="20px" font-family="Roboto, sans-serif"><tspan x="12" y="33.5" dominant-baseline="ideographic">機能追加</tspan></text></g></g></g><g id="g-root-cu_dhygbk97durv-fill" data-item-order="0" transform="translate(595, 543)"></g><g id="g-root-cu_hxryg097dtzd-fill" data-item-order="0" transform="translate(344.272705078125, 393)"></g><g id="g-root-cu_zofhuo97dtz6-fill" data-item-order="0" transform="translate(387, 216)"></g><g id="g-root-cu_dhygbk97durq-fill" data-item-order="0" transform="translate(347, 540)"></g><g id="g-root-cu_dhygbk97durt-fill" data-item-order="0" transform="translate(337.5714111328125, 540)"></g><g id="g-root-cu_v8lzq897durz-fill" data-item-order="0" transform="translate(547, 66)"></g><g id="g-root-tx__1lr5ov4976sjp-fill" data-item-order="0" transform="translate(619, 555)"><g id="tx__1lr5ov4976sjp-fill" stroke="none" fill="#484848"><g><text style="font: 20px Roboto, sans-serif; white-space: pre;" font-size="20px" font-family="Roboto, sans-serif"><tspan x="14.7" y="33.5" dominant-baseline="ideographic">スケーラビリティ</tspan></text></g></g></g><g id="g-root-cu_zofhuo97dtz9-fill" data-item-order="0" transform="translate(603, 216)"></g><g id="g-root-cu_v8lzq897durw-fill" data-item-order="0" transform="translate(467, 66)"></g><g id="g-root-tx__4gp6ao976tj7-fill" data-item-order="0" transform="translate(204.42855834960938, 255)"><g id="tx__4gp6ao976tj7-fill" stroke="none" fill="#484848"><g><text style="font: 20px Roboto, sans-serif; white-space: pre;" font-size="20px" font-family="Roboto, sans-serif"><tspan x="12.62" y="33.5" dominant-baseline="ideographic">Network設計</tspan></text></g></g></g><g id="g-root-cu_mdlgkg97dt6t-fill" data-item-order="0" transform="translate(324.4285583496094, 243)"></g><g id="g-root-cu_qsshls97dvka-fill" data-item-order="0" transform="translate(331.0952453613281, 243)"></g><g id="g-root-tx__vo68976ubk-fill" data-item-order="0" transform="translate(707, 441)"><g id="tx__vo68976ubk-fill" stroke="none" fill="#484848"><g><text style="font: 20px Roboto, sans-serif; white-space: pre;" font-size="20px" font-family="Roboto, sans-serif"><tspan x="13.33" y="33.5" dominant-baseline="ideographic">IaC</tspan></text></g></g></g><g id="g-root-tx__1q6cpwg976ux6-fill" data-item-order="0" transform="translate(75, 441)"><g id="tx__1q6cpwg976ux6-fill" stroke="none" fill="#484848"><g><text style="font: 20px Roboto, sans-serif; white-space: pre;" font-size="20px" font-family="Roboto, sans-serif"><tspan x="12.4" y="33.5" dominant-baseline="ideographic">オーケストレーションツール</tspan></text></g></g></g><g id="g-root-cu_mdlgkg97dt6v-fill" data-item-order="0" transform="translate(675, 243)"></g><g id="g-root-cu_mdlgkg97dt6y-fill" data-item-order="0" transform="translate(675, 243)"></g><g id="g-root-tx__1lr5ov4976sjq-fill" data-item-order="0" transform="translate(623, 591)"><g id="tx__1lr5ov4976sjq-fill" stroke="none" fill="#484848"><g><text style="font: 20px Roboto, sans-serif; white-space: pre;" font-size="20px" font-family="Roboto, sans-serif"><tspan x="14" y="33.5" dominant-baseline="ideographic">耐障害設計</tspan></text></g></g></g><g id="g-root-tx__4gp6ao976tj9-fill" data-item-order="0" transform="translate(699, 255)"><g id="tx__4gp6ao976tj9-fill" stroke="none" fill="#484848"><g><text style="font: 20px Roboto, sans-serif; white-space: pre;" font-size="20px" font-family="Roboto, sans-serif"><tspan x="17.1" y="33.5" dominant-baseline="ideographic">システム保護</tspan></text></g></g></g><g id="g-root-tx__4gp6ao976tj8-fill" data-item-order="0" transform="translate(273, 291)"><g id="tx__4gp6ao976tj8-fill" stroke="none" fill="#484848"><g><text style="font: 20px Roboto, sans-serif; white-space: pre;" font-size="20px" font-family="Roboto, sans-serif"><tspan x="13.79" y="33.5" dominant-baseline="ideographic">CDN</tspan></text></g></g></g><g id="g-root-tx__1um680w976u4u-fill" data-item-order="0" transform="translate(699, 291)"><g id="tx__1um680w976u4u-fill" stroke="none" fill="#484848"><g><text style="font: 20px Roboto, sans-serif; white-space: pre;" font-size="20px" font-family="Roboto, sans-serif"><tspan x="14" y="33.5" dominant-baseline="ideographic">データ保護</tspan></text></g></g></g><g id="g-root-cu_v8lzq897durt-fill" data-item-order="0" transform="translate(547, 426)"></g><g id="g-root-cu_v8lzq897durq-fill" data-item-order="0" transform="translate(449, 426)"></g><g id="g-root-tx__1q6cpwg976ux8-fill" data-item-order="0" transform="translate(209, 591)"><g id="tx__1q6cpwg976ux8-fill" stroke="none" fill="#484848"><g><text style="font: 20px Roboto, sans-serif; white-space: pre;" font-size="20px" font-family="Roboto, sans-serif"><tspan x="12.44" y="33.5" dominant-baseline="ideographic">Observability</tspan></text></g></g></g><g id="g-root-tx__1um680w976u4v-fill" data-item-order="0" transform="translate(695, 405)"><g id="tx__1um680w976u4v-fill" stroke="none" fill="#484848"><g><text style="font: 20px Roboto, sans-serif; white-space: pre;" font-size="20px" font-family="Roboto, sans-serif"><tspan x="12" y="33.5" dominant-baseline="ideographic">クラウド</tspan></text></g></g></g><g id="g-root-tx__1q6cpwg976ux5-fill" data-item-order="0" transform="translate(269, 407.8935546875)"><g id="tx__1q6cpwg976ux5-fill" stroke="none" fill="#484848"><g><text style="font: 20px Roboto, sans-serif; white-space: pre;" font-size="20px" font-family="Roboto, sans-serif"><tspan x="14.84" y="33.5" dominant-baseline="ideographic">Docker</tspan></text></g></g></g><g id="g-root-cu_zofhuo97dtzf-fill" data-item-order="0" transform="translate(387, 360)"></g><g id="g-root-cu_hxryg097dtzb-fill" data-item-order="0" transform="translate(675, 393)"></g><g id="g-root-cu_mdlgkg97dt70-fill" data-item-order="0" transform="translate(675, 393)"></g><g id="g-root-cu_hxryg097dtzg-fill" data-item-order="0" transform="translate(345, 393)"></g><g id="g-root-cu_zofhuo97dtzc-fill" data-item-order="0" transform="translate(603, 360)"></g><g id="g-root-tx__1q6cpwg976ux7-fill" data-item-order="0" transform="translate(257, 555)"><g id="tx__1q6cpwg976ux7-fill" stroke="none" fill="#484848"><g><text style="font: 20px Roboto, sans-serif; white-space: pre;" font-size="20px" font-family="Roboto, sans-serif"><tspan x="15.95" y="33.5" dominant-baseline="ideographic">SLI/SLO</tspan></text></g></g></g><g id="g-root-tx__1lwryn496vlsd-fill" data-item-order="4000000000" transform="translate(699, 354)"><g id="tx__1lwryn496vlsd-fill" stroke="none" fill="#e0cb15"><g><text style="font: bold 20px Roboto, sans-serif; white-space: pre;" font-weight="bold" font-size="20px" font-family="Roboto, sans-serif"><tspan x="12" y="33.5" dominant-baseline="ideographic">クラウド</tspan></text></g></g></g><g id="g-root-serv_1hgygio96vmkm-fill" data-item-order="4000000000" transform="translate(663, 351)"></g><g id="g-root-expo_1qclgrk979o1u-fill" data-item-order="4000000000" transform="translate(345, 351)"></g><g id="g-root-tx__1useyw0979n9l-fill" data-item-order="4000000000" transform="translate(27, 354)"><g id="tx__1useyw0979n9l-fill" stroke="none" fill="#7f64ea"><g><text style="font: bold 20px Roboto, sans-serif; white-space: pre;" font-weight="bold" font-size="20px" font-family="Roboto, sans-serif"><tspan x="16" y="33.5" dominant-baseline="ideographic">コンテナとオーケストレーション</tspan></text></g></g></g><g id="g-root-tx_sre_zk233497chdx-fill" data-item-order="4000000000" transform="translate(465, 306)"><g id="tx_sre_zk233497chdx-fill" stroke="none" fill="#484848"><g><text style="font: bold 25px Roboto, sans-serif; white-space: pre;" font-weight="bold" font-size="25px" font-family="Roboto, sans-serif"><tspan x="28.77" y="42.5" dominant-baseline="ideographic">SREの</tspan><tspan x="14" y="72.5" dominant-baseline="ideographic">技術領域</tspan><tspan x="39" y="102.5" dominant-baseline="ideographic">の例</tspan></text></g></g></g><g id="g-root-1_qp1jxc97cf0u-fill" data-item-order="4000000000" transform="translate(495, 252)"></g><g id="g-root-tx_slislo_4j72n497cg74-fill" data-item-order="4000000000" transform="translate(173, 495)"><g id="tx_slislo_4j72n497cg74-fill" stroke="none" fill="#3cc583"><g><text style="font: bold 20px Roboto, sans-serif; white-space: pre;" font-weight="bold" font-size="20px" font-family="Roboto, sans-serif"><tspan x="14.4" y="33.5" dominant-baseline="ideographic">信頼性エンジニアリング</tspan></text></g></g></g><g id="g-root-scal_1uoo4dc97cgsp-fill" data-item-order="4000000000" transform="translate(407, 492)"></g><g id="g-root-expa_1hgygio972kn7-fill" data-item-order="4000000000" transform="translate(583, 501)"></g><g id="g-root-tx__1lw5hk0972n0q-fill" data-item-order="4000000000" transform="translate(619, 504)"><g id="tx__1lw5hk0972n0q-fill" stroke="none" fill="#92bd39"><g><text style="font: bold 20px Roboto, sans-serif; white-space: pre;" font-weight="bold" font-size="20px" font-family="Roboto, sans-serif"><tspan x="15.5" y="33.5" dominant-baseline="ideographic">システムアーキテクチャ</tspan></text></g></g></g><g id="g-root-tx__magzz497gnpe-fill" data-item-order="4000000000" transform="translate(699, 204)"><g id="tx__magzz497gnpe-fill" stroke="none" fill="#ba5de5"><g><text style="font: bold 20px Roboto, sans-serif; white-space: pre;" font-weight="bold" font-size="20px" font-family="Roboto, sans-serif"><tspan x="16.6" y="33.5" dominant-baseline="ideographic">セキュリティ</tspan></text></g></g></g><g id="g-root-chec_detzq897goi3-fill" data-item-order="4000000000" transform="translate(663, 201)"></g><g id="g-root-netw_90w00w9789hp-fill" data-item-order="4000000000" transform="translate(345, 201)"></g><g id="g-root-tx__hwj09s9788p0-fill" data-item-order="4000000000" transform="translate(207, 204)"><g id="tx__hwj09s9788p0-fill" stroke="none" fill="#de8431"><g><text style="font: bold 20px Roboto, sans-serif; white-space: pre;" font-weight="bold" font-size="20px" font-family="Roboto, sans-serif"><tspan x="16" y="33.5" dominant-baseline="ideographic">ネットワーク</tspan></text></g></g></g><g id="g-root-tx__hrj7kw976v40-fill" data-item-order="4000000000" transform="translate(629, 54)"><g id="tx__hrj7kw976v40-fill" stroke="none" fill="#1eabda"><g><text style="font: bold 20px Roboto, sans-serif; white-space: pre;" font-weight="bold" font-size="20px" font-family="Roboto, sans-serif"><tspan x="16.4" y="33.5" dominant-baseline="ideographic">コーディング</tspan></text></g></g></g><g id="g-root-1_8wiof4976sqx-fill" data-item-order="4000000000" transform="translate(593, 51)"></g><g id="g-root-bars_1448zz497dt6w-fill" data-item-order="4000000000" transform="translate(425, 51)"></g><g id="g-root-tx__18jg10g97dvkf-fill" data-item-order="4000000000" transform="translate(347, 54)"><g id="tx__18jg10g97dvkf-fill" stroke="none" fill="#ba5de5"><g><text style="font: bold 20px Roboto, sans-serif; white-space: pre;" font-weight="bold" font-size="20px" font-family="Roboto, sans-serif"><tspan x="16" y="33.5" dominant-baseline="ideographic">データ</tspan></text></g></g></g><g id="g-root-ro_qp1jxc97cf0v-stroke" data-item-order="-33264" transform="translate(435, 228)"><g id="ro_qp1jxc97cf0v-stroke" fill="none" stroke-linecap="round" stroke-linejoin="round" stroke-miterlimit="4" stroke="#484848" stroke-width="2"><g><path d="M 34 10L 154 10C 154 10 178 10 178 34L 178 184C 178 184 178 208 154 208L 34 208C 34 208 10 208 10 184L 10 34C 10 34 10 10 34 10"></path></g></g></g><g id="g-root-ro_1qclgrk979o1v-stroke" data-item-order="-20088" transform="translate(15, 339)"><g id="ro_1qclgrk979o1v-stroke" fill="none" stroke-linecap="round" stroke-linejoin="round" stroke-miterlimit="4" stroke="#7f64ea" stroke-width="2"><g><path d="M 22 10L 370 10C 370 10 382 10 382 22L 382 52C 382 52 382 64 370 64L 22 64C 22 64 10 64 10 52L 10 22C 10 22 10 10 22 10"></path></g></g></g><g id="g-root-ro_1uoo4dc97cgsq-stroke" data-item-order="-18144" transform="translate(161, 477)"><g id="ro_1uoo4dc97cgsq-stroke" fill="none" stroke-linecap="round" stroke-linejoin="round" stroke-miterlimit="4" stroke="#3cc583" stroke-width="2"><g><path d="M 22 10L 286 10C 286 10 298 10 298 22L 298 61C 298 61 298 73 286 73L 22 73C 22 73 10 73 10 61L 10 22C 10 22 10 10 22 10"></path></g></g></g><g id="g-root-ro_1hgygio972kn8-stroke" data-item-order="-15552" transform="translate(571, 489)"><g id="ro_1hgygio972kn8-stroke" fill="none" stroke-linecap="round" stroke-linejoin="round" stroke-miterlimit="4" stroke="#92bd39" stroke-width="2"><g><path d="M 22 10L 286 10C 286 10 298 10 298 22L 298 52C 298 52 298 64 286 64L 22 64C 22 64 10 64 10 52L 10 22C 10 22 10 10 22 10"></path></g></g></g><g id="g-root-ro_8wiof4976sqy-stroke" data-item-order="-11016" transform="translate(575, 39)"><g id="ro_8wiof4976sqy-stroke" fill="none" stroke-linecap="round" stroke-linejoin="round" stroke-miterlimit="4" stroke="#1eabda" stroke-width="2"><g><path d="M 22 10L 202 10C 202 10 214 10 214 22L 214 52C 214 52 214 64 202 64L 22 64C 22 64 10 64 10 52L 10 22C 10 22 10 10 22 10"></path></g></g></g><g id="g-root-ro_detzq897goi4-stroke" data-item-order="-10368" transform="translate(651, 189)"><g id="ro_detzq897goi4-stroke" fill="none" stroke-linecap="round" stroke-linejoin="round" stroke-miterlimit="4" stroke="#ba5de5" stroke-width="2"><g><path d="M 22 10L 190 10C 190 10 202 10 202 22L 202 52C 202 52 202 64 190 64L 22 64C 22 64 10 64 10 52L 10 22C 10 22 10 10 22 10"></path></g></g></g><g id="g-root-ro_90w00w9789hq-stroke" data-item-order="-10368" transform="translate(195, 189)"><g id="ro_90w00w9789hq-stroke" fill="none" stroke-linecap="round" stroke-linejoin="round" stroke-miterlimit="4" stroke="#de8431" stroke-width="2"><g><path d="M 22 10L 190 10C 190 10 202 10 202 22L 202 52C 202 52 202 64 190 64L 22 64C 22 64 10 64 10 52L 10 22C 10 22 10 10 22 10"></path></g></g></g><g id="g-root-ro_1hgygio96vmkn-stroke" data-item-order="-7776" transform="translate(651, 339)"><g id="ro_1hgygio96vmkn-stroke" fill="none" stroke-linecap="round" stroke-linejoin="round" stroke-miterlimit="4" stroke="#e0cb15" stroke-width="2"><g><path d="M 22 10L 142 10C 142 10 154 10 154 22L 154 52C 154 52 154 64 142 64L 22 64C 22 64 10 64 10 52L 10 22C 10 22 10 10 22 10"></path></g></g></g><g id="g-root-ro_1448zz497dt6x-stroke" data-item-order="-7128" transform="translate(335, 39)"><g id="ro_1448zz497dt6x-stroke" fill="none" stroke-linecap="round" stroke-linejoin="round" stroke-miterlimit="4" stroke="#ba5de5" stroke-width="2"><g><path d="M 22 10L 130 10C 130 10 142 10 142 22L 142 52C 142 52 142 64 130 64L 22 64C 22 64 10 64 10 52L 10 22C 10 22 10 10 22 10"></path></g></g></g><g id="g-root-tx__1lr5ov4976sjr-stroke" data-item-order="0" transform="translate(293, 105)"></g><g id="g-root-cu_924y7497dvkb-stroke" data-item-order="0" transform="translate(414.5, 93)"><g id="cu_924y7497dvkb-stroke" fill="none" stroke-linecap="round" stroke-linejoin="round" stroke-miterlimit="4" stroke="#969696" stroke-width="2" stroke-dasharray="5.0, 7.0"><g><path d="M 38.5 10L 38.5 17.5L 38.5 58C 38.499998 64.627418 33.127415 70.000001 26.499998 70L 26.4 70L 10 70"></path></g></g></g><g id="g-root-cu_924y7497dvk8-stroke" data-item-order="0" transform="translate(428, 93)"><g id="cu_924y7497dvk8-stroke" fill="none" stroke-linecap="round" stroke-linejoin="round" stroke-miterlimit="4" stroke="#969696" stroke-width="2" stroke-dasharray="5.0, 7.0"><g><path d="M 25 10L 25 22L 25 34L 17.5 34L 10 34"></path></g></g></g><g id="g-root-cu_dhygbk97dury-stroke" data-item-order="0" transform="translate(595, 543)"><g id="cu_dhygbk97dury-stroke" fill="none" stroke-linecap="round" stroke-linejoin="round" stroke-miterlimit="4" stroke="#969696" stroke-width="2" stroke-dasharray="5.0, 7.0"><g><path d="M 10 10L 10 17.5L 10 58C 10.000002 64.627417 15.372585 70 22.000002 69.999999L 22.1 70L 30.3 70"></path></g></g></g><g id="g-root-cu_924y7497dvkd-stroke" data-item-order="0" transform="translate(599, 93)"><g id="cu_924y7497dvkd-stroke" fill="none" stroke-linecap="round" stroke-linejoin="round" stroke-miterlimit="4" stroke="#969696" stroke-width="2" stroke-dasharray="5.0, 7.0"><g><path d="M 10 10L 10 22L 10 34L 22.2 34L 34.4 34"></path></g></g></g><g id="g-root-cu_dhygbk97dvk0-stroke" data-item-order="0" transform="translate(599, 93)"><g id="cu_dhygbk97dvk0-stroke" fill="none" stroke-linecap="round" stroke-linejoin="round" stroke-miterlimit="4" stroke="#969696" stroke-width="2" stroke-dasharray="5.0, 7.0"><g><path d="M 10 10L 10 17.1L 10 55.1C 10.000001 61.727416 15.372584 67.099999 22.000001 67.099998L 22.1 67.1L 33 67.1"></path></g></g></g><g id="g-root-tx__4hc6bl9gze33-stroke" data-item-order="0" transform="translate(625.4298706054688, 103.89208984375)"></g><g id="g-root-tx__1hbc6qo976tc0-stroke" data-item-order="0" transform="translate(293, 141)"></g><g id="g-root-tx__1hbc6qo976tc2-stroke" data-item-order="0" transform="translate(629, 138.10595703125)"></g><g id="g-root-cu_dhygbk97durv-stroke" data-item-order="0" transform="translate(595, 543)"><g id="cu_dhygbk97durv-stroke" fill="none" stroke-linecap="round" stroke-linejoin="round" stroke-miterlimit="4" stroke="#969696" stroke-width="2" stroke-dasharray="5.0, 7.0"><g><path d="M 10 10L 10 22L 10 34L 19 34L 28 34"></path></g></g></g><g id="g-root-cu_hxryg097dtzd-stroke" data-item-order="0" transform="translate(344.272705078125, 393)"><g id="cu_hxryg097dtzd-stroke" fill="none" stroke-linecap="round" stroke-linejoin="round" stroke-miterlimit="4" stroke="#969696" stroke-width="2" stroke-dasharray="5.0, 7.0"><g><path d="M 28.7 10L 28.7 23.4L 28.7 36.9L 19.4 36.9L 10 36.9"></path></g></g></g><g id="g-root-cu_zofhuo97dtz6-stroke" data-item-order="0" transform="translate(387, 216)"><g id="cu_zofhuo97dtz6-stroke" fill="none" stroke-linecap="round" stroke-linejoin="round" stroke-miterlimit="4" stroke="#969696" stroke-width="2" stroke-dasharray="5.0, 7.0"><g><path d="M 58 88L 55 88L 54.9 88C 43.357247 88.000005 33.999998 78.642755 33.999999 67.100003L 34 67L 34 30.9C 33.999998 19.357248 24.64275 10 13.1 10L 13 10L 10 10"></path></g></g></g><g id="g-root-cu_dhygbk97durq-stroke" data-item-order="0" transform="translate(347, 540)"><g id="cu_dhygbk97durq-stroke" fill="none" stroke-linecap="round" stroke-linejoin="round" stroke-miterlimit="4" stroke="#969696" stroke-width="2" stroke-dasharray="5.0, 7.0"><g><path d="M 64 10L 64 23.5L 64 37L 37 37L 10 37"></path></g></g></g><g id="g-root-cu_dhygbk97durt-stroke" data-item-order="0" transform="translate(337.5714111328125, 540)"><g id="cu_dhygbk97durt-stroke" fill="none" stroke-linecap="round" stroke-linejoin="round" stroke-miterlimit="4" stroke="#969696" stroke-width="2" stroke-dasharray="5.0, 7.0"><g><path d="M 73.4 10L 73.4 17.9L 73.4 61C 73.399997 67.627415 68.027415 72.999997 61.399998 72.999997L 61.3 73L 10 73"></path></g></g></g><g id="g-root-cu_v8lzq897durz-stroke" data-item-order="0" transform="translate(547, 66)"><g id="cu_v8lzq897durz-stroke" fill="none" stroke-linecap="round" stroke-linejoin="round" stroke-miterlimit="4" stroke="#969696" stroke-width="2" stroke-dasharray="5.0, 7.0"><g><path d="M 10 172L 10 151.8L 10 34C 10 20.745166 20.745166 10 33.999999 10L 34.1 10L 38 10"></path></g></g></g><g id="g-root-tx__1lr5ov4976sjp-stroke" data-item-order="0" transform="translate(619, 555)"></g><g id="g-root-cu_zofhuo97dtz9-stroke" data-item-order="0" transform="translate(603, 216)"><g id="cu_zofhuo97dtz9-stroke" fill="none" stroke-linecap="round" stroke-linejoin="round" stroke-miterlimit="4" stroke="#969696" stroke-width="2" stroke-dasharray="5.0, 7.0"><g><path d="M 10 88L 13 88L 13.1 88C 24.642753 88.000001 34.000002 78.642752 34.000002 67.100001L 34 67L 34 30.9C 33.999999 19.357249 43.357248 10.000001 54.899999 10.000002L 55 10L 58 10"></path></g></g></g><g id="g-root-cu_v8lzq897durw-stroke" data-item-order="0" transform="translate(467, 66)"><g id="cu_v8lzq897durw-stroke" fill="none" stroke-linecap="round" stroke-linejoin="round" stroke-miterlimit="4" stroke="#969696" stroke-width="2" stroke-dasharray="5.0, 7.0"><g><path d="M 34 172L 34 151.8L 34 30.9C 33.999998 19.357248 24.64275 10 13.1 10L 13 10L 10 10"></path></g></g></g><g id="g-root-tx__4gp6ao976tj7-stroke" data-item-order="0" transform="translate(204.42855834960938, 255)"></g><g id="g-root-cu_mdlgkg97dt6t-stroke" data-item-order="0" transform="translate(324.4285583496094, 243)"><g id="cu_mdlgkg97dt6t-stroke" fill="none" stroke-linecap="round" stroke-linejoin="round" stroke-miterlimit="4" stroke="#969696" stroke-width="2" stroke-dasharray="5.0, 7.0"><g><path d="M 48.6 10L 48.6 17.5L 48.6 58C 48.599999 64.62742 43.227416 70.000003 36.599999 70.000002L 36.5 70L 10 70"></path></g></g></g><g id="g-root-cu_qsshls97dvka-stroke" data-item-order="0" transform="translate(331.0952453613281, 243)"><g id="cu_qsshls97dvka-stroke" fill="none" stroke-linecap="round" stroke-linejoin="round" stroke-miterlimit="4" stroke="#969696" stroke-width="2" stroke-dasharray="5.0, 7.0"><g><path d="M 41.9 10L 41.9 22L 41.9 34L 26 34L 10 34"></path></g></g></g><g id="g-root-tx__vo68976ubk-stroke" data-item-order="0" transform="translate(707, 441)"></g><g id="g-root-tx__1q6cpwg976ux6-stroke" data-item-order="0" transform="translate(75, 441)"></g><g id="g-root-cu_mdlgkg97dt6v-stroke" data-item-order="0" transform="translate(675, 243)"><g id="cu_mdlgkg97dt6v-stroke" fill="none" stroke-linecap="round" stroke-linejoin="round" stroke-miterlimit="4" stroke="#969696" stroke-width="2" stroke-dasharray="5.0, 7.0"><g><path d="M 10 10L 10 22L 10 34L 19 34L 28 34"></path></g></g></g><g id="g-root-cu_mdlgkg97dt6y-stroke" data-item-order="0" transform="translate(675, 243)"><g id="cu_mdlgkg97dt6y-stroke" fill="none" stroke-linecap="round" stroke-linejoin="round" stroke-miterlimit="4" stroke="#969696" stroke-width="2" stroke-dasharray="5.0, 7.0"><g><path d="M 10 10L 10 17.5L 10 58C 10.000002 64.627417 15.372585 70 22.000002 69.999999L 22.1 70L 28 70"></path></g></g></g><g id="g-root-tx__1lr5ov4976sjq-stroke" data-item-order="0" transform="translate(623, 591)"></g><g id="g-root-tx__4gp6ao976tj9-stroke" data-item-order="0" transform="translate(699, 255)"></g><g id="g-root-tx__4gp6ao976tj8-stroke" data-item-order="0" transform="translate(273, 291)"></g><g id="g-root-tx__1um680w976u4u-stroke" data-item-order="0" transform="translate(699, 291)"></g><g id="g-root-cu_v8lzq897durt-stroke" data-item-order="0" transform="translate(547, 426)"><g id="cu_v8lzq897durt-stroke" fill="none" stroke-linecap="round" stroke-linejoin="round" stroke-miterlimit="4" stroke="#969696" stroke-width="2" stroke-dasharray="5.0, 7.0"><g><path d="M 10 10L 10 21.3L 10 79.1C 10 90.642752 19.357249 100 30.900001 100L 31 100L 34 100"></path></g></g></g><g id="g-root-cu_v8lzq897durq-stroke" data-item-order="0" transform="translate(449, 426)"><g id="cu_v8lzq897durq-stroke" fill="none" stroke-linecap="round" stroke-linejoin="round" stroke-miterlimit="4" stroke="#969696" stroke-width="2" stroke-dasharray="5.0, 7.0"><g><path d="M 52 10L 52 20.3L 52 68.5C 51.999998 81.754831 41.254833 92.499997 27.999999 92.499997L 27.9 92.5L 10 92.5"></path></g></g></g><g id="g-root-tx__1q6cpwg976ux8-stroke" data-item-order="0" transform="translate(209, 591)"></g><g id="g-root-tx__1um680w976u4v-stroke" data-item-order="0" transform="translate(695, 405)"></g><g id="g-root-tx__1q6cpwg976ux5-stroke" data-item-order="0" transform="translate(269, 407.8935546875)"></g><g id="g-root-cu_zofhuo97dtzf-stroke" data-item-order="0" transform="translate(387, 360)"><g id="cu_zofhuo97dtzf-stroke" fill="none" stroke-linecap="round" stroke-linejoin="round" stroke-miterlimit="4" stroke="#969696" stroke-width="2" stroke-dasharray="5.0, 7.0"><g><path d="M 58 10L 55 10L 54.9 10C 51.688705 10.016366 48.132487 10.28476 44.300001 10.799998C 42.131706 11.054283 38.50188 11.829586 33.999999 13C 29.498118 14.170414 25.868292 14.945717 23.699999 15.2C 19.867515 15.715237 16.311297 15.983631 13.1 16L 13 16L 10 16"></path></g></g></g><g id="g-root-cu_hxryg097dtzb-stroke" data-item-order="0" transform="translate(675, 393)"><g id="cu_hxryg097dtzb-stroke" fill="none" stroke-linecap="round" stroke-linejoin="round" stroke-miterlimit="4" stroke="#969696" stroke-width="2" stroke-dasharray="5.0, 7.0"><g><path d="M 10 10L 10 17.5L 10 58C 10.000002 64.627417 15.372585 70 22.000002 69.999999L 22.1 70L 40.5 70"></path></g></g></g><g id="g-root-cu_mdlgkg97dt70-stroke" data-item-order="0" transform="translate(675, 393)"><g id="cu_mdlgkg97dt70-stroke" fill="none" stroke-linecap="round" stroke-linejoin="round" stroke-miterlimit="4" stroke="#969696" stroke-width="2" stroke-dasharray="5.0, 7.0"><g><path d="M 10 10L 10 22L 10 34L 18.3 34L 26.5 34"></path></g></g></g><g id="g-root-cu_hxryg097dtzg-stroke" data-item-order="0" transform="translate(345, 393)"><g id="cu_hxryg097dtzg-stroke" fill="none" stroke-linecap="round" stroke-linejoin="round" stroke-miterlimit="4" stroke="#969696" stroke-width="2" stroke-dasharray="5.0, 7.0"><g><path d="M 28 10L 28 17.5L 28 58C 27.999999 64.627415 22.627416 69.999998 16 69.999998L 15.9 70L 10 70"></path></g></g></g><g id="g-root-cu_zofhuo97dtzc-stroke" data-item-order="0" transform="translate(603, 360)"><g id="cu_zofhuo97dtzc-stroke" fill="none" stroke-linecap="round" stroke-linejoin="round" stroke-miterlimit="4" stroke="#969696" stroke-width="2" stroke-dasharray="5.0, 7.0"><g><path d="M 10 10L 13 10L 13.1 10C 16.311297 10.016369 19.867515 10.284763 23.700001 10.800001C 25.868292 11.054283 29.498118 11.829585 33.999999 13C 38.50188 14.170414 42.131706 14.945717 44.299999 15.2C 48.132487 15.71524 51.688705 15.983634 54.900002 16.000002L 55 16L 58 16"></path></g></g></g><g id="g-root-tx__1q6cpwg976ux7-stroke" data-item-order="0" transform="translate(257, 555)"></g><g id="g-root-tx__1lwryn496vlsd-stroke" data-item-order="4000000000" transform="translate(699, 354)"></g><g id="g-root-serv_1hgygio96vmkm-stroke" data-item-order="4000000000" transform="translate(663, 351)"><g id="serv_1hgygio96vmkm-stroke" fill="none" stroke-linecap="round" stroke-linejoin="round" stroke-miterlimit="4" stroke="#e0cb15" stroke-width="2"><g><path d="M 35.625 18.658751C 35.604069 17.425695 35.082287 16.254242 34.179691 15.413896C 33.277096 14.573548 32.071404 14.136663 30.839998 14.20375C 29.734344 11.995436 27.46958 10.607589 25 10.625C 21.637741 10.576427 18.815884 13.14772 18.5525 16.5C 17.549095 16.278038 16.499016 16.516819 15.690258 17.150854C 14.8815 17.784889 14.398968 18.747618 14.375 19.775C 14.375 23.1775 18.07 23.125 18.07 23.125L 31.467499 23.125C 31.467499 23.125 35.625 22.598751 35.625 18.658751ZM 18.4375 35.936249C 18.265074 35.936249 18.125233 36.075909 18.125004 36.248337C 18.124773 36.420761 18.264244 36.560791 18.43667 36.561249C 18.609095 36.561707 18.74931 36.422424 18.75 36.25C 18.750334 36.167015 18.717516 36.087337 18.65884 36.02866C 18.600163 35.969982 18.520481 35.937164 18.4375 35.9375L 18.4375 35.9375M 21.5625 35.936249C 21.390074 35.936249 21.250231 36.075909 21.250002 36.248337C 21.249773 36.420761 21.389244 36.560791 21.56167 36.561249C 21.734097 36.561707 21.87431 36.422424 21.875 36.25C 21.875334 36.167015 21.842516 36.087337 21.78384 36.02866C 21.725161 35.969982 21.645481 35.937164 21.5625 35.9375L 21.5625 35.9375M 35.625 37.5C 35.625 38.535534 34.785534 39.375 33.75 39.375L 16.25 39.375C 15.214466 39.375 14.375 38.535534 14.375 37.5L 14.375 35C 14.375 33.964466 15.214466 33.125 16.25 33.125L 33.75 33.125C 34.785534 33.125 35.625 33.964466 35.625 35ZM 18.4375 29.686249C 18.265074 29.686253 18.125233 29.825909 18.125004 29.998335C 18.124773 30.170761 18.264244 30.310791 18.43667 30.311249C 18.609095 30.311708 18.74931 30.172424 18.75 30C 18.750334 29.917017 18.717516 29.837337 18.65884 29.77866C 18.600163 29.719982 18.520481 29.687164 18.4375 29.687498L 18.4375 29.6875M 21.5625 29.686249C 21.390074 29.686253 21.250231 29.825909 21.250002 29.998335C 21.249773 30.170761 21.389244 30.310791 21.56167 30.311249C 21.734097 30.311708 21.87431 30.172424 21.875 30C 21.875334 29.917017 21.842516 29.837337 21.78384 29.77866C 21.725161 29.719982 21.645481 29.687164 21.5625 29.687498L 21.5625 29.6875M 35.625 31.25C 35.625 32.285534 34.785534 33.125 33.75 33.125L 16.25 33.125C 15.214466 33.125 14.375 32.285534 14.375 31.25L 14.375 28.75C 14.375 27.714466 15.214466 26.875 16.25 26.875L 33.75 26.875C 34.785534 26.875 35.625 27.714466 35.625 28.75Z"></path></g></g></g><g id="g-root-expo_1qclgrk979o1u-stroke" data-item-order="4000000000" transform="translate(345, 351)"><g id="expo_1qclgrk979o1u-stroke" fill="none" stroke-linecap="round" stroke-linejoin="round" stroke-miterlimit="4" stroke="#7f64ea" stroke-width="2"><g><path d="M 25 31.38875L 18.61125 28.195L 18.61125 21.805L 25 25L 25 31.38875ZM 25 31.38875L 31.38875 28.195L 31.38875 21.805L 25 25L 25 31.38875ZM 18.61125 21.805L 25 18.61125L 31.38875 21.805M 13.82 25.95875L 13.82 16.375L 10.625 16.375L 16.375 10.625M 18.93 18.60375L 18.93 16.375L 22.125 16.375L 16.375 10.625M 36.18 24.04125L 36.18 33.625L 39.375 33.625L 33.625 39.375M 31.070002 31.396252L 31.070002 33.625L 27.875 33.625L 33.625 39.375"></path></g></g></g><g id="g-root-tx__1useyw0979n9l-stroke" data-item-order="4000000000" transform="translate(27, 354)"></g><g id="g-root-tx_sre_zk233497chdx-stroke" data-item-order="4000000000" transform="translate(465, 306)"></g><g id="g-root-1_qp1jxc97cf0u-stroke" data-item-order="4000000000" transform="translate(495, 252)"><g id="1_qp1jxc97cf0u-stroke" fill="none" stroke-linecap="round" stroke-linejoin="round" stroke-miterlimit="4" stroke="#484848" stroke-width="2"><g><path d="M 21.001999 52L 47.001999 52M 35.001999 40L 35.001999 52M 57 24C 57 26.209139 55.209141 28 53 28L 15 28C 12.790861 28 11 26.209139 11 24L 11 20C 11 17.790861 12.790861 16 15 16L 53 16C 55.209141 16 57 17.790861 57 20ZM 19.5 21.5C 19.223858 21.5 19 21.723858 19 22C 19 22.276142 19.223858 22.5 19.5 22.5C 19.776142 22.5 20 22.276142 20 22C 20 21.723858 19.776142 21.5 19.5 21.5L 19.5 21.5M 26.5 21.5C 26.223858 21.5 26 21.723858 26 22C 26 22.276142 26.223858 22.5 26.5 22.5C 26.776142 22.5 27 22.276142 27 22C 27 21.723858 26.776142 21.5 26.5 21.5L 26.5 21.5M 57 36C 57 38.209137 55.209141 40 53 40L 15 40C 12.790861 40 11 38.209137 11 36L 11 32C 11 29.790861 12.790861 28 15 28L 53 28C 55.209141 28 57 29.790861 57 32ZM 19.5 33.5C 19.223858 33.5 19 33.723858 19 34C 19 34.276142 19.223858 34.5 19.5 34.5C 19.776142 34.5 20 34.276142 20 34C 20 33.723858 19.776142 33.5 19.5 33.5L 19.5 33.5M 26.5 33.5C 26.223858 33.5 26 33.723858 26 34C 26 34.276142 26.223858 34.5 26.5 34.5C 26.776142 34.5 27 34.276142 27 34C 27 33.723858 26.776142 33.5 26.5 33.5L 26.5 33.5M 16.5 51C 16.223858 51 16 51.223858 16 51.5C 16 51.776142 16.223858 52 16.5 52C 16.776142 52 17 51.776142 17 51.5C 17 51.223858 16.776142 51 16.5 51L 16.5 51M 11.5 51C 11.223858 51 11 51.223858 11 51.5C 11 51.776142 11.223858 52 11.5 52C 11.776142 52 12 51.776142 12 51.5C 12 51.223858 11.776142 51 11.5 51L 11.5 51M 56.5 51C 56.223858 51 56 51.223858 56 51.5C 56 51.776142 56.223858 52 56.5 52C 56.776142 52 57 51.776142 57 51.5C 57 51.223858 56.776142 51 56.5 51L 56.5 51M 51.5 51C 51.223858 51 51 51.223858 51 51.5C 51 51.776142 51.223858 52 51.5 52C 51.776142 52 52 51.776142 52 51.5C 52 51.223858 51.776142 51 51.5 51L 51.5 51"></path></g></g></g><g id="g-root-tx_slislo_4j72n497cg74-stroke" data-item-order="4000000000" transform="translate(173, 495)"></g><g id="g-root-scal_1uoo4dc97cgsp-stroke" data-item-order="4000000000" transform="translate(407, 492)"><g id="scal_1uoo4dc97cgsp-stroke" fill="none" stroke-linecap="round" stroke-linejoin="round" stroke-miterlimit="4" stroke="#3cc583" stroke-width="2"><g><path d="M 33.75 20L 33.75 26.25C 33.399998 27.9 22.174999 30 16.25 30L 16.25 23.75C 22.174999 23.75 33.75 21.699999 33.75 20ZM 33.75 10.625L 33.75 16.875C 33.399998 18.525 22.174999 20.625 16.25 20.625L 16.25 14.375C 22.174999 14.375 33.75 12.325 33.75 10.625ZM 30.5 18.5375C 30.5 18.5375 33.75 18.362499 33.75 20M 16.25 20.625L 25.737499 22.787498M 33.75 29.375L 33.75 35.625C 33.399998 37.275002 22.174999 39.375 16.25 39.375L 16.25 33.125C 22.174999 33.125 33.75 31.075001 33.75 29.375ZM 30.5 27.9125C 30.5 27.9125 33.75 27.737499 33.75 29.375M 16.25 30L 25.737499 32.162498"></path></g></g></g><g id="g-root-expa_1hgygio972kn7-stroke" data-item-order="4000000000" transform="translate(583, 501)"><g id="expa_1hgygio972kn7-stroke" fill="none" stroke-linecap="round" stroke-linejoin="round" stroke-miterlimit="4" stroke="#92bd39" stroke-width="2"><g><path d="M 34.642857 11.071428L 36.785713 11.071428C 37.969181 11.071428 38.92857 12.030818 38.92857 13.214286L 38.92857 15.357142M 11.071428 15.357142L 11.071428 13.214286C 11.071428 12.030818 12.030818 11.071428 13.214286 11.071428L 15.357142 11.071428M 21.785713 11.071428L 28.214285 11.071428M 38.92857 21.785713L 38.92857 28.214285M 11.071428 21.785713L 11.071428 28.214285M 34.642857 38.92857L 36.785713 38.92857C 37.969181 38.92857 38.92857 37.969181 38.92857 36.785713L 38.92857 34.642857M 11.071428 34.642857L 11.071428 36.785713C 11.071428 37.969181 12.030818 38.92857 13.214286 38.92857L 15.357142 38.92857M 21.785713 38.92857L 28.214285 38.92857M 20.714285 18.571428L 29.285713 18.571428C 29.285713 18.571428 31.42857 18.571428 31.42857 20.714285L 31.42857 29.285713C 31.42857 29.285713 31.42857 31.42857 29.285713 31.42857L 20.714285 31.42857C 20.714285 31.42857 18.571428 31.42857 18.571428 29.285713L 18.571428 20.714285C 18.571428 20.714285 18.571428 18.571428 20.714285 18.571428"></path></g></g></g><g id="g-root-tx__1lw5hk0972n0q-stroke" data-item-order="4000000000" transform="translate(619, 504)"></g><g id="g-root-tx__magzz497gnpe-stroke" data-item-order="4000000000" transform="translate(699, 204)"></g><g id="g-root-chec_detzq897goi3-stroke" data-item-order="4000000000" transform="translate(663, 201)"><g id="chec_detzq897goi3-stroke" fill="none" stroke-linecap="round" stroke-linejoin="round" stroke-miterlimit="4" stroke="#ba5de5" stroke-width="2"><g><path d="M 31.875 18.75L 24.331249 29.665001L 18.608749 23.940001M 12.5 14.71875L 12.5 24.264999C 12.489674 30.605133 16.376829 36.299805 22.285 38.599998L 23.618752 39.1175C 24.5075 39.461273 25.4925 39.461273 26.38125 39.1175L 27.715 38.599998C 33.623169 36.299805 37.510326 30.605133 37.5 24.264999L 37.5 14.71875C 37.506096 13.965388 37.07103 13.27808 36.387501 12.96125C 32.799839 11.385195 28.918413 10.588885 24.999998 10.625C 21.081585 10.588885 17.200163 11.385195 13.6125 12.96125C 12.928972 13.27808 12.493905 13.965388 12.5 14.71875Z"></path></g></g></g><g id="g-root-netw_90w00w9789hp-stroke" data-item-order="4000000000" transform="translate(345, 201)"><g id="netw_90w00w9789hp-stroke" fill="none" stroke-linecap="round" stroke-linejoin="round" stroke-miterlimit="4" stroke="#de8431" stroke-width="2"><g><path d="M 10.67 24.997499C 10.67 32.936596 17.105907 39.372501 25.045 39.372501C 32.984093 39.372501 39.419998 32.936596 39.419998 24.997499C 39.419998 17.058407 32.984093 10.6225 25.045 10.6225C 17.105907 10.6225 10.67 17.058407 10.67 24.997499ZM 18.17 19.684999C 18.17 21.2383 19.429199 22.497499 20.9825 22.497499C 22.535801 22.497499 23.795 21.2383 23.795 19.684999C 23.795 18.131699 22.535801 16.872499 20.9825 16.872499C 19.429199 16.872499 18.17 18.131699 18.17 19.684999ZM 26.295 32.184998C 26.295 33.047947 26.994555 33.747501 27.8575 33.747501C 28.720446 33.747501 29.42 33.047947 29.42 32.185001C 29.42 31.322056 28.720446 30.622501 27.8575 30.622501C 26.994555 30.622501 26.295 31.322056 26.295 32.185001ZM 31.294998 22.809999C 31.295002 24.018124 32.274376 24.997499 33.482502 24.997499C 34.690624 24.997499 35.670002 24.018124 35.670002 22.809999C 35.670002 21.601877 34.690624 20.622499 33.482502 20.622499C 32.274376 20.622499 31.295002 21.601877 31.295002 22.809999ZM 23.795 19.375C 26.589325 19.481443 29.251818 20.590816 31.294998 22.5M 33.918751 24.955L 34.418751 25.622499C 34.418751 25.622499 36.293751 28.122499 36.293751 33.747498M 31.07375 11.94375L 31.294998 12.5C 32.199806 15.180323 32.623001 17.999653 32.544998 20.827499M 31.919998 24.375C 31.763432 26.956524 30.833033 29.431061 29.25 31.47625M 27.110001 33.557503L 26.92 33.75C 26.92 33.75 23.795 36.875 16.92 36.875M 25.045 10.625C 23.334904 12.454063 21.959795 14.569616 20.982498 16.875M 19.522499 22.09L 19.42 22.5C 18.738934 25.880604 19.17774 29.391062 20.67 32.5C 22.795 36.7575 28.17 38.75 28.17 38.75L 28.63625 38.923752M 18.17 19.684999C 18.17 19.684999 13.375 20.028749 10.95125 22.151249M 11.02 28.164999L 11.295 28.122499C 11.295 28.122499 19.89625 26.799999 26.887501 30.959999"></path></g></g></g><g id="g-root-tx__hwj09s9788p0-stroke" data-item-order="4000000000" transform="translate(207, 204)"></g><g id="g-root-tx__hrj7kw976v40-stroke" data-item-order="4000000000" transform="translate(629, 54)"></g><g id="g-root-1_8wiof4976sqx-stroke" data-item-order="4000000000" transform="translate(593, 51)"><g id="1_8wiof4976sqx-stroke" fill="none" stroke-linecap="round" stroke-linejoin="round" stroke-miterlimit="4" stroke="#1eabda" stroke-width="2"><g><path d="M 10 10M 13.726962 30.640625L 11.111128 36.390625C 10.862 36.890625 10.861998 37.640625 11.23569 38.140625C 11.609375 38.640625 12.2322 39.015625 12.855025 39.015625L 37.145 39.015625C 37.892376 39.015625 38.390625 38.640625 38.764252 38.140625C 39.138 37.640625 39.138 37.015625 38.888874 36.390625L 36.148499 30.640625M 13.726962 30.640625L 36.148499 30.640625M 13.726962 30.640625L 13.726962 18.39065C 13.726962 17.89065 13.851525 17.51565 14.225224 17.14065M 36.148499 30.640625L 36.148499 18.39065C 36.148499 17.89065 36.023872 17.51565 35.650249 17.14065M 23.193876 35.265625L 26.93075 35.265625M 10 10M 26.54925 12.015637L 27.04925 13.64065C 27.17425 14.26565 27.79925 14.515662 28.42425 14.390662L 30.174252 14.015637C 31.67425 13.640637 32.674252 15.51565 31.67425 16.64065L 30.42425 17.89065C 30.04925 18.39065 30.04925 19.015638 30.42425 19.515638L 31.67425 20.765636C 32.674252 21.890638 31.67425 23.640625 30.174252 23.390625L 28.42425 23.015625C 27.79925 22.890625 27.29925 23.265625 27.04925 23.765625L 26.54925 25.390625C 26.04925 26.890625 24.04925 26.890625 23.54925 25.390625L 23.04925 23.765625C 22.92425 23.140625 22.299225 22.890625 21.674225 23.015625L 19.924225 23.390625C 18.424225 23.765625 17.424225 21.890638 18.424225 20.765636L 19.674225 19.515638C 20.049225 19.015638 20.049225 18.39065 19.674225 17.89065L 18.424225 16.64065C 17.424225 15.51565 18.424225 13.765637 19.924225 14.015637L 21.674225 14.390662C 22.299225 14.515662 22.79925 14.14065 23.04925 13.64065L 23.54925 12.015637C 24.04925 10.640633 26.17425 10.640633 26.54925 12.015637ZM 10 10M 26.67425 17.265663L 24.79925 19.140663"></path></g></g></g><g id="g-root-bars_1448zz497dt6w-stroke" data-item-order="4000000000" transform="translate(425, 51)"><g id="bars_1448zz497dt6w-stroke" fill="none" stroke-linecap="round" stroke-linejoin="round" stroke-miterlimit="4" stroke="#ba5de5" stroke-width="2"><g><path d="M 10.55125 34.375L 39.30125 34.375M 15.55125 34.375L 15.55125 28.75C 15.55125 28.404823 15.271428 28.125 14.92625 28.125L 12.42625 28.125C 12.081072 28.125 11.80125 28.404823 11.80125 28.75L 11.80125 34.375M 23.05125 34.375L 23.05125 22.5C 23.05125 22.154823 22.771427 21.875 22.42625 21.875L 19.92625 21.875C 19.581072 21.875 19.30125 22.154823 19.30125 22.5L 19.30125 34.375M 30.55125 34.375L 30.55125 25C 30.55125 24.654823 30.271427 24.375 29.92625 24.375L 27.42625 24.375C 27.081072 24.375 26.80125 24.654823 26.80125 25L 26.80125 34.375M 38.05125 34.375L 38.05125 16.25C 38.05125 15.904821 37.771427 15.625 37.42625 15.625L 34.92625 15.625C 34.581074 15.625 34.30125 15.904821 34.30125 16.25L 34.30125 34.375"></path></g></g></g><g id="g-root-tx__18jg10g97dvkf-stroke" data-item-order="4000000000" transform="translate(347, 54)"></g></g></g></svg>