<?xml version="1.0" encoding="utf-8" standalone="yes"?>
<!DOCTYPE svg PUBLIC "-//W3C//DTD SVG 1.1//EN" "http://www.w3.org/Graphics/SVG/1.1/DTD/svg11.dtd">
<svg width="844" height="544" viewBox="0 0 844 544" style="fill:none;stroke:none;fill-rule:evenodd;clip-rule:evenodd;stroke-linecap:round;stroke-linejoin:round;stroke-miterlimit:1.5;" version="1.1" xmlns="http://www.w3.org/2000/svg" xmlns:xlink="http://www.w3.org/1999/xlink"><style id="fontImports">@import url("https://fonts.googleapis.com/css2?family=Roboto:wght@400;700&amp;display=block");</style><g id="items" style="isolation: isolate"><g id="blend" style="mix-blend-mode: normal"><g id="g-root-0.cu_sy_1cz9pkckuws98-fill" data-item-order="-380154" transform="translate(16, 124)"><g id="0.cu_sy_1cz9pkckuws98-fill" stroke="none" fill="#ebebeb"><g><path d="M 246.1 179.7L 251.4 156.6L 232.8 148.4L 226.6 175.2ZM 232.8 148.4L 182.1 222.3L 200 231.7L 251.4 156.6ZM 200 231.7L 251.1 97.9L 232.8 89.7L 182.1 222.3ZM 232.8 89.7L 157.6 234.4L 176 242.4L 251.1 97.9ZM 176 242.4L 238.9 62.4L 220.4 54.8L 157.6 234.4ZM 220.4 54.8L 130 243.6L 148.5 251.3L 238.9 62.4ZM 148.5 251.3L 219.3 48L 200.7 40.5L 130 243.6ZM 200.7 40.5L 106 243.2L 124.6 250.7L 219.3 48ZM 124.6 250.7L 203 29L 184.5 21.4L 106 243.2ZM 184.5 21.4L 83.3 237.2L 101.8 244.9L 203 29ZM 101.8 244.9L 180.6 22.8L 161.9 15.5L 83.3 237.2ZM 161.9 15.5L 70.9 228.3L 89.6 235.5L 180.6 22.8ZM 89.6 235.5L 162.5 20.4L 143.9 13.1L 70.9 228.3ZM 143.9 13.1L 51.2 217.7L 69.8 225L 162.5 20.4ZM 69.8 225L 138 17.2L 119.4 9.9L 51.2 217.7ZM 119.4 9.9L 33.6 198.6L 52.3 205.7L 138 17.2ZM 52.3 205.7L 110 22L 91.4 14.6L 33.6 198.6ZM 91.4 14.6L 12.8 173.9L 31.2 181.7L 110 22ZM 31.2 181.7L 86.9 28.2L 68.7 19.7L 12.8 173.9ZM 68.7 19.7L 4.1 131.8L 22.1 140.5L 86.9 28.2ZM 22.1 140.5L 52.6 62.8L 34 55.5L 4.1 131.8Z" fill-rule="nonzero"></path></g></g></g><g id="g-root-5.cu_sy_18jg7fwkuwt1h-fill" data-item-order="-380150" transform="translate(215.37451171875, 298)"><g id="5.cu_sy_18jg7fwkuwt1h-fill" stroke="none" fill="#ffe4cb"><g><path d="M 598.825488 199.1L 601.925488 197.5L 593.825488 179.1L 589.625488 181.3ZM 593.825488 179.1L 566.725488 189.2L 583.325488 204.3L 601.925488 197.5ZM 583.325488 204.3L 610.925488 102.1L 592.225488 94.7L 566.725488 189.2ZM 592.225488 94.7L 543.425488 187.9L 562.225488 195L 610.925488 102.1ZM 562.225488 195L 583.225488 107.4L 564.425488 100.2L 543.425488 187.9ZM 564.425488 100.2L 514.725488 190.6L 533.225488 198.4L 583.225488 107.4ZM 533.225488 198.4L 560.525488 107.7L 542.025488 99.8L 514.725488 190.6ZM 542.025488 99.8L 491.825488 189.7L 510.725488 197.1L 560.525488 107.7ZM 510.725488 197.1L 532.625488 104.7L 513.625488 98L 491.825488 189.7ZM 513.625488 98L 470.825488 186.6L 489.625488 193.7L 532.625488 104.7ZM 489.625488 193.7L 515.525488 101.4L 496.925488 94L 470.825488 186.6ZM 496.925488 94L 447.425488 188L 466.025488 195.6L 515.525488 101.4ZM 466.025488 195.6L 493.025488 103L 474.325488 95.8L 447.425488 188ZM 474.325488 95.8L 428.125488 190.5L 447.225488 197L 493.025488 103ZM 447.225488 197L 466.925488 102.3L 447.825488 96.2L 428.125488 190.5ZM 447.825488 96.2L 407.725488 189.9L 427.025488 195.6L 466.925488 102.3ZM 427.025488 195.6L 442.425488 108.2L 423.125488 102.4L 407.725488 189.9ZM 423.125488 102.4L 385.825488 189.1L 405.025488 195.1L 442.425488 108.2ZM 405.025488 195.1L 423.925488 105.2L 404.825488 98.9L 385.825488 189.1ZM 404.825488 98.9L 362.125488 192.9L 381.025488 199.6L 423.925488 105.2ZM 381.025488 199.6L 406.125488 106.8L 387.325488 99.6L 362.125488 192.9ZM 387.325488 99.6L 339.625488 193.1L 358.725488 199.8L 406.125488 106.8ZM 358.725488 199.8L 378.625488 102.5L 359.525488 96.2L 339.625488 193.1ZM 359.525488 96.2L 314.625488 194.8L 333.425488 201.7L 378.625488 102.5ZM 333.425488 201.7L 361.825488 102.4L 343.325488 94.6L 314.625488 194.8ZM 343.325488 94.6L 291.025488 186.7L 309.825488 194L 361.825488 102.4ZM 309.825488 194L 328.825488 109.1L 309.725488 102.8L 291.025488 186.7ZM 309.725488 102.8L 270.825488 191.8L 289.925488 197.8L 328.825488 109.1ZM 289.925488 197.8L 309.125488 100.9L 290.025488 94.5L 270.825488 191.8ZM 290.025488 94.5L 244.025488 190.7L 262.725488 198L 309.125488 100.9ZM 262.725488 198L 291.825488 104.6L 273.325488 96.8L 244.025488 190.7ZM 273.325488 96.8L 222.125488 193.1L 241.225488 199.8L 291.825488 104.6ZM 241.225488 199.8L 259.725488 104.6L 240.625488 98.4L 222.125488 193.1ZM 240.625488 98.4L 198.625488 188.8L 217.525488 195.7L 259.725488 104.6ZM 217.525488 195.7L 241.925488 108.2L 223.325488 100.8L 198.625488 188.8ZM 223.325488 100.8L 177.625488 187.8L 196.225488 195.4L 241.925488 108.2ZM 196.225488 195.4L 221.725488 109L 203.225488 101.3L 177.625488 187.8ZM 203.225488 101.3L 161.625488 177.9L 180.625488 184.8L 221.725488 109ZM 180.625488 184.8L 197.425488 102.7L 178.525488 95.2L 161.625488 177.9ZM 178.525488 95.2L 139.425488 158.4L 157.725488 166.9L 197.425488 102.7ZM 157.725488 166.9L 178.825488 101L 160.625488 92.2L 139.425488 158.4ZM 160.625488 92.2L 125.025488 145.1L 143.625488 153.3L 178.825488 101ZM 143.625488 153.3L 160.125488 83.7L 141.725488 74.7L 125.025488 145.1ZM 141.725488 74.7L 100.425488 126.4L 117.925488 136.5L 160.125488 83.7ZM 117.925488 136.5L 140.825488 78.3L 123.825488 66.8L 100.425488 126.4ZM 123.825488 66.8L 78.925488 108.7L 96.725488 119.5L 140.825488 78.3ZM 96.725488 119.5L 114.725488 55.6L 96.125488 47.8L 78.925488 108.7ZM 96.125488 47.8L 69.425488 94L 88.225488 101.3L 114.725488 55.6ZM 88.225488 101.3L 99.725488 48.9L 81.225488 40L 69.425488 94ZM 81.225488 40L 47.425488 82.1L 66.425488 90.4L 99.725488 48.9ZM 66.425488 90.4L 74.025488 40L 55.225488 30.4L 47.425488 82.1ZM 55.225488 30.4L 26.425488 58.6L 44.925488 68.5L 74.025488 40ZM 44.925488 68.5L 53.825488 22.3L 35.025488 14.4L 26.425488 58.6ZM 35.025488 14.4L 11.525488 48.3L 31.925488 54.1L 53.825488 22.3ZM 31.925488 54.1L 30.625488 33L 10.725488 34.1L 11.525488 48.3Z" fill-rule="nonzero"></path></g></g></g><g id="g-root-4.cu_sy_18jg7fwkuwt1i-fill" data-item-order="-380146" transform="translate(243.1923828125, 262)"><g id="4.cu_sy_18jg7fwkuwt1i-fill" stroke="none" fill="#fff8b6"><g><path d="M 575.707617 139.2L 579.407617 125.2L 562.607617 111L 556.407617 134ZM 562.607617 111L 534.507617 124.1L 552.307617 137.9L 579.407617 125.2ZM 552.307617 137.9L 569.507617 46L 550.207617 40L 534.507617 124.1ZM 550.207617 40L 509.807617 130.6L 529.107617 136.5L 569.507617 46ZM 529.107617 136.5L 544.807617 45.5L 525.407617 40.2L 509.807617 130.6ZM 525.407617 40.2L 489.007617 135.2L 508.507617 140.2L 544.807617 45.5ZM 508.507617 140.2L 521.507617 43.9L 501.907617 39.5L 489.007617 135.2ZM 501.907617 39.5L 472.307617 134.9L 492.007617 139L 521.507617 43.9ZM 492.007617 139L 502.307617 44.7L 482.707617 40L 472.307617 134.9ZM 482.707617 40L 447.107617 133.1L 466.707617 137.9L 502.307617 44.7ZM 466.707617 137.9L 477.807617 46.7L 458.207617 42.4L 447.107617 133.1ZM 458.207617 42.4L 430.407617 130.7L 449.907617 135.3L 477.807617 46.7ZM 449.907617 135.3L 464.207617 46.1L 444.907617 40.3L 430.407617 130.7ZM 444.907617 40.3L 404.107617 129.7L 423.707617 134.9L 464.207617 46.1ZM 423.707617 134.9L 432.207617 46L 412.607617 41.3L 404.107617 129.7ZM 412.607617 41.3L 377.207617 129.3L 396.407617 135.2L 432.207617 46ZM 396.407617 135.2L 416.007617 42.5L 396.807617 36.6L 377.207617 129.3ZM 396.807617 36.6L 359.007617 128.7L 378.407617 134.1L 416.007617 42.5ZM 378.407617 134.1L 392.207617 43.7L 372.807617 38.4L 359.007617 128.7ZM 372.807617 38.4L 333.707617 136L 353.207617 141.1L 392.207617 43.7ZM 353.207617 141.1L 365.807617 43.4L 346.207617 38.9L 333.707617 136ZM 346.207617 38.9L 315.907617 129.4L 335.507617 133.9L 365.807617 43.4ZM 335.507617 133.9L 347.507617 46.9L 328.007617 41.9L 315.907617 129.4ZM 328.007617 41.9L 293.907617 132L 313.507617 136.8L 347.507617 46.9ZM 313.507617 136.8L 325.007617 41.3L 305.407617 36.6L 293.907617 132ZM 305.407617 36.6L 271.107617 129.5L 290.607617 134.6L 325.007617 41.3ZM 290.607617 134.6L 303.807617 48.6L 284.407617 42.9L 271.107617 129.5ZM 284.407617 42.9L 243.807617 132.7L 262.807617 139.1L 303.807617 48.6ZM 262.807617 139.1L 285.007617 42.7L 265.907617 36.5L 243.807617 132.7ZM 265.907617 36.5L 224.207617 135.4L 243.707617 140.7L 285.007617 42.7ZM 243.707617 140.7L 257.207617 39.9L 237.607617 35.3L 224.207617 135.4ZM 237.607617 35.3L 205.307617 129.6L 224.707617 134.5L 257.207617 39.9ZM 224.707617 134.5L 239.107617 47.7L 219.807617 41.8L 205.307617 129.6ZM 219.807617 41.8L 178.707617 133L 197.807617 139.3L 239.107617 47.7ZM 197.807617 139.3L 219.007617 43.4L 199.907617 37.1L 178.707617 133ZM 199.907617 37.1L 155.807617 134.2L 175.207617 140L 219.007617 43.4ZM 175.207617 140L 189.507617 46.7L 170.107617 41L 155.807617 134.2ZM 170.107617 41L 133.507617 122.6L 152.807617 128.3L 189.507617 46.7ZM 152.807617 128.3L 166.007617 40.1L 146.507617 34.8L 133.507617 122.6ZM 146.507617 34.8L 113.607617 114.9L 132.807617 120.9L 166.007617 40.1ZM 132.807617 120.9L 149.207617 43.8L 130.207617 37.1L 113.607617 114.9ZM 130.207617 37.1L 96.207617 103.6L 115.407617 110.1L 149.207617 43.8ZM 115.407617 110.1L 128.407617 39.7L 109.307617 32.6L 96.207617 103.6ZM 109.307617 32.6L 75.307617 91.3L 94.207617 98.6L 128.407617 39.7ZM 94.207617 98.6L 107.607617 36.2L 88.907617 27.9L 75.307617 91.3ZM 88.907617 27.9L 53.607617 77.3L 72.607617 85.1L 107.607617 36.2ZM 72.607617 85.1L 82.107617 26.4L 63.107617 18.5L 53.607617 77.3ZM 63.107617 18.5L 34.507617 58L 53.907617 65.3L 82.107617 26.4ZM 53.907617 65.3L 58.307617 19.6L 38.807617 12.7L 34.507617 58ZM 38.807617 12.7L 13.207617 51.6L 32.407617 58.8L 58.307617 19.6ZM 32.407617 58.8L 38.807617 11L 19.007617 8.3L 13.207617 51.6Z" fill-rule="nonzero"></path></g></g></g><g id="g-root-3.cu_sy_18jg7fwkuwt1j-fill" data-item-order="-380142" transform="translate(254.65869140625, 196)"><g id="3.cu_sy_18jg7fwkuwt1j-fill" stroke="none" fill="#e9ffb9"><g><path d="M 565.741309 24.1L 563.641309 11.5L 543.541309 12.4L 546.041309 27.3ZM 543.541309 12.4L 536.341309 108L 556.541309 107.2L 563.641309 11.5ZM 556.541309 107.2L 541.041309 7.4L 520.941309 8.4L 536.341309 108ZM 520.941309 8.4L 515.341309 107.9L 535.441309 106.9L 541.041309 7.4ZM 535.441309 106.9L 520.141309 12.1L 500.041309 13L 515.341309 107.9ZM 500.041309 13L 493.941309 105.7L 514.041309 105.2L 520.141309 12.1ZM 514.041309 105.2L 502.441309 10.9L 482.341309 10.8L 493.941309 105.7ZM 482.341309 10.8L 470.241309 103.9L 490.441309 104.1L 502.441309 10.9ZM 490.441309 104.1L 479.241309 8.7L 459.141309 8.6L 470.241309 103.9ZM 459.141309 8.6L 447.741309 101L 467.841309 101L 479.241309 8.7ZM 467.841309 101L 457.541309 15.6L 437.341309 15.4L 447.741309 101ZM 437.341309 15.4L 425.041309 101.8L 445.241309 101.8L 457.541309 15.6ZM 445.241309 101.8L 432.241309 10L 412.141309 10.5L 425.041309 101.8ZM 412.141309 10.5L 404.041309 106.5L 424.241309 105.8L 432.241309 10ZM 424.241309 105.8L 409.241309 10L 389.041309 10.4L 404.041309 106.5ZM 389.041309 10.4L 378.141309 100L 398.241309 100.3L 409.241309 10ZM 398.241309 100.3L 390.141309 10.1L 370.141309 10.4L 378.141309 100ZM 370.141309 10.4L 364.141309 107.5L 384.241309 107L 390.141309 10.1ZM 384.241309 107L 373.441309 12.9L 353.241309 12.6L 364.141309 107.5ZM 353.241309 12.6L 340.741309 102.3L 360.841309 102.9L 373.441309 12.9ZM 360.841309 102.9L 353.541309 10.1L 333.341309 8.9L 340.741309 102.3ZM 333.341309 8.9L 314.341309 106.3L 334.541309 107.3L 353.541309 10.1ZM 334.541309 107.3L 325.341309 12.9L 305.241309 13L 314.341309 106.3ZM 305.241309 13L 297.841309 103L 317.941309 102.6L 325.341309 12.9ZM 317.941309 102.6L 306.041309 7.4L 285.941309 7.4L 297.841309 103ZM 285.941309 7.4L 273.041309 108.6L 293.241309 108.2L 306.041309 7.4ZM 293.241309 108.2L 277.341309 11.9L 257.241309 12.9L 273.041309 108.6ZM 257.241309 12.9L 251.241309 102.7L 271.241309 102.7L 277.341309 11.9ZM 271.241309 102.7L 265.141309 14.4L 244.941309 13.1L 251.241309 102.7ZM 244.941309 13.1L 226.741309 103.4L 246.841309 104.8L 265.141309 14.4ZM 246.841309 104.8L 241.141309 9.3L 221.041309 8.1L 226.741309 103.4ZM 221.041309 8.1L 203.041309 105.4L 223.141309 106.5L 241.141309 9.3ZM 223.141309 106.5L 216.141309 13L 196.041309 13.1L 203.041309 105.4ZM 196.041309 13.1L 189.941309 108.6L 210.041309 107.6L 216.141309 13ZM 210.041309 107.6L 193.641309 7.4L 173.441309 8.2L 189.941309 108.6ZM 173.441309 8.2L 164.941309 104.9L 185.041309 104.2L 193.641309 7.4ZM 185.041309 104.2L 170.541309 12.8L 150.441309 13.7L 164.941309 104.9ZM 150.441309 13.7L 143.541309 108.2L 163.641309 107.1L 170.541309 12.8ZM 163.641309 107.1L 146.041309 9.3L 125.841309 9.9L 143.541309 108.2ZM 125.841309 9.9L 115.441309 98L 135.541309 98.6L 146.041309 9.3ZM 135.541309 98.6L 131.541309 22.4L 111.441309 20.7L 115.441309 98ZM 111.441309 20.7L 94.941309 91.7L 114.941309 93.7L 131.541309 22.4ZM 114.941309 93.7L 113.341309 26.1L 93.241309 23.6L 94.941309 91.7ZM 93.241309 23.6L 75.741309 86.4L 95.941309 88.4L 113.341309 26.1ZM 95.941309 88.4L 91.741309 32L 71.441309 29.1L 75.741309 86.4ZM 71.441309 29.1L 52.141309 80.7L 72.441309 83.4L 91.741309 32ZM 72.441309 83.4L 67.041309 27.8L 46.841309 26.1L 52.141309 80.7ZM 46.841309 26.1L 32.341309 80.1L 52.741309 81L 67.041309 27.8ZM 52.741309 81L 44.541309 33.3L 23.741309 30.3L 32.341309 80.1ZM 23.741309 30.3L 3.941309 70.5L 21.941309 79.4L 44.541309 33.3ZM 21.941309 79.4L 27.041309 69L 9.241309 60.1L 3.941309 70.5Z" fill-rule="nonzero"></path></g></g></g><g id="g-root-2.cu_sy_143mpbgkuwtts-fill" data-item-order="-380138" transform="translate(243.1923828125, 100)"><g id="2.cu_sy_143mpbgkuwtts-fill" stroke="none" fill="#c8ffe5"><g><path d="M 576.207617 21.3L 574.807617 13.1L 554.707617 14.7L 556.507617 24.7ZM 554.707617 14.7L 553.207617 103.5L 573.207617 101.8L 574.807617 13.1ZM 573.207617 101.8L 554.907617 7.4L 534.807617 8.6L 553.207617 103.5ZM 534.807617 8.6L 527.707617 106.3L 547.907617 104.8L 554.907617 7.4ZM 547.907617 104.8L 527.107617 8.8L 507.207617 11.4L 527.707617 106.3ZM 507.207617 11.4L 511.207617 101.9L 531.107617 99.6L 527.107617 8.8ZM 531.107617 99.6L 514.507617 14.2L 494.307617 14.8L 511.207617 101.9ZM 494.307617 14.8L 482.207617 107.3L 502.307617 107.5L 514.507617 14.2ZM 502.307617 107.5L 491.607617 11.9L 471.407617 11.8L 482.207617 107.3ZM 471.407617 11.8L 459.807617 104.5L 480.007617 104.2L 491.607617 11.9ZM 480.007617 104.2L 465.307617 8.2L 445.207617 9.1L 459.807617 104.5ZM 445.207617 9.1L 439.307617 106.8L 459.407617 105.6L 465.307617 8.2ZM 459.407617 105.6L 441.907617 8.5L 421.907617 9.9L 439.307617 106.8ZM 421.907617 9.9L 418.707617 103L 438.807617 101.6L 441.907617 8.5ZM 438.807617 101.6L 422.907617 15L 402.707617 15.9L 418.707617 103ZM 402.707617 15.9L 394.107617 104.3L 414.207617 104.3L 422.907617 15ZM 414.207617 104.3L 405.807617 15.4L 385.707617 15.2L 394.107617 104.3ZM 385.707617 15.2L 375.207617 105L 395.507617 103.8L 405.807617 15.4ZM 395.507617 103.8L 373.107617 11.1L 353.007617 13L 375.207617 105ZM 353.007617 13L 348.707617 108.1L 368.807617 106.8L 373.107617 11.1ZM 368.807617 106.8L 351.807617 7.1L 331.707617 8.3L 348.707617 108.1ZM 331.707617 8.3L 327.207617 100.5L 347.307617 99.5L 351.807617 7.1ZM 347.307617 99.5L 333.707617 12L 313.507617 12.4L 327.207617 100.5ZM 313.507617 12.4L 301.707617 108.5L 321.907617 108L 333.707617 12ZM 321.907617 108L 304.507617 9.5L 284.507617 11.2L 301.707617 108.5ZM 284.507617 11.2L 284.407617 105.3L 304.407617 103.6L 304.507617 9.5ZM 304.407617 103.6L 288.107617 10.2L 268.007617 11.1L 284.407617 105.3ZM 268.007617 11.1L 260.107617 104.7L 280.207617 103.9L 288.107617 10.2ZM 280.207617 103.9L 264.307617 9.6L 244.207617 10.7L 260.107617 104.7ZM 244.207617 10.7L 238.707617 100.5L 258.807617 99.5L 264.307617 9.6ZM 258.807617 99.5L 243.307617 7.6L 223.107617 8L 238.707617 100.5ZM 223.107617 8L 211.307617 103L 231.507617 102.7L 243.307617 7.6ZM 231.507617 102.7L 217.307617 8.3L 197.307617 9.6L 211.307617 103ZM 197.307617 9.6L 196.307617 101.1L 216.307617 99.1L 217.307617 8.3ZM 216.307617 99.1L 198.107617 13.4L 178.007617 14.9L 196.307617 101.1ZM 178.007617 14.9L 172.907617 104.1L 193.007617 103.5L 198.107617 13.4ZM 193.007617 103.5L 182.607617 13.2L 162.407617 13L 172.907617 104.1ZM 162.407617 13L 150.207617 103.5L 170.407617 103.4L 182.607617 13.2ZM 170.407617 103.4L 157.707617 18.2L 137.507617 18.6L 150.207617 103.5ZM 137.507617 18.6L 127.607617 104.7L 147.907617 103.6L 157.707617 18.2ZM 147.907617 103.6L 131.407617 29L 111.307617 30.5L 127.607617 104.7ZM 111.307617 30.5L 104.907617 113.9L 125.007617 113.5L 131.407617 29ZM 125.007617 113.5L 116.907617 41.4L 96.707617 41.2L 104.907617 113.9ZM 96.707617 41.2L 87.107617 117.9L 107.307617 117.1L 116.907617 41.4ZM 107.307617 117.1L 94.507617 56.9L 74.107617 57.1L 87.107617 117.9ZM 74.107617 57.1L 61.407617 121.2L 81.807617 121.3L 94.507617 56.9ZM 81.807617 121.3L 71.307617 64.9L 51.007617 65.4L 61.407617 121.2ZM 51.007617 65.4L 42.207617 131.5L 62.507617 130.6L 71.307617 64.9ZM 62.507617 130.6L 50.607617 78.1L 30.207617 78.6L 42.207617 131.5ZM 30.207617 78.6L 20.107617 134.1L 40.407617 133.9L 50.607617 78.1ZM 40.407617 133.9L 31.307617 88.1L 11.707617 92L 20.107617 134.1Z" fill-rule="nonzero"></path></g></g></g><g id="g-root-1.cu_sy_143mpbgkuwttt-fill" data-item-order="-380134" transform="translate(215.37451171875, 4)"><g id="1.cu_sy_143mpbgkuwttt-fill" stroke="none" fill="#d1f4ff"><g><path d="M 605.125488 28.1L 606.925488 10.9L 586.825488 10.3L 585.225488 26ZM 586.825488 10.3L 590.325488 101.7L 610.225488 99L 606.925488 10.9ZM 610.225488 99L 587.525488 6.4L 567.425488 8.5L 590.325488 101.7ZM 567.425488 8.5L 564.325488 101.5L 584.325488 99.7L 587.525488 6.4ZM 584.325488 99.7L 565.025488 7.2L 544.925488 8.6L 564.325488 101.5ZM 544.925488 8.6L 538.625488 105L 558.825488 103.2L 565.025488 7.2ZM 558.825488 103.2L 535.825488 7.7L 515.725488 9.8L 538.625488 105ZM 515.725488 9.8L 512.825488 109.7L 532.925488 107.4L 535.825488 7.7ZM 532.925488 107.4L 508.725488 12.8L 488.825488 15.8L 512.825488 109.7ZM 488.825488 15.8L 493.025488 102.5L 512.925488 100.2L 508.725488 12.8ZM 512.925488 100.2L 496.525488 9L 476.325488 10.1L 493.025488 102.5ZM 476.325488 10.1L 469.625488 107.7L 489.725488 106.7L 496.525488 9ZM 489.725488 106.7L 472.925488 9.7L 452.925488 11.5L 469.625488 107.7ZM 452.925488 11.5L 454.125488 101.5L 474.025488 98.8L 472.925488 9.7ZM 474.025488 98.8L 450.325488 9.6L 430.225488 11.7L 454.125488 101.5ZM 430.225488 11.7L 426.325488 101.6L 446.425488 99.9L 450.325488 9.6ZM 446.425488 99.9L 427.325488 12.4L 407.325488 14.6L 426.325488 101.6ZM 407.325488 14.6L 408.325488 105L 428.325488 101.9L 427.325488 12.4ZM 428.325488 101.9L 401.425488 14.4L 381.425488 17.4L 408.325488 105ZM 381.425488 17.4L 381.625488 106.1L 401.625488 103.1L 401.425488 14.4ZM 401.625488 103.1L 374.625488 13.1L 355.025488 17.1L 381.625488 106.1ZM 355.025488 17.1L 364.825488 107.7L 384.525488 104.1L 374.625488 13.1ZM 384.525488 104.1L 359.425488 8.5L 339.325488 10.5L 364.825488 107.7ZM 339.325488 10.5L 333.925488 104.2L 354.125488 102.4L 359.425488 8.5ZM 354.125488 102.4L 332.125488 9.5L 312.025488 11.5L 333.925488 104.2ZM 312.025488 11.5L 308.725488 101.4L 328.725488 99.7L 332.125488 9.5ZM 328.725488 99.7L 310.925488 14.5L 291.025488 16.8L 308.725488 101.4ZM 291.025488 16.8L 293.125488 105L 313.025488 102.4L 310.925488 14.5ZM 313.025488 102.4L 291.125488 14.2L 271.025488 15.9L 293.125488 105ZM 271.025488 15.9L 264.125488 109.1L 284.325488 107.8L 291.125488 14.2ZM 284.325488 107.8L 265.625488 13.8L 245.725488 16.1L 264.125488 109.1ZM 245.725488 16.1L 248.425488 108.8L 268.325488 106L 265.625488 13.8ZM 268.325488 106L 243.825488 8.5L 223.725488 10.7L 248.425488 108.8ZM 223.725488 10.7L 221.025488 104.2L 241.025488 102L 243.825488 8.5ZM 241.025488 102L 218.525488 11L 198.525488 13.6L 221.025488 104.2ZM 198.525488 13.6L 199.825488 105.9L 219.825488 103.3L 218.525488 11ZM 219.825488 103.3L 196.925488 9.3L 176.825488 11.3L 199.825488 105.9ZM 176.825488 11.3L 172.725488 107.6L 192.725488 106.2L 196.925488 9.3ZM 192.725488 106.2L 178.725488 27.7L 158.625488 29.3L 172.725488 107.6ZM 158.625488 29.3L 157.325488 116L 177.425488 112.7L 178.725488 27.7ZM 177.425488 112.7L 154.025488 45.1L 134.125488 48.7L 157.325488 116ZM 134.125488 48.7L 135.525488 129.5L 155.425488 127.1L 154.025488 45.1ZM 155.425488 127.1L 138.625488 51.4L 118.725488 54.1L 135.525488 129.5ZM 118.725488 54.1L 122.425488 141.8L 142.325488 137.9L 138.625488 51.4ZM 142.325488 137.9L 118.625488 72.6L 98.625488 75.9L 122.425488 141.8ZM 98.625488 75.9L 97.325488 146.5L 117.325488 145.3L 118.625488 72.6ZM 117.325488 145.3L 109.025488 87.2L 88.925488 88.1L 97.325488 146.5ZM 88.925488 88.1L 84.225488 164.9L 104.425488 162.3L 109.025488 87.2ZM 104.425488 162.3L 85.825488 105.4L 65.325488 107L 84.225488 164.9ZM 65.325488 107L 54.725488 175.3L 74.925488 175.6L 85.825488 105.4ZM 74.925488 175.6L 67.525488 119L 47.525488 119.6L 54.725488 175.3ZM 47.525488 119.6L 42.925488 188.5L 63.225488 185.9L 67.525488 119ZM 63.225488 185.9L 47.825488 139.1L 26.425488 137.9L 42.925488 188.5ZM 26.425488 137.9L 13.025488 167.5L 35.225488 166.8L 47.825488 139.1ZM 35.225488 166.8L 25.125488 147.5L 7.425488 156.9L 13.025488 167.5Z" fill-rule="nonzero"></path></g></g></g><g id="g-root-auto_mb3qngkuy7ex-fill" data-item-order="0" transform="translate(424, 28)"></g><g id="g-root-tx_slo_zmk90skuy5tw-fill" data-item-order="0" transform="translate(484, 22)"><g id="tx_slo_zmk90skuy5tw-fill" stroke="none" fill="#484848"><g><text style="font: bold 25px Roboto, sans-serif; white-space: pre;" font-weight="bold" font-size="25px" font-family="Roboto, sans-serif"><tspan x="12" y="39.5" dominant-baseline="ideographic">サービスレベル目標 </tspan><tspan x="12" y="69.5" dominant-baseline="ideographic">(SLO)</tspan></text></g></g></g><g id="g-root-aler_18gye98kuiqrx-fill" data-item-order="0" transform="translate(424, 124)"></g><g id="g-root-tx__zmk90skuy5tx-fill" data-item-order="0" transform="translate(484, 130)"><g id="tx__zmk90skuy5tx-fill" stroke="none" fill="#484848"><g><text style="font: bold 25px Roboto, sans-serif; white-space: pre;" font-weight="bold" font-size="25px" font-family="Roboto, sans-serif"><tspan x="12" y="42.5" dominant-baseline="ideographic">エラーバジェット</tspan></text></g></g></g><g id="g-root-tx_sre_8yea3wkuy6tn-fill" data-item-order="0" transform="translate(82, 214)"><g id="tx_sre_8yea3wkuy6tn-fill" stroke="none" fill="#484848"><g><text style="font: bold 25px Roboto, sans-serif; white-space: pre;" font-weight="bold" font-size="25px" font-family="Roboto, sans-serif"><tspan x="16.27" y="39.5" dominant-baseline="ideographic">SRE文化</tspan><tspan x="26.5" y="69.5" dominant-baseline="ideographic">の導入</tspan></text></g></g></g><g id="g-root-sear_143msh8kuodfo-fill" data-item-order="0" transform="translate(424, 220)"></g><g id="g-root-tx__qqx8rwkuy6mm-fill" data-item-order="0" transform="translate(484, 226)"><g id="tx__qqx8rwkuy6mm-fill" stroke="none" fill="#484848"><g><text style="font: bold 25px Roboto, sans-serif; white-space: pre;" font-weight="bold" font-size="25px" font-family="Roboto, sans-serif"><tspan x="12" y="42.5" dominant-baseline="ideographic">Observability</tspan></text></g></g></g><g id="g-root-1_1430be4kuty4p-fill" data-item-order="0" transform="translate(424, 316)"></g><g id="g-root-tx__qqx8rwkuy6mn-fill" data-item-order="0" transform="translate(484, 322)"><g id="tx__qqx8rwkuy6mn-fill" stroke="none" fill="#484848"><g><text style="font: bold 25px Roboto, sans-serif; white-space: pre;" font-weight="bold" font-size="25px" font-family="Roboto, sans-serif"><tspan x="12" y="42.5" dominant-baseline="ideographic">インシデント管理</tspan></text></g></g></g><g id="g-root-2_zlbh64kuird8-fill" data-item-order="0" transform="translate(424, 412)"></g><g id="g-root-tx__v6qqwckuy6m8-fill" data-item-order="0" transform="translate(484, 418)"><g id="tx__v6qqwckuy6m8-fill" stroke="none" fill="#484848"><g><text style="font: bold 25px Roboto, sans-serif; white-space: pre;" font-weight="bold" font-size="25px" font-family="Roboto, sans-serif"><tspan x="12" y="42.5" dominant-baseline="ideographic">自動化</tspan></text></g></g></g><g id="g-root-0.cu_sy_1cz9pkckuws98-stroke" data-item-order="-380154" transform="translate(16, 124)"><g id="0.cu_sy_1cz9pkckuws98-stroke" fill="none" stroke-linecap="round" stroke-linejoin="round" stroke-miterlimit="4" stroke="#484848" stroke-width="4"><g><path d="M 250 130C 248.9 152.4 244.1 173.6 233.1 191.4C 221.9 209.6 207 225.9 187.7 235.2C 170.2 243.8 150.9 249.8 130 250C 108.9 250.3 88.3 245.7 71.8 235C 53.2 222.9 35.5 208.5 25.4 188.8C 16.3 171 9.5 151.4 10 130C 10.4 113.6 13.7 98.2 19.2 83.8C 24.8 69.1 33.4 55.5 45.1 45.2C 57.4 34.4 70.4 23.8 86.2 18.2C 99.9 13.4 114.6 9.5 130 10C 164.5 11.2 195.4 24.9 217.6 48C 238 69.1 250.6 98.3 250 130M 250 130C 250 196.2742 196.2742 250 130 250C 63.7258 250 10 196.2742 10 130C 10 63.7258 63.7258 10 130 10C 196.2742 10 250 63.7258 250 130Z"></path></g></g></g><g id="g-root-5.cu_sy_18jg7fwkuwt1h-stroke" data-item-order="-380150" transform="translate(215.37451171875, 298)"><g id="5.cu_sy_18jg7fwkuwt1h-stroke" fill="none" stroke-linecap="round" stroke-linejoin="round" stroke-miterlimit="4" stroke="#484848" stroke-width="4"><g><path d="M 602.625488 100C 584.225488 98.8 565.725488 98.4 547.325488 100C 527.125488 101.7 506.725488 101.3 486.425488 100C 465.025488 98.7 443.425488 100 422.025488 100C 401.025488 100 380.125488 100 359.225488 100C 338.325488 100 317.425488 100 296.625488 100C 278.825488 100 261.125488 100.6 243.325488 100C 223.125488 99.3 202.825488 98.7 182.625488 100C 165.825488 89.9 148.325488 80.8 132.725488 69C 117.825488 57.7 101.725488 48.2 85.225488 39.5C 68.825488 30.8 52.525488 21.4 37.825488 10C 31.725488 24.1 21.725488 36.3 10.025488 46C 22.125488 58.6 35.325488 70.4 49.625488 80.4C 66.725488 92.4 81.825488 106.9 96.825488 121.4C 109.425488 133.7 122.425488 145.9 136.825488 156.2C 153.225488 167.9 166.525488 183.7 182.625488 196C 195.025488 196.1 207.525488 195.1 219.925488 196C 232.525488 197 245.225488 195.1 257.925488 196C 269.425488 196.8 281.025488 196.4 292.525488 196C 303.925488 195.6 315.225488 196.2 326.525488 196C 338.525488 195.8 350.625488 197.9 362.425488 196C 372.925488 194.3 383.925488 197.8 394.525488 196C 406.025488 194 417.825488 196.1 429.425488 196C 442.125488 195.9 454.825488 197.1 467.525488 196C 478.525488 195.1 489.625488 196.2 500.625488 196C 512.325488 195.8 523.925488 196.9 535.525488 196C 547.625488 195 559.725488 196.7 571.825488 196C 582.125488 195.4 592.325488 195.7 602.625488 196C 602.825488 180.4 603.625488 164.8 602.625488 149.2C 601.625488 132.8 601.725488 116.4 602.625488 100M 602.6252 100L 182.6253 100L 37.8178 10C 30.8929 23.7192 21.4116 35.9279 10 46L 182.6253 196L 602.6252 196L 602.6252 100Z"></path></g></g></g><g id="g-root-4.cu_sy_18jg7fwkuwt1i-stroke" data-item-order="-380146" transform="translate(243.1923828125, 262)"><g id="4.cu_sy_18jg7fwkuwt1i-stroke" fill="none" stroke-linecap="round" stroke-linejoin="round" stroke-miterlimit="4" stroke="#484848" stroke-width="4"><g><path d="M 574.807617 40C 551.107617 38.9 527.307617 40.4 503.507617 40C 478.107617 39.6 452.607617 39 427.207617 40C 403.307617 40.9 379.307617 40.4 355.407617 40C 333.107617 39.6 310.807617 40.5 288.507617 40C 267.307617 39.5 246.207617 39.2 225.007617 40C 201.607617 40.9 178.207617 39.3 154.807617 40C 139.407617 38 124.207617 34.5 109.407617 29.8C 94.707617 25.1 79.307617 23.1 64.307617 19.6C 50.007617 16.4 35.907617 12.3 21.507617 10C 19.907617 22.8 14.607617 34.4 10.007617 46C 33.607617 59.7 56.907617 74 79.607617 89.3C 104.107617 105.8 129.007617 121.7 154.807617 136C 166.907617 135.6 179.007617 135.4 191.107617 136C 203.507617 136.6 215.907617 135.5 228.307617 136C 242.007617 136.6 255.807617 134.5 269.407617 136C 281.307617 137.3 293.407617 136 305.507617 136C 317.207617 136 329.007617 134.8 340.707617 136C 352.307617 137.2 364.107617 135.7 375.807617 136C 390.107617 136.4 404.307617 135.5 418.507617 136C 432.407617 136.5 446.207617 136 460.107617 136C 472.207617 136 484.407617 136.6 496.507617 136C 508.907617 135.4 521.207617 135.3 533.607617 136C 547.307617 136.8 561.107617 136.9 574.807617 136C 573.807617 119.5 574.407617 103 574.807617 86.5C 575.107617 71 575.807617 55.5 574.807617 40M 574.8075 40L 154.8075 40L 21.4665 10C 19.5456 22.7701 15.6123 34.8811 10 46L 154.8075 136L 574.8075 136L 574.8075 40Z"></path></g></g></g><g id="g-root-3.cu_sy_18jg7fwkuwt1j-stroke" data-item-order="-380142" transform="translate(254.65869140625, 196)"><g id="3.cu_sy_18jg7fwkuwt1j-stroke" fill="none" stroke-linecap="round" stroke-linejoin="round" stroke-miterlimit="4" stroke="#484848" stroke-width="4"><g><path d="M 563.341309 10C 542.541309 10.8 521.541309 10.9 500.741309 10C 481.141309 9.2 461.441309 9.2 441.741309 10C 422.741309 10.8 403.641309 10.4 384.541309 10C 362.941309 9.5 341.241309 8 319.641309 10C 300.941309 11.7 282.041309 9.3 263.241309 10C 243.441309 10.8 223.541309 11.1 203.741309 10C 183.641309 8.8 163.441309 11.6 143.341309 10C 119.041309 14 94.741309 18.9 71.141309 26.2C 51.241309 32.4 30.041309 34 10.041309 40C 10.541309 45.9 10.541309 51.9 11.341309 58C 12.141309 64.1 11.541309 70.3 10.041309 76C 24.241309 80.7 39.341309 82.5 53.941309 85.9C 69.641309 89.6 85.341309 93.9 101.241309 96.5C 115.441309 98.9 129.641309 101.5 143.341309 106C 160.141309 106.5 177.041309 105.6 193.841309 106C 208.741309 106.4 223.641309 106.4 238.541309 106C 252.541309 105.7 266.441309 106.2 280.441309 106C 297.441309 105.8 314.441309 107.4 331.341309 106C 347.841309 104.7 364.641309 107.5 381.141309 106C 397.741309 104.4 414.641309 104.3 431.241309 106C 444.741309 107.4 458.541309 107.2 472.141309 106C 487.541309 104.7 503.041309 106.4 518.441309 106C 533.441309 105.6 548.441309 105.2 563.341309 106C 561.441309 91.3 563.341309 76.3 563.341309 61.5C 563.341309 44.3 563.941309 27.1 563.341309 10M 563.3409 10L 143.341 10L 10 40C 10.8832 45.8715 11.341 51.8823 11.341 58C 11.341 64.1177 10.8832 70.1285 10 76L 143.341 106L 563.3409 106L 563.3409 10Z"></path></g></g></g><g id="g-root-2.cu_sy_143mpbgkuwtts-stroke" data-item-order="-380138" transform="translate(243.1923828125, 100)"><g id="2.cu_sy_143mpbgkuwtts-stroke" fill="none" stroke-linecap="round" stroke-linejoin="round" stroke-miterlimit="4" stroke="#484848" stroke-width="4"><g><path d="M 574.807617 10C 553.607617 11.1 532.307617 8.2 511.207617 10C 485.207617 12.2 459.107617 9.9 433.007617 10C 411.107617 10.1 389.107617 10.6 367.107617 10C 345.407617 9.4 323.707617 10.8 302.007617 10C 277.607617 9.1 253.207617 10.2 228.807617 10C 204.107617 9.8 179.407617 8.7 154.807617 10C 138.107617 20 121.807617 30.7 105.207617 40.9C 90.407617 49.9 75.607617 58.8 61.007617 68.3C 44.207617 79.2 27.207617 89.7 10.007617 100C 15.807617 111 21.307617 123.1 21.507617 136C 44.107617 132 66.607617 127.2 88.707617 120.9C 110.407617 114.7 132.907617 111.7 154.807617 106C 180.907617 106.5 207.107617 107.6 233.207617 106C 262.207617 104.2 291.407617 106.1 320.507617 106C 349.007617 105.9 377.507617 107.6 406.007617 106C 436.307617 104.3 466.807617 104.7 497.207617 106C 523.007617 107.1 549.007617 104.6 574.807617 106C 574.807617 90.8 574.707617 75.7 574.807617 60.5C 574.907617 43.7 576.207617 26.8 574.807617 10M 574.8075 10L 154.8075 10L 10 100C 15.6123 111.1189 19.5456 123.2299 21.4665 136L 154.8075 106L 574.8075 106L 574.8075 10Z"></path></g></g></g><g id="g-root-1.cu_sy_143mpbgkuwttt-stroke" data-item-order="-380134" transform="translate(215.37451171875, 4)"><g id="1.cu_sy_143mpbgkuwttt-stroke" fill="none" stroke-linecap="round" stroke-linejoin="round" stroke-miterlimit="4" stroke="#484848" stroke-width="4"><g><path d="M 182.625488 10C 204.525488 10.1 226.425488 11.3 248.225488 10C 270.025488 8.7 291.925488 10.5 313.725488 10C 337.825488 9.4 362.025488 11.1 386.125488 10C 412.425488 8.8 438.925488 11.2 465.225488 10C 487.525488 9 509.825488 11.3 532.125488 10C 555.525488 8.6 579.125488 9.2 602.625488 10C 603.625488 42 602.625488 74 602.625488 106C 587.325488 106.9 571.925488 107.1 556.525488 106C 541.925488 105 527.125488 104.9 512.525488 106C 496.725488 107.2 480.725488 106.2 464.925488 106C 450.225488 105.8 435.525488 104.4 421.025488 106C 404.225488 107.9 387.225488 106.4 370.425488 106C 354.125488 105.7 337.825488 105.5 321.525488 106C 306.825488 106.5 292.025488 104.2 277.425488 106C 261.725488 107.9 245.725488 104.1 230.025488 106C 214.325488 107.9 198.325488 104.3 182.625488 106C 159.725488 120.3 135.825488 133.1 113.925488 148.7C 89.625488 166.1 62.425488 179.1 37.825488 196C 31.225488 182.1 20.725488 170.8 10.025488 160C 29.825488 141.5 51.825488 125.4 71.325488 106.7C 88.225488 90.5 105.825488 74.9 124.325488 60.6C 144.725488 44.9 163.525488 27.3 182.625488 10M 182.6253 10L 602.6252 10L 602.6252 106L 182.6253 106L 37.8178 196C 30.8929 182.2808 21.4116 170.0721 10 160L 182.6253 10Z"></path></g></g></g><g id="g-root-auto_mb3qngkuy7ex-stroke" data-item-order="0" transform="translate(424, 28)"><g id="auto_mb3qngkuy7ex-stroke" fill="none" stroke-linecap="round" stroke-linejoin="round" stroke-miterlimit="4" stroke="#484848" stroke-width="2"><g><path d="M 40.599998 38.599998C 40.599998 39.799999 39.599998 40.799999 38.599998 40.599998C 35.599998 39.799999 32.400002 39.599998 29.6 40.599998C 28.4 40.799999 27.4 39.799999 27.6 38.599998C 27.799999 35.599998 27 32.400002 27.6 29.6C 27.6 28.4 28.4 27 29.6 27.6C 32.400002 28.6 35.599998 27.6 38.599998 27.6C 39.599998 27.4 41 28.4 40.599998 29.6C 39.400002 32.200001 40.599998 35.599998 40.599998 38.599998M 10 10M 17.6 30.200001C 19.200001 31.200001 19.799999 33.200001 21.6 34.200001C 20.4 35.599998 18.6 36.599998 17.6 38.200001M 21.6 34.200001C 18.200001 34.599998 14.8 33.799999 11.6 34.200001M 10 10M 50.599998 30.200001C 49 31 47.200001 32.400002 46.599998 34.200001C 47.400002 35.799999 49.400002 36.599998 50.599998 38.200001M 46.599998 34.200001C 49.599998 33 53.200001 33.400002 56.599998 34.200001M 10 10M 30.200001 15.6C 31.4 14 32.400002 12.4 34.200001 11.6C 35.200001 13 36.400002 14.6 38.200001 15.6M 34.200001 11.6C 33.799999 14.8 35 18.200001 34.200001 21.6M 10 10M 30.200001 52.599998C 31.4 53.799999 32.799999 55.200001 34.200001 56.599998C 35 54.799999 36.599998 53.599998 38.200001 52.599998M 34.200001 56.599998C 33.200001 53.400002 33.599998 49.799999 34.200001 46.599998M 40.5 38.5C 40.5 39.700001 39.700001 40.5 38.5 40.5L 29.5 40.5C 28.299999 40.5 27.5 39.700001 27.5 38.5L 27.5 29.5C 27.5 28.299999 28.299999 27.5 29.5 27.5L 38.5 27.5C 39.700001 27.5 40.5 28.299999 40.5 29.5L 40.5 38.5ZM 10 10M 17.5 30.1L 21.5 34.099998L 17.5 38.099998M 21.5 34.099998L 11.5 34.099998M 10 10M 50.5 30.1L 46.5 34.099998L 50.5 38.099998M 46.5 34.099998L 56.5 34.099998M 10 10M 30.1 15.5L 34.099998 11.5L 38.099998 15.5M 34.099998 11.5L 34.099998 21.5M 10 10M 30.1 52.5L 34.099998 56.5L 38.099998 52.5M 34.099998 56.5L 34.099998 46.5"></path></g></g></g><g id="g-root-tx_slo_zmk90skuy5tw-stroke" data-item-order="0" transform="translate(484, 22)"></g><g id="g-root-aler_18gye98kuiqrx-stroke" data-item-order="0" transform="translate(424, 124)"><g id="aler_18gye98kuiqrx-stroke" fill="none" stroke-linecap="round" stroke-linejoin="round" stroke-miterlimit="4" stroke="#484848" stroke-width="2"><g><path d="M 30.4 46C 25.4 45.599998 20.200001 45.599998 15.2 46C 12.8 46.200001 10.8 44 11 41.799999C 12 33 13.4 23.799999 11 15.4C 10.4 13 13 11.6 15.2 11C 25.6 8.8 36.400002 9.6 47 11C 49.200001 11.4 51 13 51.200001 15.4C 51.799999 20.200001 51.799999 25.4 51.200001 30.200001M 11 19.4C 24.200001 21.799999 37.799999 17.6 51.200001 19.4M 11 36.799999C 18.200001 35.200001 25.799999 35.599998 33 36.799999M 11 28.200001C 24.4 27.200001 38 25.799999 51.200001 28.200001M 27.4 19.4C 25.4 28 29.4 37.400002 27.4 46M 39.200001 19.4C 39.599998 23.4 39.599998 27.4 39.200001 31.4M 45 51C 44.599998 50.799999 44.400002 51.200001 44.200001 51.599998C 44.200001 52 44.599998 52.400002 45 52.400002C 45.400002 52.400002 45.599998 52 45.799999 51.599998C 45.799999 51.200001 45.400002 50.799999 45 51M 45 46.400002C 44.400002 44.599998 45.200001 42.400002 45 40.400002M 56.599998 51.799999C 56.799999 53 56.799999 54 56.400002 55.200001C 56.200001 56.400002 54.599998 56.400002 53.400002 57C 48.200001 58.799999 42.200001 56.599998 36.599998 57C 35.400002 57 34.400002 56 33.599998 55.200001C 32.799999 54.400002 33.400002 53 33.400002 51.799999C 34 45.599998 38 39.799999 41.799999 35C 42.599998 33.799999 43.799999 33.400002 45 33C 46.200001 32.400002 47.599998 33.799999 48.200001 35C 51.200001 40.400002 52.799999 46.799999 56.599998 51.799999M 30.450001 45.972L 15.228001 45.972C 12.892941 45.972 11 44.07906 11 41.744003L 11 15.323999C 11 12.98894 12.892941 11.096 15.228001 11.096L 46.931999 11.096C 49.266281 11.097104 51.158001 12.989721 51.158001 15.323999L 51.158001 30.24M 11 19.352001L 51.158001 19.352001M 11 36.893997L 33.073997 36.893997M 11 28.136L 51.158001 28.136M 27.402 19.352001L 27.402 45.972M 39.162003 19.352001L 39.162003 31.43M 45.035999 50.922001C 44.622894 50.922005 44.288002 51.256893 44.288002 51.670002C 44.288002 52.083111 44.622894 52.418003 45.036003 52.418003C 45.449112 52.418003 45.784004 52.083111 45.784004 51.670002C 45.784004 51.256893 45.449112 50.922005 45.036003 50.922005L 45.035999 50.922001M 45.035999 46.436001L 45.035999 40.454002M 56.627998 51.782001C 57.174915 52.879311 57.115459 54.181423 56.470821 55.224327C 55.826183 56.267231 54.688053 56.902592 53.462002 56.903999L 36.610001 56.903999C 35.384304 56.901901 34.246811 56.266262 33.602654 55.223476C 32.958496 54.180695 32.899246 52.878994 33.445999 51.782001L 41.872002 34.93C 42.4715 33.731911 43.696293 32.975208 45.035999 32.975208C 46.375706 32.975208 47.600498 33.731911 48.200001 34.93Z"></path></g></g></g><g id="g-root-tx__zmk90skuy5tx-stroke" data-item-order="0" transform="translate(484, 130)"></g><g id="g-root-tx_sre_8yea3wkuy6tn-stroke" data-item-order="0" transform="translate(82, 214)"></g><g id="g-root-sear_143msh8kuodfo-stroke" data-item-order="0" transform="translate(424, 220)"><g id="sear_143msh8kuodfo-stroke" fill="none" stroke-linecap="round" stroke-linejoin="round" stroke-miterlimit="4" stroke="#484848" stroke-width="2"><g><path d="M 33.400002 46C 41.400002 43.200001 48.799999 39.200001 48.799999 30.6C 49 22.200001 42 15.2 33.400002 15.2C 25 15.4 17 22.200001 18 30.6C 19.200001 39.200001 25.200001 44.200001 33.400002 46M 10 10M 55.400002 52.799999C 51.599998 49.200001 47.799999 45.599998 44.400002 41.599998M 11.6 31.799999C 15.2 30.6 19.200001 31.200001 23.200001 31.799999C 23.799999 30.4 24.200001 29 25.200001 27.799999C 27.4 30.6 28.200001 34.400002 30.200001 37.799999C 33.400002 32.799999 32.400002 26.200001 34.200001 20.799999C 35 27.200001 38.400002 33.200001 38.200001 39.799999C 39.200001 36.799999 41.200001 34.200001 43.200001 31.799999C 47.400002 33 52 31.4 56.599998 31.799999M 33.499802 46.0998C 42.005001 46.0998 48.899799 39.205002 48.899799 30.6998C 48.899799 22.19462 42.005001 15.2998 33.499802 15.2998C 24.994659 15.2998 18.099861 22.19462 18.099861 30.6998C 18.099861 39.205002 24.994659 46.0998 33.499802 46.0998ZM 10 10M 55.499802 52.700001L 44.499802 41.5M 11.5 31.700199L 23.1 31.700199L 25.1 27.700199L 30.1 37.700199L 34.099998 20.700199L 38.099998 39.700199L 43.099998 31.700199L 56.5 31.700199"></path></g></g></g><g id="g-root-tx__qqx8rwkuy6mm-stroke" data-item-order="0" transform="translate(484, 226)"></g><g id="g-root-1_1430be4kuty4p-stroke" data-item-order="0" transform="translate(424, 316)"><g id="1_1430be4kuty4p-stroke" fill="none" stroke-linecap="round" stroke-linejoin="round" stroke-miterlimit="4" stroke="#484848" stroke-width="2"><g><path d="M 45 51C 44.799999 51 44.599998 51.200001 44.599998 51.599998C 44.400002 51.799999 44.799999 52 45 52C 45.200001 52 45.400002 51.799999 45.599998 51.599998C 45.599998 51.200001 45.200001 51 45 51M 45 47C 44.599998 45 45.599998 43 45 41M 46.599998 35C 46.200001 34.400002 45.599998 34.200001 45 34C 44.400002 33.799999 43.799999 34.400002 43.400002 35C 39 40.799999 38.200001 49 33.200001 54.200001C 32.799999 54.799999 33 55.599998 33.200001 56C 33.599998 56.599998 34.200001 56.799999 34.799999 57C 41.200001 59.400002 48.400002 57 55.200001 57C 55.799999 57 56.400002 56.599998 56.799999 56C 57.200001 55.599998 57 54.799999 56.799999 54.200001C 53.400002 48 51.400002 40.599998 46.599998 35M 21 51C 23 51 25 51.400002 27 51M 27 41C 27.200001 44.400002 27.200001 47.599998 27 51M 16.6 50C 16.200001 50 16 50.200001 16 50.599998C 16 50.799999 16.200001 51 16.6 51C 16.799999 51 17 50.799999 17 50.599998C 17 50.200001 16.799999 50 16.6 50M 11.6 50C 11.2 50 11 50.200001 11 50.599998C 11 50.799999 11.2 51 11.6 51C 11.8 51 12 50.799999 12 50.599998C 12 50.200001 11.8 50 11.6 50M 18.6 35.599998C 18.200001 35.599998 18 35.799999 18 36C 18 36.200001 18.200001 36.599998 18.6 36.599998C 18.799999 36.400002 19 36.200001 19 36C 19 35.799999 18.799999 35.400002 18.6 35.599998M 23.6 35.599998C 23.200001 35.599998 23 35.799999 23 36C 23 36.200001 23.200001 36.400002 23.6 36.599998C 23.799999 36.599998 24 36.200001 24 36C 24 35.799999 23.799999 35.599998 23.6 35.599998M 39 31C 31.6 29 23.6 31.4 16 31C 13.2 30.799999 11.6 33.200001 11 36C 10.4 38.599998 13.2 41.599998 16 41C 21.6 40 27.4 41 33 41M 18.6 25.6C 18.200001 25.4 18 25.799999 18 26C 18 26.200001 18.200001 26.6 18.6 26.6C 18.799999 26.4 19 26.200001 19 26C 19 25.799999 18.799999 25.4 18.6 25.6M 23.6 25.6C 23.200001 25.4 23.200001 25.799999 23 26C 23 26.200001 23.200001 26.4 23.6 26.6C 23.799999 26.6 24 26.200001 24 26C 24 25.799999 23.799999 25.6 23.6 25.6M 45 26C 45.200001 23.200001 42.599998 21.799999 40 21C 32.400002 18.6 24 20.200001 16 21C 13.2 21.4 11.8 23.4 11 26C 10.2 28.6 13.2 30.799999 16 31C 23.6 31.799999 31.4 30.200001 39 31M 18.6 15.6C 18.200001 15.6 18 15.8 18 16C 18 16.200001 18.200001 16.4 18.6 16.6C 18.799999 16.6 18.799999 16.200001 19 16C 19 15.8 18.799999 15.4 18.6 15.6M 23.6 15.6C 23.200001 15.6 23 15.8 23 16C 23 16.200001 23.200001 16.6 23.6 16.6C 23.799999 16.4 24 16.200001 24 16C 24 15.8 23.799999 15.4 23.6 15.6M 45 16C 45.799999 13.4 42.799999 11.2 40 11C 32 10.6 24 10.6 16 11C 13.2 11.2 11.6 13.4 11 16C 10.4 18.6 13.4 20.200001 16 21C 23.6 23.4 32.200001 18.799999 40 21C 42.599998 21.799999 44.799999 18.799999 45 16M 45 51C 44.723858 51 44.5 51.223858 44.5 51.5C 44.5 51.776142 44.723858 52 45 52C 45.276142 52 45.5 51.776142 45.5 51.5C 45.5 51.223858 45.276142 51 45 51L 45 51M 45 47L 45 41M 46.675999 35C 46.345634 34.381348 45.701336 33.995003 45 33.995003C 44.298668 33.995003 43.654366 34.381348 43.324001 35L 33.211998 54.268002C 32.908127 54.845463 32.931698 55.540451 33.274002 56.095997C 33.619701 56.655155 34.230614 56.995056 34.888 56.994003L 55.112 56.993999C 55.76889 56.995094 56.379543 56.656097 56.726002 56.098003C 57.068298 55.54245 57.091869 54.847462 56.787998 54.27ZM 21 51L 27 51M 27.002001 41L 27.002001 51M 16.5 50C 16.223858 50 16 50.223858 16 50.5C 16 50.776142 16.223858 51 16.5 51C 16.776142 51 17 50.776142 17 50.5C 17 50.223858 16.776142 50 16.5 50L 16.5 50M 11.5 50C 11.223858 50 11 50.223858 11 50.5C 11 50.776142 11.223858 51 11.5 51C 11.776142 51 12 50.776142 12 50.5C 12 50.223858 11.776142 50 11.5 50L 11.5 50M 18.5 35.5C 18.223858 35.5 18 35.723858 18 36C 18 36.276142 18.223858 36.5 18.5 36.5C 18.776142 36.5 19 36.276142 19 36C 19 35.723858 18.776142 35.5 18.5 35.5L 18.5 35.5M 23.5 35.5C 23.223858 35.5 23 35.723858 23 36C 23 36.276142 23.223858 36.5 23.5 36.5C 23.776142 36.5 24 36.276142 24 36C 24 35.723858 23.776142 35.5 23.5 35.5L 23.5 35.5M 39 31L 16 31C 13.238577 31 11 33.238579 11 36C 11 38.761425 13.238577 41 16 41L 33 41M 18.5 25.5C 18.223858 25.5 18 25.723858 18 26C 18 26.276142 18.223858 26.5 18.5 26.5C 18.776142 26.5 19 26.276142 19 26C 19 25.723858 18.776142 25.5 18.5 25.5L 18.5 25.5M 23.5 25.5C 23.223858 25.5 23 25.723858 23 26C 23 26.276142 23.223858 26.5 23.5 26.5C 23.776142 26.5 24 26.276142 24 26C 24 25.723858 23.776142 25.5 23.5 25.5L 23.5 25.5M 45 26C 45 23.238577 42.761425 21 40 21L 16 21C 13.238577 21 11 23.238577 11 26C 11 28.761423 13.238577 31 16 31L 39 31M 18.5 15.5C 18.223858 15.5 18 15.723858 18 16C 18 16.276142 18.223858 16.5 18.5 16.5C 18.776142 16.5 19 16.276142 19 16C 19 15.723858 18.776142 15.5 18.5 15.5L 18.5 15.5M 23.5 15.5C 23.223858 15.5 23 15.723858 23 16C 23 16.276142 23.223858 16.5 23.5 16.5C 23.776142 16.5 24 16.276142 24 16C 24 15.723858 23.776142 15.5 23.5 15.5L 23.5 15.5M 45 16C 45 13.238576 42.761425 11 40 11L 16 11C 13.238577 11 11 13.238577 11 16C 11 18.761425 13.238577 21 16 21L 40 21C 42.761425 21 45 18.761425 45 16Z"></path></g></g></g><g id="g-root-tx__qqx8rwkuy6mn-stroke" data-item-order="0" transform="translate(484, 322)"></g><g id="g-root-2_zlbh64kuird8-stroke" data-item-order="0" transform="translate(424, 412)"><g id="2_zlbh64kuird8-stroke" fill="none" stroke-linecap="round" stroke-linejoin="round" stroke-miterlimit="4" stroke="#484848" stroke-width="2"><g><path d="M 20.6 38.599998C 20 41.400002 20.200001 44.599998 20.6 47.599998C 17.6 48.599998 14.6 47.599998 11.6 47.599998M 47.599998 29.6C 47.200001 26.6 47.799999 23.4 47.599998 20.6C 50.400002 21.4 53.599998 21.4 56.599998 20.6M 48.200001 20.6C 50.400002 24.799999 55.400002 29 53.599998 34.200001C 49.799999 44.200001 44.400002 56 34 53.799999C 31.4 53.200001 28.6 53.599998 26.4 52.400002M 20 47.599998C 17.6 43.200001 13.6 39.200001 14.6 34C 16.4 23.200001 23.4 14.2 34.200001 14.4C 36.599998 14.4 39.200001 15.4 41.799999 15.8M 34 35.200001C 33.400002 35.200001 32.799999 34.599998 33 34.200001C 33 33.599998 33.400002 33 34 33.200001M 33.799999 35.200001C 34.400002 34.799999 34.799999 34.599998 34.799999 34.200001C 35 33.599998 34.400002 33 33.799999 33.200001M 10 10M 35.799999 25.799999C 35.599998 26.4 36.200001 27 36.400002 27.799999C 36.400002 28.6 37.400002 29 38 28.799999C 38.599998 28.6 39.200001 28.4 40 28.4C 41.799999 28.200001 43 30.200001 41.799999 31.6C 41.200001 32 40.799999 32.599998 40.400002 33.200001C 39.799999 33.799999 39.799999 34.400002 40.400002 35.200001C 40.799999 35.599998 41.200001 36.200001 41.799999 36.799999C 43 38 41.799999 40.200001 40 40C 39.200001 39.799999 38.599998 39.799999 38 39.599998C 37.200001 39.200001 36.400002 39.599998 36.400002 40.599998C 36.200001 41.200001 36 41.799999 35.799999 42.599998C 34.799999 44.200001 32.599998 44.200001 32 42.599998C 31.799999 41.799999 31.799999 41.200001 31.4 40.599998C 31.200001 39.799999 30.6 39.400002 29.799999 39.599998C 29.200001 39.400002 28.6 40 27.799999 40C 26 39.599998 25 38.200001 26 36.799999C 26.6 36.200001 27 35.599998 27.4 35C 28.200001 34.599998 28.200001 33.599998 27.4 33C 26.799999 32.799999 26.6 32 26 31.4C 25 30 26.200001 28 27.799999 28.4C 28.6 28.4 29.200001 28.6 29.799999 28.799999C 30.799999 28.799999 31.4 28.6 31.4 27.799999C 31.6 27 32 26.4 32 25.799999C 32.200001 23.799999 35.400002 23.799999 35.799999 25.799999M 20.5 38.5L 20.5 47.5L 11.5 47.5M 47.5 29.5L 47.5 20.5L 56.5 20.5M 48.099998 20.5C 51.5 24.1 53.5 28.700001 53.5 34.099998C 53.5 44.900002 44.700001 53.700001 33.900002 53.700001C 31.299999 53.700001 28.700041 53.099998 26.300039 52.299999M 19.9 47.5C 16.5 43.900002 14.5 39.299999 14.5 33.900002C 14.5 23.10004 23.299999 14.300039 34.099998 14.300039C 36.700001 14.300039 39.299999 14.90004 41.700001 15.70004M 33.900002 35.099998C 33.347801 35.099998 32.900002 34.652397 32.900002 34.099998C 32.900002 33.547798 33.347801 33.099998 33.900002 33.099998M 33.899799 35.099998C 34.452 35.099998 34.899799 34.652397 34.899799 34.099998C 34.899799 33.547798 34.452 33.099998 33.899799 33.099998M 10 10M 35.700001 25.7001L 36.299999 27.7001C 36.5 28.500099 37.299999 28.900101 37.900002 28.7001L 39.900002 28.3001C 41.700001 27.900101 42.900002 30.1 41.700001 31.5L 40.299999 33.099998C 39.700001 33.700001 39.700001 34.5 40.299999 35.099998L 41.700001 36.700001C 42.900002 38.099998 41.700001 40.299999 39.900002 39.900002L 37.900002 39.5C 37.099998 39.299999 36.5 39.700001 36.299999 40.5L 35.700001 42.5C 35.099998 44.299999 32.700001 44.299999 32.099998 42.5L 31.5 40.5C 31.299999 39.700001 30.5 39.299999 29.899981 39.5L 27.899981 39.900002C 26.099979 40.299999 24.899979 38.099998 26.099979 36.700001L 27.499981 35.099998C 28.099979 34.5 28.099979 33.700001 27.499981 33.099998L 26.099979 31.5C 24.899979 30.1 26.099979 27.900101 27.899981 28.3001L 29.899981 28.7001C 30.700001 28.900101 31.299999 28.500099 31.5 27.7001L 32.099998 25.7001C 32.700001 23.900101 35.299999 23.900101 35.700001 25.7001Z"></path></g></g></g><g id="g-root-tx__v6qqwckuy6m8-stroke" data-item-order="0" transform="translate(484, 418)"></g></g></g></svg>