<?xml version="1.0" encoding="utf-8" standalone="yes"?>
<!DOCTYPE svg PUBLIC "-//W3C//DTD SVG 1.1//EN" "http://www.w3.org/Graphics/SVG/1.1/DTD/svg11.dtd">
<svg width="525" height="352" viewBox="0 0 525 352" style="fill:none;stroke:none;fill-rule:evenodd;clip-rule:evenodd;stroke-linecap:round;stroke-linejoin:round;stroke-miterlimit:1.5;" version="1.1" xmlns="http://www.w3.org/2000/svg" xmlns:xlink="http://www.w3.org/1999/xlink"><style id="fontImports">@import url("https://fonts.googleapis.com/css2?family=Roboto:wght@400;700&amp;display=block");</style><g id="items" style="isolation: isolate"><g id="blend" style="mix-blend-mode: normal"><g id="g-root-4.cu_sy_1uqjjqeer4avj-fill" data-item-order="2999879046" transform="translate(268, 22.083984375)"><g id="4.cu_sy_1uqjjqeer4avj-fill" stroke="none" fill="#ffd7ef"><g><path d="M 8 7L 6.9 8.5L 18.9 26.1L 24.2 18.7ZM 18.9 26.1L 49.3 18.2L 34.4 1.4L 6.9 8.5ZM 34.4 1.4L 9.8 63.6L 27.4 73.5L 49.3 18.2ZM 27.4 73.5L 71.4 16.5L 53.7 6.6L 9.8 63.6ZM 53.7 6.6L 26.4 77.8L 44.3 87.1L 71.4 16.5ZM 44.3 87.1L 94.8 12.3L 76.8 3.1L 26.4 77.8ZM 76.8 3.1L 50.7 73.7L 68.4 83.5L 94.8 12.3ZM 68.4 83.5L 118.9 18.1L 101.6 7.8L 50.7 73.7ZM 101.6 7.8L 70.7 77L 88.3 86.6L 118.9 18.1ZM 88.3 86.6L 135.3 14.7L 117.1 5.9L 70.7 77ZM 117.1 5.9L 93.3 77.9L 111.3 87.1L 135.3 14.7ZM 111.3 87.1L 162.1 16.2L 144.6 6.3L 93.3 77.9ZM 144.6 6.3L 113.4 78.4L 131.1 87.8L 162.1 16.2ZM 131.1 87.8L 177.2 15.6L 158.9 7L 113.4 78.4ZM 158.9 7L 137.8 73.7L 154.1 88.5L 177.2 15.6ZM 154.1 88.5L 184.7 75.3L 169.5 60.1L 137.8 73.7ZM 169.5 60.1L 161.9 77.9L 180.2 85.8L 184.7 75.3Z" fill-rule="nonzero"></path></g></g></g><g id="g-root-3.cu_sy_58zvqer4b28-fill" data-item-order="2999879050" transform="translate(184, 94.083984375)"><g id="3.cu_sy_58zvqer4b28-fill" stroke="none" fill="#ffd9d8"><g><path d="M 9.8 13.7L 9.8 13.5L 27.6 28.6L 29.5 16.9ZM 27.6 28.6L 47.7 21.9L 32.1 6.1L 9.8 13.5ZM 32.1 6.1L 6.6 79.2L 24.9 87.6L 47.7 21.9ZM 24.9 87.6L 68.4 12.9L 50.1 4.6L 6.6 79.2ZM 50.1 4.6L 26.7 73.5L 44.7 82.7L 68.4 12.9ZM 44.7 82.7L 93.6 14.1L 75.8 4.6L 26.7 73.5ZM 75.8 4.6L 50.3 71.6L 68 81.3L 93.6 14.1ZM 68 81.3L 118.7 13.5L 101 3.8L 50.3 71.6ZM 101 3.8L 74.6 73.7L 92.2 83.7L 118.7 13.5ZM 92.2 83.7L 142.3 21.7L 125.4 10.8L 74.6 73.7ZM 125.4 10.8L 94.1 72.5L 111.2 83.1L 142.3 21.7ZM 111.2 83.1L 161.3 15.8L 144.1 5.5L 94.1 72.5ZM 144.1 5.5L 111.9 75.5L 129.2 85.8L 161.3 15.8ZM 129.2 85.8L 180.3 16.7L 162.9 6.7L 111.9 75.5ZM 162.9 6.7L 137.2 67L 150.7 86.5L 180.3 16.7ZM 150.7 86.5L 179.2 85.4L 172.5 65.6L 137.2 67ZM 172.5 65.6L 161.2 73.6L 172.8 89.9L 179.2 85.4Z" fill-rule="nonzero"></path></g></g></g><g id="g-root-2.cu_sy_58zvqer4b29-fill" data-item-order="2999879054" transform="translate(100, 166.083984375)"><g id="2.cu_sy_58zvqer4b29-fill" stroke="none" fill="#ffe4cb"><g><path d="M 13.3 3.8L 8.4 11.2L 20.7 28.6L 29.9 15ZM 20.7 28.6L 47.1 21.7L 32.4 4.8L 8.4 11.2ZM 32.4 4.8L 6.4 67.5L 23.6 78.2L 47.1 21.7ZM 23.6 78.2L 76.4 17.5L 59.6 6.4L 6.4 67.5ZM 59.6 6.4L 25.7 76.5L 42.9 87L 76.4 17.5ZM 42.9 87L 93.4 19.8L 76.2 9.5L 25.7 76.5ZM 76.2 9.5L 44.7 78.4L 62 88.6L 93.4 19.8ZM 62 88.6L 117.1 13.4L 99.6 3.5L 44.7 78.4ZM 99.6 3.5L 68.4 76.9L 85.9 86.8L 117.1 13.4ZM 85.9 86.8L 137 17.2L 119.1 7.7L 68.4 76.9ZM 119.1 7.7L 96 72.8L 113.9 82.3L 137 17.2ZM 113.9 82.3L 163.8 13.9L 146.3 4L 96 72.8ZM 146.3 4L 115.1 77.4L 132.6 87.4L 163.8 13.9ZM 132.6 87.4L 183.2 18.7L 165.6 8.8L 115.1 77.4ZM 165.6 8.8L 137.9 74.9L 153.6 89.1L 183.2 18.7ZM 153.6 89.1L 181.1 74.3L 162.5 61.6L 137.9 74.9ZM 162.5 61.6L 160.1 81L 180 83.4L 181.1 74.3Z" fill-rule="nonzero"></path></g></g></g><g id="g-root-1.cu_sy_1qaq1lyer4bnu-fill" data-item-order="2999879058" transform="translate(16, 238.083984375)"><g id="1.cu_sy_1qaq1lyer4bnu-fill" stroke="none" fill="#fff8b6"><g><path d="M 12.3 5L 8.1 17.1L 24.7 30.4L 31.2 11.6ZM 24.7 30.4L 46.2 17.1L 30 3.6L 8.1 17.1ZM 30 3.6L 1.9 74.8L 19.4 85.1L 46.2 17.1ZM 19.4 85.1L 75.2 17.4L 57.9 7L 1.9 74.8ZM 57.9 7L 28.9 76.2L 46.7 85.6L 75.2 17.4ZM 46.7 85.6L 89 20.4L 71.3 11L 28.9 76.2ZM 71.3 11L 44.3 74L 61.5 84.7L 89 20.4ZM 61.5 84.7L 116.6 20.7L 99 10.5L 44.3 74ZM 99 10.5L 74.6 78.7L 92.8 87.4L 116.6 20.7ZM 92.8 87.4L 136.5 14.9L 118.6 5.8L 74.6 78.7ZM 118.6 5.8L 88.6 78L 106 88.3L 136.5 14.9ZM 106 88.3L 162 18.8L 144.6 8.6L 88.6 78ZM 144.6 8.6L 118.2 73.9L 135.6 84.2L 162 18.8ZM 135.6 84.2L 186.1 21.6L 169 10.9L 118.2 73.9ZM 169 10.9L 141.8 69.3L 155.2 87.8L 186.1 21.6ZM 155.2 87.8L 163.3 86.8L 162.3 83.5L 181.3 77.5L 182.8 82.2L 159.4 67.1L 141.8 69.3Z" fill-rule="nonzero"></path></g></g></g><g id="g-root-tx__1qaq1lyer4bnv-fill" data-item-order="3000000000" transform="translate(286, 34.083984375)"><g id="tx__1qaq1lyer4bnv-fill" stroke="none" fill="#484848"><g><text style="font: 20px Roboto, sans-serif; white-space: pre;" font-size="20px" font-family="Roboto, sans-serif"><tspan x="16.5" y="33.5" dominant-baseline="ideographic">プリンシパル</tspan><tspan x="26.59" y="57.5" dominant-baseline="ideographic">エンジニア</tspan></text></g></g></g><g id="g-root-tx__1luwjhier4cg4-fill" data-item-order="3000000000" transform="translate(214, 106.083984375)"><g id="tx__1luwjhier4cg4-fill" stroke="none" fill="#484848"><g><text style="font: 20px Roboto, sans-serif; white-space: pre;" font-size="20px" font-family="Roboto, sans-serif"><tspan x="24.8" y="33.5" dominant-baseline="ideographic">スタッフ</tspan><tspan x="14.6" y="57.5" dominant-baseline="ideographic">エンジニア</tspan></text></g></g></g><g id="g-root-tx__1luwjhier4cg5-fill" data-item-order="3000000000" transform="translate(130, 178.083984375)"><g id="tx__1luwjhier4cg5-fill" stroke="none" fill="#484848"><g><text style="font: 20px Roboto, sans-serif; white-space: pre;" font-size="20px" font-family="Roboto, sans-serif"><tspan x="34" y="33.5" dominant-baseline="ideographic">シニア</tspan><tspan x="14.6" y="57.5" dominant-baseline="ideographic">エンジニア</tspan></text></g></g></g><g id="g-root-righ_4kg79if0n30j-fill" data-item-order="3000000000" transform="translate(276.60272216796875, 211.955078125)"></g><g id="g-root-tx_v3lrd2fv44jv-fill" data-item-order="3000000000" transform="translate(392.6474609375, 220)"><g id="tx_v3lrd2fv44jv-fill" stroke="none" fill="#484848"><g><text style="font: 20px Roboto, sans-serif; white-space: pre;" font-size="20px" font-family="Roboto, sans-serif"><tspan x="12" y="33.5" dominant-baseline="ideographic">・影響力</tspan><tspan x="12" y="57.5" dominant-baseline="ideographic">・期待値</tspan><tspan x="12" y="81.5" dominant-baseline="ideographic">・技術力</tspan></text></g></g></g><g id="g-root-tx__1cz9j8mer4d8u-fill" data-item-order="3000000000" transform="translate(46, 250.083984375)"><g id="tx__1cz9j8mer4d8u-fill" stroke="none" fill="#484848"><g><text style="font: 20px Roboto, sans-serif; white-space: pre;" font-size="20px" font-family="Roboto, sans-serif"><tspan x="25" y="33.5" dominant-baseline="ideographic">ジュニア</tspan><tspan x="14.6" y="57.5" dominant-baseline="ideographic">エンジニア</tspan></text></g></g></g><g id="g-root-4.cu_sy_1uqjjqeer4avj-stroke" data-item-order="2999879046" transform="translate(268, 22.083984375)"><g id="4.cu_sy_1uqjjqeer4avj-stroke" fill="none" stroke-linecap="round" stroke-linejoin="round" stroke-miterlimit="4" stroke="#484848" stroke-width="4"><g><path d="M 10 10C 26.9 10.9 44 11.9 60.8 10C 79.2 8 97.8 10.6 116.3 10C 136.8 9.4 157.5 11.8 178 10C 178.7 34 177.3 58 178 82C 159.9 80.2 141.7 83.1 123.5 82C 105.4 80.9 87.2 82.4 69 82C 49.3 81.6 29.7 82.2 10 82C 10 70.8 10 59.7 10 48.5C 10 35.7 8.3 22.7 10 10"></path><path d="M 10 10L 178 10L 178 82L 10 82L 10 10Z"></path></g></g></g><g id="g-root-3.cu_sy_58zvqer4b28-stroke" data-item-order="2999879050" transform="translate(184, 94.083984375)"><g id="3.cu_sy_58zvqer4b28-stroke" fill="none" stroke-linecap="round" stroke-linejoin="round" stroke-miterlimit="4" stroke="#484848" stroke-width="4"><g><path d="M 10 10C 30.2 11.6 50.5 8.3 70.7 10C 89.4 11.5 108.3 9.3 127.1 10C 144.1 10.6 161.1 11.2 178 10C 176 33.9 178.9 58 178 82C 158.7 81.9 139.4 81.1 120.1 82C 102.9 82.8 85.6 80.1 68.5 82C 49.2 84.2 29.5 81.3 10 82C 9.5 70 10.8 57.9 10 45.9C 9.2 34 9.6 22 10 10"></path><path d="M 10 10L 178 10L 178 82L 10 82L 10 10Z"></path></g></g></g><g id="g-root-2.cu_sy_58zvqer4b29-stroke" data-item-order="2999879054" transform="translate(100, 166.083984375)"><g id="2.cu_sy_58zvqer4b29-stroke" fill="none" stroke-linecap="round" stroke-linejoin="round" stroke-miterlimit="4" stroke="#484848" stroke-width="4"><g><path d="M 10 10C 27.3 8.5 44.7 11.4 62 10C 82.9 8.3 103.9 8.7 124.8 10C 142.5 11.1 160.3 9.8 178 10C 177.9 22 179.8 34.1 178 45.9C 176.2 57.8 178.7 70 178 82C 151 80.3 123.8 82.3 96.7 82C 67.8 81.7 38.9 80.3 10 82C 8.5 58 9.1 34 10 10"></path><path d="M 10 10L 178 10L 178 82L 10 82L 10 10Z"></path></g></g></g><g id="g-root-1.cu_sy_1qaq1lyer4bnu-stroke" data-item-order="2999879058" transform="translate(16, 238.083984375)"><g id="1.cu_sy_1qaq1lyer4bnu-stroke" fill="none" stroke-linecap="round" stroke-linejoin="round" stroke-miterlimit="4" stroke="#484848" stroke-width="4"><g><path d="M 10 10C 23.9 8.9 37.9 10.1 51.9 10C 66.1 9.9 80.5 11.7 94.7 10C 107.7 8.4 120.9 10.5 134 10C 148.7 9.4 163.5 8.1 178 10C 178.8 34 178.9 58 178 82C 163.7 80.3 149.1 80.3 134.8 82C 121.5 83.6 107.9 82.6 94.4 82C 79 81.3 63.5 80.6 48.2 82C 35.5 83.2 22.6 80.1 10 82C 10.7 58 10.3 34 10 10"></path><path d="M 10 10L 178 10L 178 82L 10 82L 10 10Z"></path></g></g></g><g id="g-root-tx__1qaq1lyer4bnv-stroke" data-item-order="3000000000" transform="translate(286, 34.083984375)"></g><g id="g-root-tx__1luwjhier4cg4-stroke" data-item-order="3000000000" transform="translate(214, 106.083984375)"></g><g id="g-root-tx__1luwjhier4cg5-stroke" data-item-order="3000000000" transform="translate(130, 178.083984375)"></g><g id="g-root-righ_4kg79if0n30j-stroke" data-item-order="3000000000" transform="translate(276.60272216796875, 211.955078125)"><g id="righ_4kg79if0n30j-stroke" fill="none" stroke-linecap="round" stroke-linejoin="round" stroke-miterlimit="4" stroke="#484848" stroke-width="2"><g><path d="M 81.526428 12.154593L 111.87281 12.154593L 111.87281 42.500973M 111.87281 12.154593L 42.509647 81.517746"></path></g></g></g><g id="g-root-tx_v3lrd2fv44jv-stroke" data-item-order="3000000000" transform="translate(392.6474609375, 220)"></g><g id="g-root-tx__1cz9j8mer4d8u-stroke" data-item-order="3000000000" transform="translate(46, 250.083984375)"></g></g></g></svg>